<svg xmlns="http://www.w3.org/2000/svg" viewBox="0 0 240 240" width="900" height="900"><title>Julia / Mandelbrot fractal: default</title><defs><path id="tile" d="M59.009503692388535,68.35228838026524L59.40629684180021,68.52132631093264L59.79431000351906,68.5827154070139L59.86157639324665,68.62227384746075L59.99270387738943,68.76859641820192L60.019584238529205,68.84134147316217L60.03937400877476,68.9891810119152L59.96173091977835,69.20314288884401L59.82147804647684,69.35254421085119L59.74311921000481,69.40441790223122L59.58611921966076,69.46503192186356L59.370155461132526,69.50841028243303L59.19321674108505,69.4941368624568L59.011963091790676,69.42412637919188L58.81126096844673,69.30682923644781L58.69592986255884,69.21640139073133L58.59333588182926,69.08481746166945L58.54234181344509,68.9837733283639L58.438532933592796,68.63539011776447L58.45192722976208,68.43000160902739L58.48947390913963,68.3615919277072L58.55461896955967,68.2993760034442L58.626299142837524,68.26852814853191L58.70432794839144,68.26745925843716ZM21.443916708230972,68.2983778193593L21.52514036744833,68.3813508823514L21.554013177752495,68.45384913682938L21.56703671067953,68.6028758212924L21.457658179104328,68.9837733283639L21.406664110720158,69.08481746166945L21.304070129990578,69.21640139073133L21.188739016652107,69.30682923644781L20.988036900758743,69.42412637919188L20.792057439684868,69.49739093333483L20.570946030318737,69.50312245637178L20.386739142239094,69.45636124163866L20.227279759943485,69.38987872749567L20.031785398721695,69.19357819110155L19.96245115995407,69.00965306907892L19.99038176238537,68.80342239886522L20.03093747794628,68.73731920868158L20.15382193773985,68.6098600924015L20.224666737020016,68.57713928073645L20.60585805773735,68.51782715320587L20.990496300160885,68.35228838026524L21.18947934359312,68.28927370905876L21.33296699076891,68.2641346976161ZM21.386354587972164,52.96490120887756L21.608233578503132,53.09040617197752L21.77137602120638,53.209103889763355L21.924498602747917,53.37405463308096L22.01678566634655,53.57215789705515L22.039256162941456,53.81374880671501L22.01459661871195,54.20542644709349L22.05775272101164,54.400521993637085L22.201903946697712,54.54624027013779L22.407680548727512,54.59536287933588L22.78458981215954,54.60731986165047L22.962762340903282,54.64145328849554L23.03183799237013,54.669859148561954L23.188537441194057,54.77665813267231L23.23006348311901,54.8353513404727L23.310811139643192,55.01447723060846L23.428488448262215,55.40700309723616L23.717661537230015,55.97816985845566L23.770335778594017,56.20889464765787L23.79222121834755,56.41141480207443L23.78013837337494,56.78124266862869L23.726171530783176,57.007064282894135L23.675611533224583,57.382402181625366L23.453011706471443,58.01406513899565L23.33172558993101,58.20977032929659L23.016798682510853,58.60831993073225L22.65336997807026,58.99281641095877L22.52800752967596,59.20343925058842L22.430324517190456,59.40843456983566L22.21815586090088,59.70203260332346L22.090717263519764,59.80396793782711L22.005032442510128,59.85174837708473L21.784230053424835,59.873586386442184L21.39119590073824,59.79980293661356L21.19542133808136,59.83094246685505L20.99425210803747,59.92888572067022L20.77257040888071,60.20905192196369L20.699847146868706,60.406368136405945L20.65553253889084,60.60512533783913L20.670068681240082,60.80468215048313L20.786014936864376,60.99935583025217L21.00784522294998,61.06476639211178L21.203063137829304,61.07407995313406L21.61311400681734,61.06175988167524L21.788193210959435,61.0999658703804L21.928315989673138,61.208914682269096L21.988911978900433,61.298075668513775L22.169744469225407,61.81924544274807L22.196489073336124,62.02468887716532L22.177988156676292,62.19078352302313L22.049570381641388,62.40319339931011L21.630609691143036,62.800563991069794L21.563060723245144,63.00835318118334L21.577686183154583,63.204563960433006L21.660915851593018,63.40381556004286L21.79371965676546,63.5636303126812L22.000212728977203,63.66433475166559L22.20609301328659,63.66065934300423L22.390520587563515,63.61039698123932L22.600679993629456,63.431044690310955L22.793419659137726,63.237555138766766L22.965779840946198,63.17528446018696L23.043653301894665,63.18032047152519L23.409789502620697,63.314937338232994L23.607807002961636,63.46884813904762L23.743181370198727,63.616187408566475L23.80456218868494,63.70910777896643L24.000569626688957,63.90493322908878L24.203685708343983,63.97982610017061L24.406241290271282,63.94626630842686L24.791049383580685,63.794642210006714L25.405430376529694,63.803467988967896L25.60726422816515,63.77682760357857L25.801930859684944,63.67438118904829L25.885423362255096,63.590391136705875L26.479935728013515,63.199214309453964L26.8150926977396,62.95264369249344L26.993274487555027,62.86090721189976L27.176211789250374,62.736708872020245L27.30951625853777,62.691686756908894L27.387193381786346,62.69916345924139L27.45609649270773,62.73579677194357L27.50573568791151,62.79600962251425L27.528553880751133,62.87063513696194L27.511379428207874,63.00796312093735L27.452981643378735,63.217192351818085L27.363313749432564,63.39576318114996L27.201219461858273,63.65110705047846L27.089497096836567,63.79336568713188L26.85275463759899,64.20593368262053L26.680017538368702,64.40847718715668L26.38908802717924,64.60570649057627L26.19744546711445,64.85776375234127L26.013243801891804,65.17015147954226L25.75732020288706,65.405522108078L25.587487496435642,65.51619546860456L25.428197287023067,65.57176779210567L24.913030073046684,65.60043009370565L24.60037676244974,65.66339027136564L24.424542538821697,65.8075205013156L24.34594187885523,66.0065271705389L24.307324402034283,66.19263461977243L24.2348463088274,66.4224764034152L24.086281657218933,66.60116314142942L23.81331341713667,66.72289781272411L23.22412896156311,66.8513857871294L22.9877195879817,66.84304677695036L22.813517339527607,66.81162113696337L22.588279999792576,66.73949559032917L22.417290687561035,66.6592049524188L22.086078748106956,66.4011477380991L21.666647151112556,66.01026813685894L21.30560941249132,65.58667319267988L21.175360091030598,65.39109752327204L20.999316811561584,65.0757038667798L20.797937981784344,64.98289217799902L20.600391067564487,65.06977315992117L20.387226082384586,65.27291560173035L20.173020727932453,65.40579231083393L19.991188913583755,65.48309022933245L19.6136988773942,65.60366228967905L19.40322980284691,65.80055607110262L19.359702222049236,66.00893370807171L19.360224328935146,66.587576366961L19.31110791116953,66.98538968712091L19.223287008702755,67.1162903085351L19.15657030045986,67.15676891058683L19.012282483279705,67.17823886871338L18.547917157411575,66.99999912828207L18.22862397134304,66.79089610278606L18.075501389801502,66.62594535946846L17.98321431875229,66.42784208804369L17.960743829607964,66.18625117093325L17.98540336638689,65.79457353800535L17.94224727153778,65.59947799891233L17.798096038401127,65.45375972241163L17.592319436371326,65.40463711321354L17.21541018038988,65.39268013089895L17.037237651646137,65.3585466966033L16.96816200017929,65.33014083653688L16.811462551355362,65.22334185987711L16.76993650943041,65.16464865207672L16.689188852906227,64.98552276194096L16.571511536836624,64.59299688786268L16.282338447868824,64.02183012664318L16.229664206504822,63.791105322539806L16.20777878165245,63.58858519047499L16.21986161917448,63.21875733137131L16.273828461766243,62.992935702204704L16.324388459324837,62.61759781092405L16.546988278627396,61.98593486845493L16.668274402618408,61.79022966325283L16.983201391994953,61.3916799724102L17.34663000702858,61.00718358159065L17.471992403268814,60.79656086117029L17.569675467908382,60.59156542271376L17.78184413164854,60.29796738922596L17.909282729029655,60.19603204727173L17.99496755003929,60.14825160801411L18.215769939124584,60.126413598656654L18.60880383104086,60.20019709318876L18.80457864701748,60.16905751824379L19.005747877061367,60.071114271879196L19.22742958366871,59.79094807058573L19.300152838230133,59.593631848692894L19.34446745365858,59.39487464725971L19.329931311309338,59.19531784206629L19.213985048234463,59.00064416229725L18.992154769599438,58.93523360043764L18.796936847269535,58.92592003941536L18.386885970830917,58.938240110874176L18.211806781589985,58.90003412216902L18.07168400287628,58.79108531028032L18.011088013648987,58.701924316585064L17.830255523324013,58.18075454980135L17.803510919213295,57.97531110793352L17.822011828422546,57.80921646952629L17.95042961090803,57.59680659323931L18.369390301406384,57.199436001479626L18.436939269304276,56.99164681136608L18.422313809394836,56.79543603211641L18.339084140956402,56.59618443250656L18.206280328333378,56.43636967986822L17.999787263572216,56.33566524088383L17.79390697926283,56.33934064954519L17.609479397535324,56.3896030113101L17.399319998919964,56.568955302238464L17.206580318510532,56.762444861233234L17.034220099449158,56.82471553236246L16.95634663850069,56.81967951357365L16.590210489928722,56.685062646865845L16.392192989587784,56.5311518535018L16.256818622350693,56.383812576532364L16.1954377964139,56.29089221358299L15.999430358409882,56.095066763460636L15.796314276754856,56.02017389237881L15.593758642673492,56.05373369157314L15.208950608968735,56.205357782542706L14.594569608569145,56.196532003581524L14.39273575693369,56.22317238897085L14.198069132864475,56.32561880350113L14.114576630294323,56.40960884839296L13.520064279437065,56.80078566074371L13.184907227754593,57.047356337308884L13.006725512444973,57.13909278064966L12.823788203299046,57.263291120529175L12.69048372656107,57.308313228189945L12.612806610763073,57.30083653330803L12.54390349984169,57.26420322060585L12.494264297187328,57.20399037003517L12.471446111798286,57.1293648481369L12.488620556890965,56.99203687161207L12.547018349170685,56.782807640731335L12.636686243116856,56.60423681139946L12.798780530691147,56.34889294207096L12.910502977669239,56.20663417130709L13.147245347499847,55.794066309928894L13.319982446730137,55.59152279794216L13.610911957919598,55.39429350197315L13.80255451798439,55.14223624020815L13.986756190657616,54.829848520457745L14.242679789662361,54.594477877020836L14.412512488663197,54.483804516494274L14.571802698075771,54.428232200443745L15.086969919502735,54.399569898843765L15.399623230099678,54.33660972118378L15.575457446277142,54.192479491233826L15.654058128595352,53.99347276985645L15.692675590515137,53.807365387678146L15.76515368372202,53.577523589134216L15.913718327879906,53.398836851119995L16.18668656796217,53.277102179825306L16.77587103098631,53.14861419796944L17.012280397117138,53.15695320814848L17.186482653021812,53.18837884813547L17.411719992756844,53.26050440222025L17.582709297537804,53.340795040130615L17.913921236991882,53.59885224699974L18.333352841436863,53.9897318482399L18.694390580058098,54.41332679241896L18.82463990151882,54.60890246927738L19.000683180987835,54.924296118319035L19.202062010765076,55.01710780709982L19.39960891753435,54.93022683262825L19.612773910164833,54.72708439081907L19.826979257166386,54.59420768171549L20.008811078965664,54.51690976321697L20.38630110770464,54.39633770287037L20.59677018970251,54.1994439214468L20.640297770500183,53.99106627702713L20.639775663614273,53.412423633039L20.68889208137989,53.014610320329666L20.776712976396084,52.88370967656374L20.843429692089558,52.843231081962585L20.987717509269714,52.82176111638546ZM59.1552949398756,52.842771872878075L59.222284473478794,52.88279736787081L59.301794700324535,52.990765661001205L59.360224328935146,53.41242361813784L59.361527770757675,54.00874496251345L59.40621475875378,54.203601486980915L59.60610491037369,54.39192260801792L60.00850847363472,54.52342914789915L60.20110111683607,54.60903292149305L60.387226082384586,54.72708439081907L60.60069963335991,54.93044371902943L60.80210538953543,55.01718174666166L60.99932552874088,54.924287773668766L61.1753600910306,54.60890246927738L61.30560939759016,54.41332679986954L61.66664715856314,53.9897318482399L62.00251130759716,53.67218650132418L62.3845596536994,53.36015888303518L62.588279999792576,53.26050440222025L62.81351733952761,53.18837884813547L63.01246079802513,53.154066152870655L63.22412896156311,53.14861419796944L63.78608959913254,53.26874531060457L63.98765444755554,53.344540640711784L64.11523980647326,53.425267949700356L64.20992851257324,53.53599391132593L64.25162564218044,53.61295849084854L64.34950617700815,54.006289817392826L64.42397259175777,54.19149302691221L64.60044690221548,54.336642779409885L65.00672107189894,54.41133350878954L65.40903366357088,54.42265755683184L65.62192617356777,54.50254367291927L65.77300690114498,54.60629492253065L65.97251094132662,54.78038974106312L66.202965259552,55.1505129635334L66.39936079829931,55.403795301914215L66.58677385002375,55.51669442653656L66.6800175383687,55.59152279794216L66.85275463759899,55.794066309928894L67.0802599415183,56.192586198449135L67.23367030918598,56.391964077949524L67.39754834771156,56.6673568636179L67.46601056307554,56.81843426823616L67.5295080319047,57.11391796171665L67.51252847909927,57.1900844424963L67.46769378334284,57.25395529717207L67.40182959288359,57.2958067804575L67.3249631524086,57.30926737934351L67.19099152088165,57.27207200974226L66.99327442795038,57.13909274339676L66.78709477186203,57.02872207760811L66.39540892839432,56.73872286826372L65.99234438687563,56.49153534322977L65.79715487360954,56.322024650871754L65.59187393635511,56.21843169629574L65.4054303765297,56.196532003581524L64.79234813898802,56.20558238774538L64.39331358671188,56.05005142092705L64.19653417915106,56.0208952203393L63.99622792005539,56.09837964177132L63.796643160283566,56.30036001652479L63.71954865753651,56.41391471028328L63.607807002961636,56.5311518535018L63.42191033810377,56.67689265310764L63.032961286604404,56.82222191989422L62.954928770661354,56.82297275215387L62.814170986413956,56.775338500738144L62.3928904235363,56.390248872339725L62.19368579983711,56.33758673816919L61.9936248511076,56.33755452185869L61.80010698735714,56.42990293353796L61.65581498295069,56.604568637907505L61.57561471313238,56.804961413145065L61.56350406259298,57.00133816897869L61.634341061115265,57.204221710562706L62.058428548276424,57.60688243806362L62.17305202782154,57.79447700083256L62.196087546646595,58.01451590657234L62.16981139779091,58.1803390532732L62.03073973953724,58.61025036126375L61.93998000770807,58.775322288274765L61.80626530945301,58.89148183912039L61.58660455793142,58.93998607248068L61.19694019854069,58.92603026330471L60.992429189383984,58.93770845234394L60.79365100711584,58.99483273923397L60.66822014003992,59.200319312512875L60.656375989317894,59.40500368177891L60.70359967648983,59.60612315684557L60.77251327782869,59.79079499095678L60.92207291722298,59.9957280382514L61.00747462362051,60.0805694386363L61.20500306785107,60.171971172094345L61.39996725320816,60.200673177838326L61.81590335071087,60.12536010146141L61.991466492414474,60.143818743526936L62.10340525209904,60.20445300638676L62.205017417669296,60.2823491692543L62.430324517190456,60.59156542271376L62.53150650858879,60.803306967020035L62.653082482516766,61.00687553733587L63.01679863780737,61.391680009663105L63.33172558993101,61.79022966325283L63.44971414655447,61.98013001680374L63.666971907019615,62.58317229151726L63.72875165194273,63.00688101351261L63.77416407316923,63.18180453032255L63.79222121834755,63.58858519047499L63.77033577859402,63.79110533744097L63.717661537230015,64.02183012664318L63.42264299094677,64.60746049880981L63.31081113964319,64.98552276194096L63.21013507992029,65.19841306656599L63.15795648097992,65.24787718057632L62.997058019042015,65.34823866933584L62.815113231539726,65.38883425295353L62.39253830164671,65.40658681094646L62.199075400829315,65.45536906272173L62.05669278651476,65.60144694894552L62.013770930469036,65.80553954839706L62.039256162941456,66.18625117838383L62.01678566634655,66.42784208804369L61.92449860274792,66.62594535946846L61.79386377334595,66.7698138281703L61.59121373295784,66.92049576342106L61.41272086650133,67.02249167114496L61.01076973974705,67.17572826892138L60.84470505267382,67.15722811967134L60.777715519070625,67.11720261722803L60.698205292224884,67.00923433154821L60.63977566361427,66.58757635951042L60.638472221791744,65.99125503003597L60.59378522634506,65.79639849811792L60.39389508217573,65.60807737708092L59.9914915189147,65.47657083719969L59.79889886826277,65.39096707105637L59.61277391016483,65.27291560173035L59.39930035918951,65.06955627351999L59.19789460301399,64.98281823843718L59.000674456357956,65.07571221888065L58.82463990151882,65.39109752327204L58.6943905800581,65.58667320013046L58.33335284143686,66.01026812940836L57.99748867750168,66.32781349122524L57.61544033885002,66.63984110951424L57.411719992756844,66.73949559032917L57.18648265302181,66.81162113696337L56.98753918707371,66.84593383967876L56.77587103098631,66.8513857871294L56.21391039341688,66.73125468194485L56.0123455375433,66.65545935183764L55.884760178625584,66.57473204284906L55.79007147997618,66.46400608122349L55.74837435036898,66.38704150170088L55.65049380809069,65.99371016770601L55.576027400791645,65.80850695818663L55.39955309033394,65.66335721313953L54.99327892065048,65.5886664763093L54.59096632897854,65.577342428267L54.37807381898165,65.49745631963015L54.22699309140444,65.39370507001877L54.0274890512228,65.2196102514863L53.79703473299742,64.84948702901602L53.600639186799526,64.5962046906352L53.41322612762451,64.48330555856228L53.31998244673014,64.40847718715668L53.14724534749985,64.20593368262053L52.91974005103111,63.807413786649704L52.76632968336344,63.608035907149315L52.602451637387276,63.33264312893152L52.53398942947388,63.18156571686268L52.47049196064472,62.88608203083277L52.487471513450146,62.80991555005312L52.53230620920658,62.74604468792677L52.59817039966583,62.70419321209192L52.67503684014082,62.69073261320591L52.80900847166777,62.72792798280716L53.00672545284033,62.860907182097435L53.21290522068739,62.97127790749073L53.60459105670452,63.26127711683512L54.00765559822321,63.50846464931965L54.20284511893988,63.677975341677666L54.408126048743725,63.7815682888031L54.594569608569145,63.803467988967896L55.2076518535614,63.79441759735346L55.606686398386955,63.94994857162237L55.80346581339836,63.97910477221012L56.00377210229635,63.90162032842636L56.20335680246353,63.69964001327753L56.28045132756233,63.58608528226614L56.392192989587784,63.46884813904762L56.57808964699507,63.323107339441776L56.96703860163689,63.17777808755636L57.04507111757994,63.177027218043804L57.18582896143198,63.224661469459534L57.60710956901312,63.609751120209694L57.80631419271231,63.662413246929646L58.00637514144182,63.66244547069073L58.1998929977417,63.57009705901146L58.34418500959873,63.395431347191334L58.42438527941704,63.195038579404354L58.436495929956436,62.99866182357073L58.365658931434155,62.79577828198671L57.941571429371834,62.39311754703522L57.8269479572773,62.20552299171686L57.803912438452244,61.9854840785265L57.83018858730793,61.81966093927622L57.96926025301218,61.38974963128567L58.060019977390766,61.224677696824074L58.19373468309641,61.10851815342903L58.413395427167416,61.06001392006874L58.80305978655815,61.07396972924471L59.007570803165436,61.06229154020548L59.206348977983,61.00516725331545L59.3317798525095,60.799680680036545L59.343624003231525,60.59499631077051L59.29640030860901,60.39387682825327L59.227486707270145,60.209205001592636L59.07792706787586,60.00427194684744L58.99252536892891,59.919430546462536L58.79499693214893,59.828028820455074L58.60003273934126,59.79932680726051L58.18409664183855,59.87463989108801L58.008533500134945,59.856181249022484L57.89659474045038,59.79554697871208L57.79498256742954,59.717650823295116L57.56967546790838,59.40843456983566L57.46849347651005,59.196693018078804L57.346917510032654,58.993124447762966L56.98320134729147,58.608319982886314L56.66827440261841,58.20977032929659L56.55028583854437,58.0198699682951L56.333028078079224,57.41682770103216L56.27124834805727,56.99311901628971L56.22583591938019,56.81819546967745L56.20777878165245,56.41141480207443L56.22966420650482,56.20889467000961L56.282338447868824,55.97816985845566L56.57735700160265,55.392539486289024L56.68918885290623,55.01447723060846L56.78986491262913,54.80158691853285L56.8420435115695,54.752122811973095L57.002941973507404,54.65176132321358L57.18488676100969,54.61116573959589L57.60746169090271,54.593413181602955L57.800924591720104,54.54463092982769L57.94330719858408,54.3985530436039L57.98622906208038,54.194460436701775L57.960743829607964,53.81374882161617L57.98321431875229,53.57215789705515L58.0755013898015,53.37405463308096L58.20613621920347,53.23018615692854L58.40878626704216,53.07950422912836L58.58727905899286,52.97750835120678L58.98923025280237,52.824271723628044ZM50.589701659977436,56.94741050153971L50.78058934211731,57.00534325838089L51.19144584238529,57.242992267012596L51.40396258234978,57.27012065052986L51.78588580340147,57.19617313891649L51.98402305692434,57.187726482748985L52.21975056827068,57.21968148648739L52.414235450327396,57.291595101356506L52.57579565048218,57.39294262975454L52.79524876177311,57.57488103955984L53.224480889737606,57.80794133245945L53.465579733252525,57.9915855973959L53.68226978182793,58.2038312330842L54.000884868204594,58.4247223213315L54.42354557663202,58.81243717670441L54.54738572984934,59.012711472809315L54.80411983281374,59.58823149651289L54.82176020741463,59.804363287985325L54.80819824337959,59.881211906671524L54.76625992357731,59.94702084362507L54.702329978346825,59.99177125841379L54.62614116817713,60.008650332689285L54.54929254949093,59.99508836120367L54.483483619987965,59.953150041401386L54.37579830735922,59.7970979064703L54.211411751806736,59.60412310063839L54.071793891489506,59.39757098257542L53.84349059313536,59.18955817818642L53.66561072319746,58.99605189263821L53.39311923831701,58.800820738077164L53.20614796876907,58.71686016768217L53.004549279809,58.656398229300976L52.59227631986141,58.57440900057554L52.3971186503768,58.55966758728027L51.794372498989105,58.57901731878519L51.594656713306904,58.61856056749821L51.392369613051414,58.68400479853153L50.78265579044819,59.05815576761961L50.58905629068613,59.13142289221287L50.31895527988672,59.20350407063961L50.20056404918432,59.25836084783077L50.08346129953861,59.40029428899288L50.10405804216862,59.61924076080322L50.0872458294034,59.812936417758465L50.049528166651726,59.99016398191452L49.97133515775204,60.21644130349159L49.849384643137455,60.413902662694454L49.67337433248758,60.60596788674593L49.56526491045952,60.806749522686005L49.55740734934807,60.999854758381844L49.640504367649555,61.19108871370554L50.06187258660793,61.594189412891865L50.36123864352703,61.98889356851578L50.47014790773392,62.219080589711666L50.56995593011379,62.61733943969011L50.603296883404255,62.98291979730129L50.585256926715374,63.209802120923996L50.54210917651653,63.41538265347481L50.36988104879856,63.779759638011456L50.18897631019354,63.98557397723198L49.6204699203372,64.4796058088541L49.21640481054783,64.66483023762703L48.97771867364645,64.71577475219965L48.80346942692995,64.7111711576581L48.58793707937002,64.61734350770712L48.39550360292196,64.41267284750938L48.30927299708128,64.19334307312965L48.175715923309326,63.997244760394096L47.99543336778879,63.883028618991375L47.79292523115873,63.82949595153332L47.59258019924164,63.86239767074585L47.18397343158722,64.01535425335169L46.99365244805813,64.06581813842058L46.768315978348255,64.04417870938778L46.58813191950321,63.968547977507114L46.33323062956333,63.810385040938854L46.20642610639334,63.67744316160679L45.69731026887894,62.99014414101839L45.582616448402405,62.688285291194916L45.58245316147804,62.61024934053421L45.61216536909342,62.53809101879597L45.667229659855366,62.48279581218958L45.739262998104095,62.45278187841177L45.8172989487648,62.45261859148741L46.00970157980919,62.51424814015627L46.6090792119503,62.5988634377718L46.80473533272743,62.59838581085205L47.199662782251835,62.54655163735151L47.3940556794405,62.37361258268356L47.604280181229115,61.95131175220013L47.81257075816393,61.66071908175945L48.04822777956724,61.39956461638212L48.07571794092655,61.19940756261349L47.982470497488976,61.00043281912804L47.80855815857649,60.84270100295544L47.395951829850674,60.39625106006861L47.09843263030052,60.01084032654762L46.970068380236626,59.78471262007952L46.839683532714844,59.41795899719L46.80801971256733,59.2323996797204L46.84300661832094,58.986258529126644L46.96302466094494,58.59135693311691L47.049766048789024,58.39050658792257L47.28079549968243,57.98949655145407L47.42933031916618,57.78891754895449L47.59646826982498,57.603525556623936L47.816006161272526,57.50755587220192L47.997090741992,57.480323910713196L48.18484105914831,57.527173571288586L48.23835553228855,57.56464119255543L48.601089246571064,57.96004156768322L48.80534663051367,58.03772907704115L49.00218468159437,58.044476091861725L49.19934103637934,57.92838358134031L49.591689467430115,57.31473694741726L49.69173899292946,57.21016173809767L49.97817303240299,57.01012645661831L50.21394491195679,56.92600949853659L50.41179633140564,56.913422867655754ZM29.824160911142826,56.93523573875427L30.014916360378265,57.00586695969105L30.286949962377548,57.19135779887438L30.46416588127613,57.39019068330526L30.709617108106613,57.802556566894054L30.8006619066,57.92838633060455L31.002644881606102,58.04558718204498L31.205077208578587,58.03580865263939L31.40633200109005,57.95380783826113L31.792211890220642,57.54008899629116L31.997455410659313,57.48054449260235L32.214881263673306,57.51661731302738L32.394028797745705,57.59664271771908L32.58831603080034,57.812382347881794L32.73351959139109,58.01144429296255L32.96079525351524,58.410082556307316L33.04269967228174,58.60890816897154L33.164055712521076,59.01425302028656L33.19198027998209,59.2323996797204L33.160316459834576,59.41795899719L33.029931612312794,59.78471262007952L32.916869938373566,59.98810771852732L32.59556532651186,60.40658561885357L32.39703717082739,60.63136383891106L32.01732403039932,61.00070685893297L31.924061872065067,61.200878992676735L31.953075051307678,61.402399227023125L32.210356287658215,61.68635907769203L32.42591132223606,62.005073830485344L32.59574007242918,62.35693561285734L32.63215018808842,62.405213341116905L32.802424758672714,62.54745884984732L33.19526465982199,62.59838581085205L33.39092078059912,62.5988634377718L34.009263910353184,62.509808011353016L34.194986030459404,62.45059662312269L34.2728606313467,62.45561508089304L34.34288688749075,62.49005285650492L34.39440394937992,62.54866711050272L34.41956879943609,62.622534327208996L34.414550341665745,62.700408928096294L34.31037566065788,62.97232873737812L33.7935738787055,63.67744316160679L33.66676936298609,63.810385040938854L33.38732472807169,63.98036313802004L33.16574873775244,64.05914557725191L32.99430043250322,64.06445500254631L32.8160265609622,64.01535425335169L32.40741979330778,63.86239767074585L32.19310163706541,63.83030568063259L31.996025912463665,63.8868627473712L31.816712968051434,64.0038909688592L31.683709360659122,64.20743151009083L31.603774286806583,64.41386409848928L31.41667229682207,64.61441831290722L31.201571136713028,64.71007777005434L30.983246847987175,64.71210215985775L30.81735373288393,64.67550136893988L30.424241803586483,64.50787003338337L29.7904017791152,63.96572270989418L29.656703300774097,63.81716883927584L29.59788679331541,63.72067525237799L29.446801349520683,63.37777677923441L29.411986529827118,63.190059907734394L29.399997353553772,62.94448693096638L29.430044062435627,62.61733943969011L29.52985207736492,62.21908059716225L29.63876134902239,61.98889356851578L29.938127398490906,61.594189412891865L30.355092339217663,61.19883573055267L30.443252079188824,60.993481658399105L30.43348766863346,60.80023159831762L30.31848994642496,60.59500680863857L30.128819599747658,60.38407450914383L30.0286648273468,60.21644130349159L29.950471818447113,59.99016398191452L29.90897537767887,59.78681340068579L29.896655537188053,59.58082816004753L29.91653321683407,59.40027581900358L29.79449213296175,59.255071081221104L29.665142193436623,59.19784340262413L29.41094370186329,59.13142289221287L29.21734420210123,59.05815576761961L28.5916468501091,58.67708507180214L28.405343279242516,58.61856056749821L28.205627493560314,58.57901731878519L27.802513249218464,58.556078627705574L27.407723672688007,58.57440900057554L26.99545071274042,58.656398229300976L26.793852016329765,58.71686016768217L26.593708120286465,58.80852022767067L26.325229831039906,59.004519671201706L26.138323448598385,59.209220081567764L25.92287576198578,59.403415739536285L25.795391857624054,59.59569176286459L25.506274960935116,59.962303809821606L25.43774262070656,59.999626129865646L25.3601443618536,60.00788126140833L25.28529381006956,59.985812433063984L25.22458630055189,59.93677943199873L25.18726398050785,59.86824709177017L25.17823977768421,59.804363287985325L25.194361828267574,59.59372677654028L25.45261426270008,59.012711472809315L25.576454408466816,58.81243717670441L26.040838852524757,58.39116436243057L26.327568866312504,58.195535250008106L26.534420259296894,57.9915855973959L26.775519102811813,57.80794133245945L27.204751148819923,57.574881099164486L27.40275414288044,57.40848246216774L27.62133964151144,57.27511513233185L27.818356052041054,57.21045853942633L28.015976928174496,57.187726482748985L28.185673147439957,57.19320900738239L28.605770610272884,57.27034643292427L28.79970344901085,57.24690596014261L29.21941065043211,57.00534325838089L29.389968141913414,56.95248136669397L29.61204431205988,56.91210047900677ZM9.18264625966549,55.32449862360954L9.575758188962936,55.49212995916605L10.20959821343422,56.03427728265524L10.343296691775322,56.18283115327358L10.402113199234009,56.27932474017143L10.553198643028736,56.62222321331501L10.588013462722301,56.809940077364445L10.600003562867641,57.055502220988274L10.569955930113792,57.382660552859306L10.470147907733917,57.78091940283775L10.361238643527031,58.01110640913248L10.061872586607933,58.405810579657555L9.644907653331757,58.801164261996746L9.556747913360596,59.006518326699734L9.566512316465378,59.199768386781216L9.681510038673878,59.404993176460266L9.871180392801762,59.61592548340559L9.971335157752037,59.78355868905783L10.049528166651726,60.0098360106349L10.091024607419968,60.21318659186363L10.103344447910786,60.41917181760073L10.08346676826477,60.59972417354584L10.20550785958767,60.744928911328316L10.334857799112797,60.80215658992529L10.58905628323555,60.86857709288597L10.782655790448189,60.94184421747923L11.408353142440319,61.32291492074728L11.594656713306904,61.38143941760063L11.794372498989105,61.42098266631365L12.197486743330956,61.443921357393265L12.592276319861412,61.42559099197388L13.004549279808998,61.343601763248444L13.206147968769073,61.28313981741667L13.406291872262955,61.19147975742817L13.674770161509514,60.99548032134771L13.861676536500454,60.790779910981655L14.07712423056364,60.596584253013134L14.204608127474785,60.40430822968483L14.493725031614304,60.037696182727814L14.562257371842861,60.00037386268377L14.63985563069582,59.99211873114109L14.714706182479858,60.014187559485435L14.775413691997528,60.06322056055069L14.812736012041569,60.13175290077925L14.821760207414627,60.195636697113514L14.805638156831264,60.40627320855856L14.547385729849339,60.987288519740105L14.423545576632023,61.18756280839443L13.959161147475243,61.608835622668266L13.672431118786335,61.80446474254131L13.465579733252525,62.00841438770294L13.224480889737606,62.19205866008997L12.795248851180077,62.42511887848377L12.59724584966898,62.59151753038168L12.37866035103798,62.72488486021757L12.181643940508366,62.78954145312309L11.984023056924343,62.812273509800434L11.814326837658882,62.806790977716446L11.394229382276535,62.72965355962515L11.20029654353857,62.75309403240681L10.78058934211731,62.99465672671795L10.610031850636005,63.047518618404865L10.372595116496086,63.08724222332239L10.186927892267704,63.06827528774738L9.978173032402992,62.98987352848053L9.691738992929459,62.78983824700117L9.591689467430115,62.68526303768158L9.19933807849884,62.071613661944866L8.997355110943317,61.95441281050444L8.794922776520252,61.96419133991003L8.59366799145937,62.04619214683771L8.207788102328777,62.45991098880768L8.002544581890106,62.51945549994707L7.785118728876114,62.48338267952204L7.605971187353134,62.40335726737976L7.411683939397335,62.187617622315884L7.266480401158333,61.98855569958687L7.039204739034176,61.58991742879152L6.957300320267677,61.39109180867672L6.835944280028343,60.98574697226286L6.808019712567329,60.76760031282902L6.839683532714844,60.58204098790884L6.970068380236626,60.2152873724699L7.083130046725273,60.01189226657152L7.404434658586979,59.59341437369585L7.602962829172611,59.3686361387372L7.982675962150097,58.99929313361645L8.075938120484352,58.799120999872684L8.046924941241741,58.597600758075714L7.789643697440624,58.31364090740681L7.574088670313358,57.994926162064075L7.404259920120239,57.64306437969208L7.367849797010422,57.594786651432514L7.197575226426125,57.4525411427021L6.804735332727432,57.40161418169737L6.609079211950302,57.40113654732704L5.990736037492752,57.490191988646984L5.805013939738274,57.54940337687731L5.727139346301556,57.54438489675522L5.657113090157509,57.50994712114334L5.605596028268337,57.45133286714554L5.580431178212166,57.37746564298868L5.585449658334255,57.299591049551964L5.689624331891537,57.02767126262188L6.206426106393337,56.32255683094263L6.333230629563332,56.189614951610565L6.612675301730633,56.01963683217764L6.834251247346401,55.94085440784693L7.005699560046196,55.93554499000311L7.183973431587219,55.98464573919773L7.592580199241638,56.13760232180357L7.806898348033428,56.16969431191683L8.003974080085754,56.11313723772764L8.183287017047405,55.996109023690224L8.316290646791458,55.79256846010685L8.396225698292255,55.586135901510715L8.583327688276768,55.3855816796422L8.79842884838581,55.28992222249508L9.016753137111664,55.28789783269167ZM71.41206292062998,55.38265647739172L71.60449639707804,55.587327137589455L71.69072700291872,55.806656919419765L71.82428407669067,56.00275523215532L72.00456663221121,56.116971373558044L72.20707476884127,56.1705040410161L72.40741980075836,56.13760232180357L72.81602656841278,55.98464573919773L73.00634755194187,55.93418184667826L73.2316840365529,55.95582129061222L73.41186808049679,56.031452007591724L73.66676937043667,56.189614951610565L73.79357389360666,56.32255683094263L74.30268973112106,57.00985583662987L74.41738353669643,57.31171464920044L74.41754685342312,57.389750599861145L74.3878346607089,57.46190892159939L74.33277037739754,57.5172041580081L74.26073704659939,57.54721809923649L74.18270110338926,57.54738140851259L73.99029842019081,57.48575185239315L73.3909207880497,57.40113654732704L73.19526466727257,57.40161418169737L72.80033721774817,57.453448347747326L72.6059443205595,57.626387409865856L72.39571981877089,58.04868824034929L72.18742924928665,58.339280903339386L71.95177222043276,58.60043536871672L71.92428205907345,58.80059242993593L72.01752950251102,58.99956717342138L72.19144182652235,59.15729898959398L72.60404817014933,59.60374893248081L72.90156736969948,59.989159658551216L73.02993161976337,60.2152873724699L73.16031646728516,60.58204098790884L73.19198028743267,60.76760031282902L73.15699338167906,61.013741448521614L73.03697533905506,61.40864305943251L72.95023395121098,61.609493389725685L72.71920450031757,62.01050344109535L72.57066968083382,62.21108244359493L72.40353173017502,62.3964744284749L72.18399383872747,62.4924441203475L72.002909258008,62.519676081836224L71.81515894085169,62.472826421260834L71.76164446771145,62.43535879999399L71.39891075342894,62.03995841741562L71.19465336948633,61.96227090805769L70.99781531840563,61.955523900687695L70.80065896362066,62.071616411209106L70.40831053256989,62.68526303768158L70.30826100707054,62.78983824700117L70.02182696759701,62.98987352848053L69.78605508059263,63.07399048656225L69.57301001995802,63.084225080907345L69.38996814191341,63.047518618404865L69.1823849901557,62.97720831632614L68.80855415016413,62.75700771808624L68.59603741019964,62.72987934201956L68.21411418914795,62.80382685363293L68.0159769281745,62.812273509800434L67.78024941682816,62.78031849861145L67.58576454222202,62.70840489119291L67.42420434206724,62.607057362794876L67.20475123822689,62.42511895298958L66.77551910281181,62.19205866008997L66.5344202592969,62.00841438770294L66.31773021072149,61.79616875946522L65.99911511689425,61.57527767121792L65.57645440846682,61.18756280839443L65.45261426270008,60.987288519740105L65.19588015973568,60.41176848858595L65.17823977768421,60.195636697113514L65.19180174916983,60.118788078427315L65.23374006897211,60.05297914892435L65.29767000675201,60.00822872668505L65.37385881692171,59.991349659860134L65.45070744305849,60.00491163134575L65.51651637256145,60.04684995114803L65.62420167773962,60.20290207862854L65.78858824074268,60.39587689191103L65.92820610105991,60.602429009974L66.15650939941406,60.81044180691242L66.33438926935196,61.00394809991121L66.60688074678183,61.199179247021675L66.79385201632977,61.28313981741667L66.99545071274042,61.343601763248444L67.40772367268801,61.42559099197388L67.60288134217262,61.440332397818565L68.20562749356031,61.42098266631365L68.40534327924252,61.38143941760063L68.607630379498,61.31599518656731L69.21734420210123,60.94184421747923L69.41094370931387,60.86857709288597L69.6810447126627,60.79649592190981L69.7994359433651,60.741639137268066L69.9165386930108,60.59970570355654L69.8959419503808,60.3807592317462L69.91275416314602,60.187063567340374L69.95047181844711,60.0098360106349L70.02866484224796,59.78355868905783L70.15061535686255,59.586097329854965L70.32662566751242,59.39403209835291L70.43473508954048,59.193250469863415L70.44259265065193,59.000145226716995L70.35949563235044,58.80891127884388L69.9381273984909,58.405810579657555L69.63876134902239,58.01110641658306L69.52985207736492,57.78091938793659L69.43004406243563,57.382660552859306L69.39670310914516,57.01708024740219L69.41474305838346,56.79019787162542L69.4578908085823,56.58461733907461L69.63011893630028,56.22024034708738L69.81102377176285,56.01442593336105L70.3795300796628,55.520394183695316L70.78359518200159,55.33516976237297L70.9782437980175,55.28893680870533L71.19653057307005,55.28882882744074ZM44.42169523239136,59.68253678828478L44.766088396310806,59.77765113860369L44.82640095055103,59.82716915011406L44.86317276209593,59.89599844068289L44.87080565840006,59.97366037964821L44.848137587308884,60.04833163321018L44.79861958324909,60.10864417999983L44.59629054367542,60.212883807718754L44.40540190041065,60.348434291779995L44.172609597444534,60.59220238775015L44.09149592369795,60.79160337895155L44.04893288761377,61.00663220137358L44.07695586234331,61.20562715083361L44.15135756134987,61.38694317638874L44.20471805334091,61.6292140185833L44.187576822936535,61.79935363680124L44.106680542230606,61.96494176238775L44.05872239917517,62.02560696005821L43.81411827355623,62.213284976780415L43.56611028313637,62.28690092265606L43.39636894315481,62.280721090734005L43.16128905117512,62.18821386247873L42.98910529911518,62.06762018054724L42.91539719700813,61.981131717562675L42.81954473257065,61.809380017220974L42.809835366904736,61.605808317661285L42.905421152710915,61.38589160144329L43.02580825984478,61.19249226152897L43.20354700833559,60.478044137358665L43.34846830368042,60.185817658901215L43.417043782770634,60.109824016690254L43.60489869862795,59.965163961052895L43.87066388130188,59.79643329977989L44.01797354966402,59.72595515102148L44.22666555643082,59.67712178081274ZM35.81236267089844,59.68085993826389L35.979899883270264,59.72537136822939L36.1430876404047,59.804110281169415L36.40470442920923,59.971784479916096L36.613777957856655,60.13994623720646L36.671699061989784,60.21632415801287L36.76161976158619,60.38929004967213L36.82867006212473,60.59621121734381L36.979794546961784,61.206882640719414L37.111063458025455,61.415511421859264L37.18819831311703,61.59621521085501L37.18678593635559,61.78682325780392L37.061607502400875,62.01288694888353L36.98067832738161,62.09260316938162L36.8042012527585,62.206821881234646L36.5646695792675,62.28510071337223L36.39482244849205,62.28359539061785L36.17623300105333,62.20825087279081L35.91411619633436,61.99733264744282L35.826589822769165,61.83499123901129L35.805243231356144,61.76080981642008L35.80098185688257,61.566722609102726L35.84864243119955,61.38694317638874L35.92615482211113,61.193971171975136L35.95063354820013,60.99343980848789L35.90850406885147,60.79160337895155L35.83571506291628,60.608565613627434L35.794516280293465,60.54329536855221L35.59459809213877,60.348434291779995L35.39563874900341,60.20881836861372L35.20358894020319,60.11042983829975L35.1532194763422,60.05082652717829L35.12949336320162,59.97648470103741L35.13602267205715,59.89872220158577L35.17181338369846,59.82937768101692L35.23141668736935,59.77900821715593L35.40686947107315,59.72164809703827L35.617200180888176,59.677604861557484ZM76.83871094882488,57.811786130070686L77.01089470088482,57.93237981200218L77.08460280299187,58.01886826753616L77.18045526742935,58.190619967877865L77.19016463309526,58.39419166743755L77.09457884728909,58.61410839110613L76.97419174015522,58.80750773102045L76.79645299166441,59.52195584774017L76.65153169631958,59.814182333648205L76.58295621722937,59.890175968408585L76.39510130137205,60.034836031496525L76.12933611869812,60.20356669276953L75.98202645033598,60.27404484152794L75.77333444356918,60.32287821173668L75.5832452327013,60.3185248374939L75.2339116036892,60.22234884649515L75.17359904944897,60.17283084243536L75.13682723790407,60.10400155186653L75.12919434159994,60.02633961290121L75.15186241269112,59.95166835933924L75.20138041675091,59.89135581254959L75.40370945632458,59.787116177380085L75.59459809958935,59.651565700769424L75.82739040255547,59.40779759734869L75.90850407630205,59.20839661359787L75.95106711238623,58.99336779117584L75.92304413020611,58.79437281191349L75.84864243865013,58.61305680125952L75.79528194665909,58.37078596651554L75.81242317706347,58.200646348297596L75.8933194577694,58.03505823016167L75.94127760082483,57.97439303249121L76.18588172644377,57.786715008318424L76.36784905195236,57.72335758060217L76.60363105684519,57.719278901815414ZM3.6051775366067886,57.71640460193157L3.823766991496086,57.791749119758606L4.085883788764477,58.00266733765602L4.173410169780254,58.16500875353813L4.1947567611932755,58.23919016867876L4.199018128216267,58.43327738344669L4.151357561349869,58.61305680125952L4.07384517043829,58.806028820574284L4.049366436898708,59.00656017661095L4.0914959236979485,59.20839661359787L4.164284929633141,59.391434378921986L4.205483712255955,59.45670461654663L4.405401900410652,59.651565700769424L4.604361243546009,59.79118161648512L4.7964110523462296,59.88957014679909L4.846780508756638,59.94917345792055L4.870506629347801,60.02351529151201L4.863977320492268,60.10127779096365L4.828186608850956,60.1706223115325L4.768583297729492,60.220991767942905L4.593130521476269,60.27835188806057L4.382799811661243,60.322395130991936L4.174247406423092,60.316032618284225L3.9834145829081535,60.26079571992159L3.6048986986279488,60.034836031496525L3.3862220272421837,59.86005374789238L3.328300930559635,59.78367582708597L3.23838023096323,59.61070994287729L3.1713299304246902,59.40378876775503L3.0202054381370544,58.793117351830006L2.8889365270733833,58.584488570690155L2.811801679432392,58.40378478169441L2.813214048743248,58.21317672729492L2.9383924901485443,57.987113043665886L3.019321657717228,57.9073968231678L3.1957987397909164,57.793178111314774L3.4353304132819176,57.71489927917719ZM19.58611921966076,50.53496807068586L19.772720232605934,50.61012125760317L19.968214586377144,50.80642180144787L20.03754883259535,50.9903469234705L20.00961823016405,51.1965775936842L19.969062507152557,51.262680776417255L19.84617804735899,51.390139900147915L19.775333248078823,51.42286071181297L19.39414192736149,51.48217283934355L19.009503692388535,51.64771161228418L18.8105206489563,51.71072628349066L18.66703300178051,51.73586528748274L18.590570852160454,51.72027117758989L18.47485961765051,51.61864911019802L18.445986807346344,51.54615084826946L18.43296328186989,51.39712417125702L18.54234181344509,51.01622665673494L18.593335881829262,50.915182530879974L18.69592986255884,50.783598601818085L18.81126096844673,50.69317074865103L19.011963091790676,50.575873613357544L19.20794255286455,50.50260905921459L19.409331992268562,50.4931313470006ZM60.82975959032774,50.513366647064686L61.01125855743885,50.58681557327509L61.18873901665211,50.69317074865103L61.30407012999058,50.783598601818085L61.40666411072016,50.915182530879974L61.45765817910433,51.01622665673494L61.56146705895662,51.364609867334366L61.54807276278734,51.569998383522034L61.510526083409786,51.63840805739164L61.44538102298975,51.700623989105225L61.373700849711895,51.731471836566925L61.2956720367074,51.73254072666168L60.990496300160885,51.64771161228418L60.59370315074921,51.47867368161678L60.20568998157978,51.417284570634365L60.13842359185219,51.37772613018751L60.00729610770941,51.231403566896915L59.98041574656963,51.158658519387245L59.96062597632408,51.01081898063421L60.03826907277107,50.796857103705406L60.178521938622,50.64745578169823L60.25688078254461,50.5955820903182L60.41388077288866,50.53496807068586L60.60977067053318,50.49141634255648ZM19.009503692388535,28.352288380265236L19.406296841800213,28.521326310932636L19.79431000351906,28.582715407013893L19.86157639324665,28.622273847460747L19.99270387738943,28.768596418201923L20.019584238529205,28.841341473162174L20.039374008774757,28.989181011915207L19.961730919778347,29.203142888844013L19.82147804647684,29.352544210851192L19.743119210004807,29.404417902231216L19.58611921966076,29.465031921863556L19.370155461132526,29.508410282433033L19.193216741085052,29.4941368624568L19.011963091790676,29.424126379191875L18.81126096844673,29.30682923644781L18.69592986255884,29.216401390731335L18.593335881829262,29.084817461669445L18.54234181344509,28.983773328363895L18.438532933592796,28.635390117764473L18.451927229762077,28.430001609027386L18.489473909139633,28.361591927707195L18.55461896955967,28.299376003444195L18.626299142837524,28.268528148531914L18.704327948391438,28.267459258437157ZM61.44391670823097,28.298377819359303L61.52514036744833,28.3813508823514L61.554013177752495,28.453849136829376L61.56703671067953,28.6028758212924L61.45765817910433,28.983773328363895L61.40666411072016,29.084817461669445L61.30407012999058,29.216401390731335L61.18873901665211,29.30682923644781L60.98803690075874,29.424126379191875L60.79205743968487,29.497390933334827L60.57094603031874,29.503122456371784L60.386739142239094,29.45636124163866L60.227279759943485,29.38987872749567L60.031785398721695,29.19357819110155L59.96245115995407,29.009653069078922L59.99038176238537,28.803422398865223L60.03093747794628,28.737319208681583L60.15382193773985,28.609860092401505L60.224666737020016,28.577139280736446L60.60585805773735,28.51782715320587L60.990496300160885,28.352288380265236L61.18947934359312,28.28927370905876L61.33296699076891,28.2641346976161ZM61.386354587972164,12.964901208877563L61.60823357850313,13.09040617197752L61.77137602120638,13.209103889763355L61.92449860274792,13.37405463308096L62.01678566634655,13.572157897055149L62.039256162941456,13.813748806715012L62.01459661871195,14.205426447093487L62.05775272101164,14.400521993637085L62.20190394669771,14.546240270137787L62.40768054872751,14.59536287933588L62.78458981215954,14.607319861650467L62.96276234090328,14.64145328849554L63.03183799237013,14.669859148561954L63.18853744119406,14.77665813267231L63.23006348311901,14.835351340472698L63.31081113964319,15.014477230608463L63.428488448262215,15.407003097236156L63.717661537230015,15.978169858455658L63.77033577859402,16.20889464765787L63.79222121834755,16.411414802074432L63.78013837337494,16.781242668628693L63.726171530783176,17.007064282894135L63.67561153322458,17.382402181625366L63.45301170647144,18.014065138995647L63.33172558993101,18.20977032929659L63.01679868251085,18.60831993073225L62.65336997807026,18.992816410958767L62.52800752967596,19.203439250588417L62.430324517190456,19.408434569835663L62.21815586090088,19.70203260332346L62.090717263519764,19.80396793782711L62.00503244251013,19.851748377084732L61.784230053424835,19.873586386442184L61.39119590073824,19.79980293661356L61.19542133808136,19.83094246685505L60.99425210803747,19.928885720670223L60.77257040888071,20.20905192196369L60.699847146868706,20.406368136405945L60.65553253889084,20.605125337839127L60.67006868124008,20.80468215048313L60.786014936864376,20.99935583025217L61.00784522294998,21.06476639211178L61.203063137829304,21.07407995313406L61.61311400681734,21.061759881675243L61.788193210959435,21.0999658703804L61.92831598967314,21.208914682269096L61.98891197890043,21.298075668513775L62.16974446922541,21.81924544274807L62.196489073336124,22.024688877165318L62.17798815667629,22.19078352302313L62.04957038164139,22.403193399310112L61.630609691143036,22.800563991069794L61.563060723245144,23.008353181183338L61.57768618315458,23.204563960433006L61.66091585159302,23.403815560042858L61.79371965676546,23.563630312681198L62.0002127289772,23.664334751665592L62.20609301328659,23.660659343004227L62.390520587563515,23.61039698123932L62.600679993629456,23.431044690310955L62.793419659137726,23.237555138766766L62.9657798409462,23.17528446018696L63.043653301894665,23.180320471525192L63.4097895026207,23.314937338232994L63.607807002961636,23.468848139047623L63.74318137019873,23.616187408566475L63.80456218868494,23.709107778966427L64.00056962668896,23.904933229088783L64.20368570834398,23.979826100170612L64.40624129027128,23.946266308426857L64.79104938358068,23.794642210006714L65.4054303765297,23.803467988967896L65.60726422816515,23.776827603578568L65.80193085968494,23.67438118904829L65.8854233622551,23.590391136705875L66.47993572801352,23.199214309453964L66.8150926977396,22.95264369249344L66.99327448755503,22.860907211899757L67.17621178925037,22.736708872020245L67.30951625853777,22.691686756908894L67.38719338178635,22.69916345924139L67.45609649270773,22.73579677194357L67.50573568791151,22.796009622514248L67.52855388075113,22.870635136961937L67.51137942820787,23.007963120937347L67.45298164337873,23.217192351818085L67.36331374943256,23.39576318114996L67.20121946185827,23.65110705047846L67.08949709683657,23.79336568713188L66.85275463759899,24.205933682620525L66.6800175383687,24.408477187156677L66.38908802717924,24.605706490576267L66.19744546711445,24.85776375234127L66.0132438018918,25.170151479542255L65.75732020288706,25.405522108078003L65.58748749643564,25.516195468604565L65.42819728702307,25.571767792105675L64.91303007304668,25.600430093705654L64.60037676244974,25.663390271365643L64.4245425388217,25.807520501315594L64.34594187885523,26.006527170538902L64.30732440203428,26.192634619772434L64.2348463088274,26.422476403415203L64.08628165721893,26.601163141429424L63.81331341713667,26.722897812724113L63.22412896156311,26.851385787129402L62.9877195879817,26.84304677695036L62.81351733952761,26.811621136963367L62.588279999792576,26.73949559032917L62.417290687561035,26.659204952418804L62.08607874810696,26.401147738099098L61.66664715111256,26.01026813685894L61.30560941249132,25.586673192679882L61.1753600910306,25.391097523272038L60.999316811561584,25.075703866779804L60.797937981784344,24.98289217799902L60.60039106756449,25.06977315992117L60.387226082384586,25.272915601730347L60.17302072793245,25.40579231083393L59.991188913583755,25.483090229332447L59.6136988773942,25.60366228967905L59.40322980284691,25.80055607110262L59.359702222049236,26.00893370807171L59.360224328935146,26.587576366961002L59.31110791116953,26.985389687120914L59.223287008702755,27.1162903085351L59.15657030045986,27.156768910586834L59.012282483279705,27.17823886871338L58.547917157411575,26.99999912828207L58.22862397134304,26.790896102786064L58.0755013898015,26.62594535946846L57.98321431875229,26.42784208804369L57.960743829607964,26.186251170933247L57.98540336638689,25.794573538005352L57.94224727153778,25.599477998912334L57.79809603840113,25.453759722411633L57.592319436371326,25.40463711321354L57.21541018038988,25.392680130898952L57.03723765164614,25.358546696603298L56.96816200017929,25.330140836536884L56.81146255135536,25.22334185987711L56.76993650943041,25.16464865207672L56.68918885290623,24.985522761940956L56.571511536836624,24.592996887862682L56.282338447868824,24.02183012664318L56.22966420650482,23.791105322539806L56.20777878165245,23.588585190474987L56.21986161917448,23.218757331371307L56.27382846176624,22.992935702204704L56.32438845932484,22.617597810924053L56.546988278627396,21.985934868454933L56.66827440261841,21.79022966325283L56.98320139199495,21.391679972410202L57.34663000702858,21.007183581590652L57.471992403268814,20.796560861170292L57.56967546790838,20.591565422713757L57.78184413164854,20.29796738922596L57.909282729029655,20.19603204727173L57.99496755003929,20.148251608014107L58.215769939124584,20.126413598656654L58.60880383104086,20.200197093188763L58.80457864701748,20.16905751824379L59.00574787706137,20.071114271879196L59.22742958366871,19.790948070585728L59.30015283823013,19.593631848692894L59.34446745365858,19.394874647259712L59.32993131130934,19.195317842066288L59.21398504823446,19.00064416229725L58.99215476959944,18.93523360043764L58.796936847269535,18.92592003941536L58.38688597083092,18.938240110874176L58.211806781589985,18.900034122169018L58.07168400287628,18.791085310280323L58.01108801364899,18.701924316585064L57.83025552332401,18.18075454980135L57.803510919213295,17.97531110793352L57.822011828422546,17.80921646952629L57.95042961090803,17.596806593239307L58.36939030140638,17.199436001479626L58.436939269304276,16.99164681136608L58.422313809394836,16.795436032116413L58.3390841409564,16.59618443250656L58.20628032833338,16.43636967986822L57.999787263572216,16.335665240883827L57.79390697926283,16.339340649545193L57.609479397535324,16.3896030113101L57.399319998919964,16.568955302238464L57.20658031851053,16.762444861233234L57.03422009944916,16.82471553236246L56.95634663850069,16.819679513573647L56.59021048992872,16.685062646865845L56.392192989587784,16.531151853501797L56.25681862235069,16.383812576532364L56.1954377964139,16.290892213582993L55.99943035840988,16.095066763460636L55.796314276754856,16.020173892378807L55.59375864267349,16.053733691573143L55.208950608968735,16.205357782542706L54.594569608569145,16.196532003581524L54.39273575693369,16.223172388970852L54.198069132864475,16.32561880350113L54.11457663029432,16.409608848392963L53.520064279437065,16.800785660743713L53.18490722775459,17.047356337308884L53.00672551244497,17.139092780649662L52.823788203299046,17.263291120529175L52.69048372656107,17.308313228189945L52.61280661076307,17.30083653330803L52.54390349984169,17.26420322060585L52.49426429718733,17.20399037003517L52.471446111798286,17.129364848136902L52.488620556890965,16.992036871612072L52.547018349170685,16.782807640731335L52.636686243116856,16.60423681139946L52.79878053069115,16.34889294207096L52.91050297766924,16.206634171307087L53.14724534749985,15.794066309928894L53.31998244673014,15.591522797942162L53.6109119579196,15.394293501973152L53.80255451798439,15.142236240208149L53.986756190657616,14.829848520457745L54.24267978966236,14.594477877020836L54.4125124886632,14.483804516494274L54.57180269807577,14.428232200443745L55.086969919502735,14.399569898843765L55.39962323009968,14.336609721183777L55.57545744627714,14.192479491233826L55.65405812859535,13.993472769856453L55.69267559051514,13.807365387678146L55.76515368372202,13.577523589134216L55.913718327879906,13.398836851119995L56.18668656796217,13.277102179825306L56.77587103098631,13.148614197969437L57.01228039711714,13.15695320814848L57.18648265302181,13.188378848135471L57.411719992756844,13.26050440222025L57.582709297537804,13.340795040130615L57.91392123699188,13.59885224699974L58.33335284143686,13.989731848239899L58.6943905800581,14.413326792418957L58.82463990151882,14.608902469277382L59.000683180987835,14.924296118319035L59.202062010765076,15.01710780709982L59.39960891753435,14.93022683262825L59.61277391016483,14.727084390819073L59.826979257166386,14.594207681715488L60.008811078965664,14.516909763216972L60.38630110770464,14.396337702870369L60.59677018970251,14.1994439214468L60.64029777050018,13.99106627702713L60.63977566361427,13.412423633038998L60.68889208137989,13.014610320329666L60.776712976396084,12.88370967656374L60.84342969208956,12.843231081962585L60.987717509269714,12.82176111638546ZM19.155294939875603,12.842771872878075L19.222284473478794,12.882797367870808L19.301794700324535,12.990765661001205L19.360224328935146,13.412423618137836L19.361527770757675,14.008744962513447L19.406214758753777,14.203601486980915L19.606104910373688,14.391922608017921L20.00850847363472,14.52342914789915L20.20110111683607,14.609032921493053L20.387226082384586,14.727084390819073L20.60069963335991,14.930443719029427L20.802105389535427,15.017181746661663L20.999325528740883,14.924287773668766L21.175360091030598,14.608902469277382L21.30560939759016,14.413326799869537L21.666647158563137,13.989731848239899L22.00251130759716,13.672186501324177L22.384559653699398,13.360158883035183L22.588279999792576,13.26050440222025L22.813517339527607,13.188378848135471L23.01246079802513,13.154066152870655L23.22412896156311,13.148614197969437L23.786089599132538,13.268745310604572L23.987654447555542,13.344540640711784L24.115239806473255,13.425267949700356L24.209928512573242,13.535993911325932L24.251625642180443,13.612958490848541L24.349506177008152,14.006289817392826L24.423972591757774,14.191493026912212L24.60044690221548,14.336642779409885L25.006721071898937,14.41133350878954L25.40903366357088,14.422657556831837L25.621926173567772,14.502543672919273L25.77300690114498,14.606294922530651L25.972510941326618,14.780389741063118L26.202965259552002,15.150512963533401L26.399360798299313,15.403795301914215L26.586773850023746,15.51669442653656L26.680017538368702,15.591522797942162L26.85275463759899,15.794066309928894L27.080259941518307,16.192586198449135L27.23367030918598,16.391964077949524L27.397548347711563,16.667356863617897L27.466010563075542,16.81843426823616L27.529508031904697,17.113917961716652L27.512528479099274,17.1900844424963L27.46769378334284,17.25395529717207L27.401829592883587,17.295806780457497L27.3249631524086,17.30926737934351L27.190991520881653,17.27207200974226L26.993274427950382,17.13909274339676L26.78709477186203,17.02872207760811L26.395408928394318,16.73872286826372L25.99234438687563,16.49153534322977L25.797154873609543,16.322024650871754L25.591873936355114,16.218431696295738L25.405430376529694,16.196532003581524L24.792348138988018,16.20558238774538L24.393313586711884,16.050051420927048L24.196534179151058,16.0208952203393L23.99622792005539,16.098379641771317L23.796643160283566,16.30036001652479L23.719548657536507,16.41391471028328L23.607807002961636,16.531151853501797L23.42191033810377,16.676892653107643L23.032961286604404,16.82222191989422L22.954928770661354,16.822972752153873L22.814170986413956,16.775338500738144L22.3928904235363,16.390248872339725L22.193685799837112,16.337586738169193L21.993624851107597,16.337554521858692L21.80010698735714,16.42990293353796L21.655814982950687,16.604568637907505L21.57561471313238,16.804961413145065L21.563504062592983,17.00133816897869L21.634341061115265,17.204221710562706L22.058428548276424,17.60688243806362L22.17305202782154,17.794477000832558L22.196087546646595,18.014515906572342L22.16981139779091,18.1803390532732L22.03073973953724,18.610250361263752L21.939980007708073,18.775322288274765L21.80626530945301,18.891481839120388L21.586604557931423,18.93998607248068L21.196940198540688,18.92603026330471L20.992429189383984,18.93770845234394L20.79365100711584,18.99483273923397L20.66822014003992,19.200319312512875L20.656375989317894,19.405003681778908L20.70359967648983,19.60612315684557L20.772513277828693,19.790794990956783L20.922072917222977,19.9957280382514L21.00747462362051,20.080569438636303L21.205003067851067,20.171971172094345L21.39996725320816,20.200673177838326L21.81590335071087,20.12536010146141L21.991466492414474,20.143818743526936L22.103405252099037,20.204453006386757L22.205017417669296,20.282349169254303L22.430324517190456,20.591565422713757L22.53150650858879,20.803306967020035L22.653082482516766,21.006875537335873L23.01679863780737,21.391680009663105L23.33172558993101,21.79022966325283L23.44971414655447,21.98013001680374L23.666971907019615,22.583172291517258L23.72875165194273,23.00688101351261L23.77416407316923,23.18180453032255L23.79222121834755,23.588585190474987L23.770335778594017,23.791105337440968L23.717661537230015,24.02183012664318L23.42264299094677,24.607460498809814L23.310811139643192,24.985522761940956L23.210135079920292,25.19841306656599L23.15795648097992,25.247877180576324L22.997058019042015,25.348238669335842L22.815113231539726,25.38883425295353L22.39253830164671,25.406586810946465L22.199075400829315,25.45536906272173L22.05669278651476,25.601446948945522L22.013770930469036,25.805539548397064L22.039256162941456,26.186251178383827L22.01678566634655,26.42784208804369L21.924498602747917,26.62594535946846L21.793863773345947,26.7698138281703L21.59121373295784,26.92049576342106L21.41272086650133,27.022491671144962L21.010769739747047,27.175728268921375L20.844705052673817,27.157228119671345L20.777715519070625,27.11720261722803L20.698205292224884,27.009234331548214L20.639775663614273,26.58757635951042L20.638472221791744,25.991255030035973L20.593785226345062,25.796398498117924L20.39389508217573,25.608077377080917L19.9914915189147,25.476570837199688L19.798898868262768,25.390967071056366L19.612773910164833,25.272915601730347L19.39930035918951,25.069556273519993L19.197894603013992,24.982818238437176L19.000674456357956,25.075712218880653L18.82463990151882,25.391097523272038L18.694390580058098,25.586673200130463L18.333352841436863,26.01026812940836L17.99748867750168,26.327813491225243L17.61544033885002,26.639841109514236L17.411719992756844,26.73949559032917L17.186482653021812,26.811621136963367L16.987539187073708,26.845933839678764L16.77587103098631,26.851385787129402L16.21391039341688,26.731254681944847L16.012345537543297,26.655459351837635L15.884760178625584,26.574732042849064L15.790071479976177,26.464006081223488L15.748374350368977,26.387041501700878L15.650493808090687,25.993710167706013L15.576027400791645,25.808506958186626L15.399553090333939,25.663357213139534L14.993278920650482,25.5886664763093L14.590966328978539,25.577342428267002L14.378073818981647,25.497456319630146L14.226993091404438,25.39370507001877L14.027489051222801,25.2196102514863L13.797034732997417,24.849487029016018L13.600639186799526,24.596204690635204L13.413226127624512,24.48330555856228L13.319982446730137,24.408477187156677L13.147245347499847,24.205933682620525L12.919740051031113,23.807413786649704L12.766329683363438,23.608035907149315L12.602451637387276,23.332643128931522L12.533989429473877,23.18156571686268L12.470491960644722,22.886082030832767L12.487471513450146,22.80991555005312L12.532306209206581,22.74604468792677L12.598170399665833,22.704193212091923L12.67503684014082,22.69073261320591L12.809008471667767,22.72792798280716L13.006725452840328,22.860907182097435L13.21290522068739,22.97127790749073L13.604591056704521,23.261277116835117L14.00765559822321,23.50846464931965L14.202845118939877,23.677975341677666L14.408126048743725,23.7815682888031L14.594569608569145,23.803467988967896L15.207651853561401,23.79441759735346L15.606686398386955,23.94994857162237L15.803465813398361,23.97910477221012L16.003772102296352,23.90162032842636L16.20335680246353,23.69964001327753L16.280451327562332,23.58608528226614L16.392192989587784,23.468848139047623L16.578089646995068,23.323107339441776L16.967038601636887,23.177778087556362L17.045071117579937,23.177027218043804L17.18582896143198,23.224661469459534L17.60710956901312,23.609751120209694L17.806314192712307,23.662413246929646L18.006375141441822,23.662445470690727L18.1998929977417,23.57009705901146L18.344185009598732,23.395431347191334L18.424385279417038,23.195038579404354L18.436495929956436,22.99866182357073L18.365658931434155,22.795778281986713L17.941571429371834,22.393117547035217L17.826947957277298,22.20552299171686L17.803912438452244,21.985484078526497L17.83018858730793,21.81966093927622L17.96926025301218,21.389749631285667L18.060019977390766,21.224677696824074L18.19373468309641,21.10851815342903L18.413395427167416,21.06001392006874L18.80305978655815,21.07396972924471L19.007570803165436,21.06229154020548L19.206348977982998,21.00516725331545L19.3317798525095,20.799680680036545L19.343624003231525,20.59499631077051L19.29640030860901,20.39387682825327L19.227486707270145,20.209205001592636L19.077927067875862,20.00427194684744L18.99252536892891,19.919430546462536L18.794996932148933,19.828028820455074L18.60003273934126,19.799326807260513L18.18409664183855,19.87463989108801L18.008533500134945,19.856181249022484L17.896594740450382,19.795546978712082L17.794982567429543,19.717650823295116L17.569675467908382,19.408434569835663L17.468493476510048,19.196693018078804L17.346917510032654,18.993124447762966L16.98320134729147,18.608319982886314L16.668274402618408,18.20977032929659L16.55028583854437,18.019869968295097L16.333028078079224,17.41682770103216L16.27124834805727,16.99311901628971L16.225835919380188,16.81819546967745L16.20777878165245,16.411414802074432L16.229664206504822,16.208894670009613L16.282338447868824,15.978169858455658L16.57735700160265,15.392539486289024L16.689188852906227,15.014477230608463L16.789864912629128,14.801586918532848L16.8420435115695,14.752122811973095L17.002941973507404,14.651761323213577L17.184886761009693,14.61116573959589L17.60746169090271,14.593413181602955L17.800924591720104,14.54463092982769L17.94330719858408,14.398553043603897L17.986229062080383,14.194460436701775L17.960743829607964,13.813748821616173L17.98321431875229,13.572157897055149L18.075501389801502,13.37405463308096L18.206136219203472,13.23018615692854L18.40878626704216,13.07950422912836L18.587279058992863,12.97750835120678L18.989230252802372,12.824271723628044ZM10.589701659977436,16.947410501539707L10.78058934211731,17.00534325838089L11.191445842385292,17.242992267012596L11.403962582349777,17.27012065052986L11.78588580340147,17.196173138916492L11.984023056924343,17.187726482748985L12.219750568270683,17.21968148648739L12.414235450327396,17.291595101356506L12.575795650482178,17.392942629754543L12.79524876177311,17.57488103955984L13.224480889737606,17.80794133245945L13.465579733252525,17.991585597395897L13.682269781827927,18.203831233084202L14.000884868204594,18.4247223213315L14.423545576632023,18.812437176704407L14.547385729849339,19.012711472809315L14.80411983281374,19.58823149651289L14.821760207414627,19.804363287985325L14.808198243379593,19.881211906671524L14.766259923577309,19.94702084362507L14.702329978346825,19.99177125841379L14.626141168177128,20.008650332689285L14.549292549490929,19.99508836120367L14.483483619987965,19.953150041401386L14.375798307359219,19.7970979064703L14.211411751806736,19.60412310063839L14.071793891489506,19.397570982575417L13.843490593135357,19.189558178186417L13.66561072319746,18.996051892638206L13.393119238317013,18.800820738077164L13.206147968769073,18.71686016768217L13.004549279808998,18.656398229300976L12.592276319861412,18.574409000575542L12.397118650376797,18.559667587280273L11.794372498989105,18.57901731878519L11.594656713306904,18.618560567498207L11.392369613051414,18.684004798531532L10.782655790448189,19.05815576761961L10.58905629068613,19.131422892212868L10.318955279886723,19.20350407063961L10.200564049184322,19.258360847830772L10.083461299538612,19.40029428899288L10.104058042168617,19.619240760803223L10.0872458294034,19.812936417758465L10.049528166651726,19.99016398191452L9.971335157752037,20.216441303491592L9.849384643137455,20.413902662694454L9.673374332487583,20.60596788674593L9.565264910459518,20.806749522686005L9.557407349348068,20.999854758381844L9.640504367649555,21.19108871370554L10.061872586607933,21.594189412891865L10.361238643527031,21.988893568515778L10.470147907733917,22.219080589711666L10.569955930113792,22.617339439690113L10.603296883404255,22.982919797301292L10.585256926715374,23.209802120923996L10.542109176516533,23.415382653474808L10.369881048798561,23.779759638011456L10.188976310193539,23.98557397723198L9.6204699203372,24.479605808854103L9.216404810547829,24.66483023762703L8.97771867364645,24.71577475219965L8.80346942692995,24.7111711576581L8.587937079370022,24.61734350770712L8.395503602921963,24.412672847509384L8.30927299708128,24.193343073129654L8.175715923309326,23.997244760394096L7.995433367788792,23.883028618991375L7.792925231158733,23.829495951533318L7.592580199241638,23.86239767074585L7.183973431587219,24.01535425335169L6.993652448058128,24.065818138420582L6.768315978348255,24.04417870938778L6.588131919503212,23.968547977507114L6.333230629563332,23.810385040938854L6.206426106393337,23.67744316160679L5.697310268878937,22.99014414101839L5.582616448402405,22.688285291194916L5.582453161478043,22.61024934053421L5.612165369093418,22.538091018795967L5.667229659855366,22.48279581218958L5.7392629981040955,22.45278187841177L5.817298948764801,22.452618591487408L6.009701579809189,22.51424814015627L6.609079211950302,22.598863437771797L6.804735332727432,22.59838581085205L7.199662782251835,22.546551637351513L7.394055679440498,22.373612582683563L7.6042801812291145,21.951311752200127L7.812570758163929,21.660719081759453L8.048227779567242,21.399564616382122L8.075717940926552,21.199407562613487L7.9824704974889755,21.000432819128036L7.8085581585764885,20.842701002955437L7.395951829850674,20.396251060068607L7.098432630300522,20.010840326547623L6.970068380236626,19.784712620079517L6.839683532714844,19.41795899719L6.808019712567329,19.2323996797204L6.843006618320942,18.986258529126644L6.963024660944939,18.591356933116913L7.049766048789024,18.390506587922573L7.2807954996824265,17.989496551454067L7.4293303191661835,17.788917548954487L7.596468269824982,17.603525556623936L7.816006161272526,17.50755587220192L7.997090741991997,17.480323910713196L8.184841059148312,17.527173571288586L8.238355532288551,17.564641192555428L8.601089246571064,17.96004156768322L8.805346630513668,18.03772907704115L9.002184681594372,18.044476091861725L9.199341036379337,17.928383581340313L9.591689467430115,17.31473694741726L9.691738992929459,17.210161738097668L9.978173032402992,17.01012645661831L10.213944911956787,16.926009498536587L10.41179633140564,16.913422867655754ZM69.82416091114283,16.935235738754272L70,17.00034385919571L70.20629893243313,17.129808321595192L70.40831053256989,17.31473694741726L70.80066192150116,17.928386330604553L71.00264488905668,18.045587182044983L71.20507722347975,18.03580865263939L71.40633200854063,17.953807838261127L71.79221189767122,17.54008899629116L71.9974554181099,17.48054449260235L72.21488127112389,17.516617313027382L72.39402881264687,17.596642717719078L72.58831609040499,17.8123824223876L72.73351959884167,18.01144429296255L72.96079526096582,18.410082556307316L73.04269967973232,18.60890817642212L73.16405571997166,19.01425302028656L73.19198028743267,19.2323996797204L73.16031646728516,19.41795899719L73.02993161976337,19.784712620079517L72.91686995327473,19.988107718527317L72.59556534141302,20.40658561885357L72.39703717082739,20.631363838911057L72.0173240378499,21.000706858932972L71.92406187951565,21.200878992676735L71.95307505875826,21.402399227023125L72.21035630255938,21.686359077692032L72.42591132968664,22.005073830485344L72.59574005752802,22.35693558305502L72.63215020298958,22.405213341116905L72.80242477357388,22.547458849847317L73.19526466727257,22.59838581085205L73.3909207880497,22.598863437771797L74.00926391780376,22.509808011353016L74.19498605281115,22.45059660822153L74.27286063879728,22.45561508089304L74.34288690239191,22.490052856504917L74.3944039568305,22.54866711050272L74.41956882178783,22.622534342110157L74.41455034911633,22.700408928096294L74.31037566810846,22.97232872992754L73.79357389360666,23.67744316160679L73.66676937043667,23.810385040938854L73.38732472807169,23.98036313802004L73.1657487526536,24.05914557725191L72.9943004399538,24.06445500254631L72.81602656841278,24.01535425335169L72.40741980075836,23.86239767074585L72.19310165196657,23.83030568063259L71.99602591991425,23.886862747371197L71.8167129829526,24.003890968859196L71.68370935320854,24.20743153244257L71.60377430170774,24.413864091038704L71.41667231172323,24.61441831290722L71.20157115161419,24.71007777005434L70.98324686288834,24.71210215985775L70.81735374033451,24.675501368939877L70.42424181103706,24.50787003338337L69.7904017791152,23.96572270989418L69.6567033007741,23.817168839275837L69.59788679331541,23.720675252377987L69.44680134952068,23.37777677923441L69.41198652982712,23.190059907734394L69.39999735355377,22.944486930966377L69.43004406243563,22.617339439690113L69.52985207736492,22.219080597162247L69.63876134902239,21.988893568515778L69.9381273984909,21.594189412891865L70.35509234666824,21.198835730552673L70.4432520866394,20.993481658399105L70.43348768353462,20.800231598317623L70.31848993897438,20.59500677138567L70.12881960719824,20.38407450914383L70.02866484224796,20.216441303491592L69.95047181844711,19.99016398191452L69.90897537767887,19.786813400685787L69.89665553718805,19.58082816004753L69.91653321683407,19.400275819003582L69.79449213296175,19.255071081221104L69.66514219343662,19.19784340262413L69.41094370186329,19.131422892212868L69.21734420210123,19.05815576761961L68.5916468501091,18.67708507180214L68.40534327924252,18.618560567498207L68.20562749356031,18.57901731878519L67.80251324921846,18.556078627705574L67.40772367268801,18.574409000575542L66.99545071274042,18.656398229300976L66.79385201632977,18.71686016768217L66.59370812028646,18.80852022767067L66.3252298310399,19.004519671201706L66.13832344859838,19.209220081567764L65.92287576198578,19.403415739536285L65.79539185762405,19.59569176286459L65.50627496093512,19.962303809821606L65.43774262070656,19.999626129865646L65.3601443618536,20.00788126140833L65.28529381006956,19.985812433063984L65.22458630055189,19.93677943199873L65.18726398050785,19.868247091770172L65.17823977768421,19.804363287985325L65.19436182826757,19.59372677654028L65.45261426270008,19.012711472809315L65.57645440846682,18.812437176704407L66.04083885252476,18.391164362430573L66.3275688663125,18.195535250008106L66.5344202592969,17.991585597395897L66.77551910281181,17.80794133245945L67.20475114881992,17.574881099164486L67.40275414288044,17.40848246216774L67.62133964151144,17.275115132331848L67.81835605204105,17.210458539426327L68.0159769281745,17.187726482748985L68.18567314743996,17.193209007382393L68.60577061027288,17.27034643292427L68.79970344901085,17.246905960142612L69.21941065043211,17.00534325838089L69.38996814191341,16.952481366693974L69.61204431205988,16.912100479006767ZM49.18264625966549,15.324498623609543L49.575758188962936,15.49212995916605L50.20959821343422,16.03427728265524L50.34329669177532,16.182831153273582L50.40211319923401,16.279324740171432L50.553198643028736,16.62222321331501L50.5880134627223,16.809940077364445L50.60000356286764,17.055502220988274L50.56995593011379,17.382660552859306L50.47014790773392,17.780919402837753L50.36123864352703,18.01110640913248L50.06187258660793,18.405810579657555L49.64490765333176,18.801164261996746L49.556747913360596,19.006518326699734L49.56651231646538,19.199768386781216L49.68151003867388,19.404993176460266L49.87118039280176,19.61592548340559L49.97133515775204,19.783558689057827L50.049528166651726,20.0098360106349L50.09102460741997,20.213186591863632L50.103344447910786,20.419171817600727L50.08346676826477,20.599724173545837L50.20550785958767,20.744928911328316L50.3348577991128,20.80215658992529L50.58905628323555,20.86857709288597L50.78265579044819,20.94184421747923L51.40835314244032,21.32291492074728L51.594656713306904,21.38143941760063L51.794372498989105,21.42098266631365L52.197486743330956,21.443921357393265L52.59227631986141,21.425590991973877L53.004549279809,21.343601763248444L53.20614796876907,21.283139817416668L53.406291872262955,21.19147975742817L53.674770161509514,20.995480321347713L53.861676536500454,20.790779910981655L54.07712423056364,20.596584253013134L54.204608127474785,20.40430822968483L54.493725031614304,20.037696182727814L54.56225737184286,20.000373862683773L54.63985563069582,19.99211873114109L54.71470618247986,20.014187559485435L54.77541369199753,20.06322056055069L54.81273601204157,20.131752900779247L54.82176020741463,20.195636697113514L54.805638156831264,20.40627320855856L54.54738572984934,20.987288519740105L54.42354557663202,21.187562808394432L53.95916114747524,21.608835622668266L53.672431118786335,21.804464742541313L53.465579733252525,22.008414387702942L53.224480889737606,22.19205866008997L52.79524885118008,22.425118878483772L52.59724584966898,22.59151753038168L52.37866035103798,22.72488486021757L52.181643940508366,22.789541453123093L51.98402305692434,22.812273509800434L51.81432683765888,22.806790977716446L51.394229382276535,22.72965355962515L51.20029654353857,22.753094032406807L50.78058934211731,22.99465672671795L50.610031850636005,23.047518618404865L50.372595116496086,23.08724222332239L50.186927892267704,23.068275287747383L49.97817303240299,22.98987352848053L49.69173899292946,22.78983824700117L49.591689467430115,22.68526303768158L49.19933807849884,22.071613661944866L48.99735511094332,21.954412810504436L48.79492277652025,21.96419133991003L48.59366799145937,22.04619214683771L48.20778810232878,22.459910988807678L48.002544581890106,22.51945549994707L47.785118728876114,22.483382679522038L47.605971187353134,22.40335726737976L47.411683939397335,22.187617622315884L47.26648040115833,21.98855569958687L47.039204739034176,21.589917428791523L46.95730032026768,21.39109180867672L46.83594428002834,20.98574697226286L46.80801971256733,20.767600312829018L46.839683532714844,20.58204098790884L46.970068380236626,20.215287372469902L47.08313004672527,20.01189226657152L47.40443465858698,19.59341437369585L47.60296282917261,19.3686361387372L47.9826759621501,18.999293133616447L48.07593812048435,18.799120999872684L48.04692494124174,18.597600758075714L47.789643697440624,18.313640907406807L47.57408867031336,17.994926162064075L47.40425992012024,17.643064379692078L47.36784979701042,17.594786651432514L47.197575226426125,17.452541142702103L46.80473533272743,17.40161418169737L46.6090792119503,17.40113654732704L45.99073603749275,17.490191988646984L45.805013939738274,17.549403376877308L45.727139346301556,17.54438489675522L45.65711309015751,17.50994712114334L45.60559602826834,17.45133286714554L45.580431178212166,17.377465642988682L45.585449658334255,17.299591049551964L45.68962433189154,17.02767126262188L46.20642610639334,16.32255683094263L46.33323062956333,16.189614951610565L46.61267530173063,16.01963683217764L46.8342512473464,15.940854407846928L47.005699560046196,15.935544990003109L47.18397343158722,15.984645739197731L47.59258019924164,16.13760232180357L47.80689834803343,16.169694311916828L48.003974080085754,16.113137237727642L48.183287017047405,15.996109023690224L48.31629064679146,15.79256846010685L48.396225698292255,15.586135901510715L48.58332768827677,15.3855816796422L48.79842884838581,15.289922222495079L49.016753137111664,15.28789783269167ZM31.412062913179398,15.38265647739172L31.604496389627457,15.587327137589455L31.69072698801756,15.806656919419765L31.824284069240093,16.002755232155323L32.00456661731005,16.116971373558044L32.207074761390686,16.170504041016102L32.40741979330778,16.13760232180357L32.8160265609622,15.984645739197731L33.00634753704071,15.934181846678257L33.231684021651745,15.95582129061222L33.41186807304621,16.031452007591724L33.66676936298609,16.189614951610565L33.7935738787055,16.32255683094263L34.30268973112106,17.00985585153103L34.417383559048176,17.31171476095915L34.417546823620796,17.389750719070435L34.38783457875252,17.461909018456936L34.33277027308941,17.517204217612743L34.2607369273901,17.54721812903881L34.18270096927881,17.54738139361143L33.99029841274023,17.48575185239315L33.39092078059912,17.40113654732704L33.19526465982199,17.40161418169737L32.800337210297585,17.453448347747326L32.60594431310892,17.626387409865856L32.395719811320305,18.048688240349293L32.18742924928665,18.339280888438225L31.951772212982178,18.600435368716717L31.924282051622868,18.800592429935932L32.01752948760986,18.999567173421383L32.19144182652235,19.157298989593983L32.604048162698746,19.603748932480812L32.9015673622489,19.989159673452377L33.029931612312794,20.215287372469902L33.160316459834576,20.58204098790884L33.19198027998209,20.767600312829018L33.1569933667779,21.013741448521614L33.03697533160448,21.408643059432507L32.950233936309814,21.609493382275105L32.71920449286699,22.01050343364477L32.570669673383236,22.211082443594933L32.40353172272444,22.396474428474903L32.183993831276894,22.4924441203475L32.00290925055742,22.519676081836224L31.815158933401108,22.472826421260834L31.761644460260868,22.435358799993992L31.398910738527775,22.03995841741562L31.19465336203575,21.96227090805769L30.997815310955048,21.955523900687695L30.8006589487195,22.071616411209106L30.408310517668724,22.68526303768158L30.30826099961996,22.78983824700117L30.021826960146427,22.98987352848053L29.786055080592632,23.073990486562252L29.57301001995802,23.084225080907345L29.389968141913414,23.047518618404865L29.182384990155697,22.97720831632614L28.808554150164127,22.757007718086243L28.596037410199642,22.729879342019558L28.21411418914795,22.803826853632927L28.015976928174496,22.812273509800434L27.780249416828156,22.78031849861145L27.585764542222023,22.708404891192913L27.42420434206724,22.607057362794876L27.20475123822689,22.42511895298958L26.775519102811813,22.19205866008997L26.534420259296894,22.008414387702942L26.317730210721493,21.796168759465218L25.999115116894245,21.57527767121792L25.576454408466816,21.187562808394432L25.45261426270008,20.987288519740105L25.19588015973568,20.41176848858595L25.17823977768421,20.195636697113514L25.191801749169827,20.118788078427315L25.23374006897211,20.05297914892435L25.297670006752014,20.008228726685047L25.37385881692171,19.991349659860134L25.45070744305849,20.00491163134575L25.516516372561455,20.046849951148033L25.62420167773962,20.20290207862854L25.788588240742683,20.39587689191103L25.928206101059914,20.602429009974003L26.156509399414062,20.810441806912422L26.33438926935196,21.003948099911213L26.606880746781826,21.199179247021675L26.793852016329765,21.283139817416668L26.99545071274042,21.343601763248444L27.407723672688007,21.425590991973877L27.602881342172623,21.440332397818565L28.205627493560314,21.42098266631365L28.405343279242516,21.38143941760063L28.607630379498005,21.315995186567307L29.21734420210123,20.94184421747923L29.41094370931387,20.86857709288597L29.681044712662697,20.79649592190981L29.799435943365097,20.741639137268066L29.916538693010807,20.599705703556538L29.895941950380802,20.380759231746197L29.91275416314602,20.187063567340374L29.950471818447113,20.0098360106349L30.0286648273468,19.783558689057827L30.150615349411964,19.586097329854965L30.326625660061836,19.39403209835291L30.4347350820899,19.193250469863415L30.44259264320135,19.000145226716995L30.359495617449284,18.80891127884388L29.938127398490906,18.405810579657555L29.63876134902239,18.01110641658306L29.52985207736492,17.780919387936592L29.430044062435627,17.382660552859306L29.396703109145164,17.01708024740219L29.414743058383465,16.790197871625423L29.457890808582306,16.58461733907461L29.630118936300278,16.220240347087383L29.811023771762848,16.014425933361053L30.37953007221222,15.520394183695316L30.78359516710043,15.33516976237297L30.97824379056692,15.28893680870533L31.196530558168888,15.288828827440739ZM4.421695232391357,19.68253678828478L4.766088396310806,19.777651138603687L4.826400950551033,19.82716915011406L4.863172762095928,19.895998440682888L4.870805658400059,19.97366037964821L4.848137587308884,20.048331633210182L4.798619583249092,20.10864417999983L4.596290543675423,20.212883807718754L4.405401900410652,20.348434291779995L4.172609597444534,20.59220238775015L4.0914959236979485,20.79160337895155L4.048932887613773,21.006632201373577L4.076955862343311,21.205627150833607L4.151357561349869,21.38694317638874L4.204718053340912,21.629214018583298L4.187576822936535,21.799353636801243L4.106680542230606,21.964941762387753L4.058722399175167,22.025606960058212L3.8141182735562325,22.213284976780415L3.566110283136368,22.28690092265606L3.396368943154812,22.280721090734005L3.1612890511751175,22.188213862478733L2.989105299115181,22.067620180547237L2.915397197008133,21.981131717562675L2.819544732570648,21.809380017220974L2.8098353669047356,21.605808317661285L2.9054211527109146,21.38589160144329L3.02580825984478,21.19249226152897L3.2035470083355904,20.478044137358665L3.34846830368042,20.185817658901215L3.4170437827706337,20.109824016690254L3.6048986986279488,19.965163961052895L3.87066388130188,19.796433299779892L4.0179735496640205,19.72595515102148L4.226665556430817,19.67712178081274ZM75.81236267834902,19.680859938263893L75.97989989072084,19.72537136822939L76.14308764785528,19.804110281169415L76.40470443665981,19.971784479916096L76.61377797275782,20.13994623720646L76.67169906944036,20.216324158012867L76.76161976903677,20.389290049672127L76.82867006957531,20.596211217343807L76.97979456186295,21.206882640719414L77.11106347292662,21.415511421859264L77.18819832056761,21.596215210855007L77.18678595125675,21.786823257803917L77.06160750985146,22.012886948883533L76.98067834228277,22.09260316938162L76.80420126020908,22.206821881234646L76.56466958671808,22.28510071337223L76.39482246339321,22.283595390617847L76.17623300850391,22.208250872790813L75.91411621123552,21.997332647442818L75.82658983021975,21.834991239011288L75.80524323880672,21.76080981642008L75.80098187178373,21.566722609102726L75.84864243865013,21.38694317638874L75.92615482956171,21.193971171975136L75.95063356310129,20.993439808487892L75.90850407630205,20.79160337895155L75.83571507036686,20.608565613627434L75.79451628774405,20.543295368552208L75.59459809958935,20.348434291779995L75.39563875645399,20.20881836861372L75.20358894765377,20.11042983829975L75.15321949124336,20.050826527178288L75.1294933706522,19.976484701037407L75.13602267950773,19.89872220158577L75.17181339114904,19.829377681016922L75.23141670227051,19.779008217155933L75.40686947852373,19.72164809703827L75.61720018833876,19.677604861557484ZM36.8387109413743,17.811786130070686L37.01089469343424,17.932379812002182L37.084602788090706,18.018868267536163L37.18045525997877,18.190619967877865L37.1901646181941,18.394191667437553L37.094578847289085,18.614108383655548L36.97419173270464,18.80750773102045L36.79645297676325,19.521955847740173L36.651531688869,19.814182333648205L36.582956209778786,19.890175968408585L36.39510128647089,20.034836031496525L36.12933611124754,20.203566692769527L35.9820264428854,20.27404484152794L35.77333442866802,20.32287821173668L35.58324521780014,20.318524837493896L35.23391158878803,20.22234884649515L35.173599041998386,20.17283084243536L35.13682723045349,20.10400155186653L35.12919432669878,20.02633961290121L35.151862397789955,19.951668359339237L35.20138040930033,19.89135581254959L35.403709448874,19.787116177380085L35.59459809213877,19.651565700769424L35.827390387654305,19.40779759734869L35.90850406885147,19.20839661359787L35.951067097485065,18.993367791175842L35.92304413020611,18.794372841715813L35.84864243119955,18.6130568087101L35.79528193920851,18.37078596651554L35.812423169612885,18.200646348297596L35.89331945031881,18.035058230161667L35.94127759337425,17.974393032491207L36.18588171899319,17.786715008318424L36.3678490370512,17.72335758060217L36.60363104939461,17.719278901815414ZM43.60517753660679,17.716404601931572L43.823766991496086,17.791749119758606L44.08588378876448,18.00266733765602L44.173410169780254,18.16500875353813L44.194756761193275,18.23919016867876L44.19901812821627,18.433277383446693L44.15135756134987,18.613056801259518L44.07384517043829,18.806028820574284L44.04936643689871,19.006560176610947L44.09149592369795,19.20839661359787L44.16428492963314,19.391434378921986L44.205483712255955,19.45670461654663L44.40540190041065,19.651565700769424L44.60436124354601,19.79118161648512L44.79641105234623,19.889570146799088L44.84678050875664,19.94917345792055L44.8705066293478,20.023515291512012L44.86397732049227,20.10127779096365L44.828186608850956,20.170622311532497L44.76858329772949,20.220991767942905L44.59313052147627,20.27835188806057L44.38279981166124,20.322395130991936L44.17424740642309,20.316032618284225L43.98341458290815,20.26079571992159L43.60489869862795,20.034836031496525L43.386222027242184,19.86005374789238L43.328300930559635,19.783675827085972L43.23838023096323,19.610709942877293L43.17132993042469,19.40378876775503L43.020205438137054,18.793117351830006L42.88893652707338,18.584488570690155L42.81180167943239,18.403784781694412L42.81321404874325,18.213176727294922L42.938392490148544,17.987113043665886L43.01932165771723,17.9073968231678L43.195798739790916,17.793178111314774L43.43533041328192,17.71489927917719ZM59.58611921966076,10.534968070685863L59.772720232605934,10.610121257603168L59.968214586377144,10.806421801447868L60.03754883259535,10.990346923470497L60.00961823016405,11.196577593684196L59.96906250715256,11.262680776417255L59.84617804735899,11.390139900147915L59.77533324807882,11.422860711812973L59.39414192736149,11.482172839343548L59.009503692388535,11.647711612284184L58.8105206489563,11.710726283490658L58.66703300178051,11.735865287482738L58.590570852160454,11.720271177589893L58.47485961765051,11.618649110198021L58.445986807346344,11.546150848269463L58.43296328186989,11.397124171257019L58.54234181344509,11.016226656734943L58.59333588182926,10.915182530879974L58.69592986255884,10.783598601818085L58.81126096844673,10.693170748651028L59.011963091790676,10.575873613357544L59.20794255286455,10.502609059214592L59.40933199226856,10.493131347000599ZM20.82975959032774,10.513366647064686L21.01125855743885,10.58681557327509L21.188739016652107,10.693170748651028L21.304070129990578,10.783598601818085L21.406664110720158,10.915182530879974L21.457658179104328,11.016226656734943L21.561467058956623,11.364609867334366L21.548072762787342,11.569998383522034L21.510526083409786,11.638408057391644L21.44538102298975,11.700623989105225L21.373700849711895,11.731471836566925L21.2956720367074,11.732540726661682L20.990496300160885,11.647711612284184L20.593703150749207,11.478673681616783L20.20568998157978,11.417284570634365L20.138423591852188,11.377726130187511L20.007296107709408,11.231403566896915L19.980415746569633,11.158658519387245L19.96062597632408,11.010818980634212L20.038269072771072,10.796857103705406L20.178521938621998,10.647455781698227L20.256880782544613,10.595582090318203L20.41388077288866,10.534968070685863L20.60977067053318,10.491416342556477Z"/></defs><rect width="100%" height="100%" fill="white"/><g fill="#203448" fill-rule="evenodd"><use transform="translate(0,0)" href="#tile"/><use transform="translate(80,0)" href="#tile"/><use transform="translate(160,0)" href="#tile"/><use transform="translate(0,80)" href="#tile"/><use transform="translate(80,80)" href="#tile"/><use transform="translate(160,80)" href="#tile"/><use transform="translate(0,160)" href="#tile"/><use transform="translate(80,160)" href="#tile"/><use transform="translate(160,160)" href="#tile"/></g><path d="M80,0V240M160,0V240M0,80H240M0,160H240" stroke="#ec4661" stroke-width="0.26666666666666666" stroke-dasharray="0.8" fill="none"/></svg>