<svg xmlns="http://www.w3.org/2000/svg" viewBox="0 0 120 120" width="900" height="900"><title>truchet</title><defs><path id="tile" d="M0.4909867122769356,35.22518169879913L0.9566364511847496,35.29629884660244L1.3736312836408615,35.40075060725212L1.817822203040123,35.55753669887781L2.244506411254406,35.7571060732007L2.6495748087763786,35.99753686785698L3.029126361012459,36.276513546705246L3.3795058131217957,36.5913494899869L3.697338752448559,36.939012572169304L3.9795642867684364,37.31615465134382L4.2234644293785095,37.71914356201887L4.426690310239792,38.14409842342138L4.587284758687019,38.58692663908005L4.70370115339756,39.04336354881525L4.774818301200867,39.509013287723064L4.794005274772644,40L3.198057606816292,40L3.184137873351574,39.69673769176006L3.1390804424881935,39.38609766215086L3.063792012631893,39.081370279192924L2.958997592329979,38.785489693284035L2.8257063180208206,38.5013052970171L2.6652020514011383,38.231554336845875L2.4790304079651833,37.97883442789316L2.2689843475818634,37.745579428970814L2.0370867177844048,37.53403574228287L1.7855708003044128,37.34624060988426L1.5168587490916252,37.18400256335735L1.233538769185543,37.04888425767422L0.9383389800786972,36.94218672811985L0.6341023296117783,36.8649375885725L0.32375913113355637,36.817880891263485L0.010298080742359161,36.80146969854832L0,36.80194238573313L0,35.20599473267794ZM0.4909867122769356,27.225181691348553L0.9566364511847496,27.29629883915186L1.3736312836408615,27.40075059980154L1.817822203040123,27.55753669142723L2.244506411254406,27.75710605829954L2.6495748087763786,27.9975368604064L3.029126361012459,28.276513539254665L3.3795058131217957,28.591349482536316L3.697338752448559,28.939012557268143L3.9795642867684364,29.31615463644266L4.2234644293785095,29.71914354711771L4.426690310239792,30.14409840852022L4.587284758687019,30.586926631629467L4.70370115339756,31.04336354136467L4.774818301200867,31.509013280272484L4.8158621191978455,32.303262300789356L4.860919550061226,32.61390233784914L4.936207979917526,32.918629720807076L5.0410024002194405,33.214510306715965L5.174293667078018,33.4986947029829L5.334797941148281,33.768445663154125L5.5209695771336555,34.02116557210684L5.731015637516975,34.254420571029186L5.962913267314434,34.46596425771713L6.214429192245007,34.65375939011574L6.483141243457794,34.81599743664265L6.766461223363876,34.95111574232578L7.061661012470722,35.05781327933073L7.365897662937641,35.13506241887808L7.676240876317024,35.182119123637676L8.490986712276936,35.22518169879913L8.95663645118475,35.29629884660244L9.373631283640862,35.40075060725212L9.817822203040123,35.55753669887781L10.244506411254406,35.7571060732007L10.649574808776379,35.99753686785698L11.029126361012459,36.276513546705246L11.379505813121796,36.5913494899869L11.697338752448559,36.939012572169304L11.979564286768436,37.31615465134382L12.22346442937851,37.71914356201887L12.426690310239792,38.14409842342138L12.58728475868702,38.58692663908005L12.70370115339756,39.04336354881525L12.774818301200867,39.509013287723064L12.800190657377243,40L11.199809335172176,40L11.184137873351574,39.6967376768589L11.139080442488194,39.38609766215086L11.063792012631893,39.081370279192924L10.958997592329979,38.785489693284035L10.82570631802082,38.5013052970171L10.665202051401138,38.231554336845875L10.479030407965183,37.97883442789316L10.268984347581863,37.745579428970814L10.037086717784405,37.53403574228287L9.785570800304413,37.34624060988426L9.516858749091625,37.18400256335735L9.233538769185543,37.04888425767422L8.938338980078697,36.94218672811985L8.634102329611778,36.8649375885725L8.323759108781815,36.817880891263485L7.550031661987305,36.77885826677084L7.08378840982914,36.71174216270447L6.626368708908558,36.59924940019846L6.182177789509296,36.44246330857277L5.755493581295013,36.24289394170046L5.35042517632246,36.0024631395936L4.970873631536961,35.723486460745335L4.620494179427624,35.408650517463684L4.302661240100861,35.06098744273186L4.020435698330402,34.68384534865618L3.77653556317091,34.28085643798113L3.5733096823096275,33.85590157657862L3.4127152264118195,33.41307336091995L3.2962988391518593,32.95663645118475L3.2251816913485527,32.490986712276936L3.182119108736515,31.676240876317024L3.1390804424881935,31.3860976472497L3.063792012631893,31.081370271742344L2.958997592329979,30.785489678382874L2.8257063180208206,30.501305289566517L2.6652020514011383,30.231554329395294L2.4790304079651833,29.97883442044258L2.2689843475818634,29.745579421520233L2.0370867177844048,29.534035727381706L1.7855708003044128,29.34624060243368L1.5168587490916252,29.184002548456192L1.233538769185543,29.048884250223637L0.9383389800786972,28.94218672066927L0.6341023296117783,28.86493758112192L0.32375913113355637,28.817880876362324L0.010298080742359161,28.801469698548317L0,28.801942378282547L0,27.205994710326195ZM0.4499683305621147,19.22114173322916L0.9162115827202797,19.288257837295532L1.3736312836408615,19.40075059980154L1.817822203040123,19.55753669142723L2.244506411254406,19.75710605829954L2.6495748087763786,19.9975368604064L3.029126361012459,20.276513539254665L3.3795058131217957,20.591349482536316L3.697338752448559,20.939012557268143L3.9795642867684364,21.31615463644266L4.2234644293785095,21.71914354711771L4.426690310239792,22.14409840852022L4.587284758687019,22.586926631629467L4.70370115339756,23.04336354136467L4.774818301200867,23.509013280272484L4.8158621191978455,24.303262300789356L4.860919550061226,24.61390233784914L4.936207979917526,24.918629720807076L5.0410024002194405,25.214510306715965L5.174293667078018,25.498694702982903L5.334797941148281,25.768445663154125L5.5209695771336555,26.02116557210684L5.731015637516975,26.254420571029186L5.962913267314434,26.465964257717133L6.214429192245007,26.653759390115738L6.483141243457794,26.815997436642647L6.766461223363876,26.951115742325783L7.061661012470722,27.05781327188015L7.365897662937641,27.135062411427498L7.676240876317024,27.182119108736515L8.449968330562115,27.22114173322916L8.91621158272028,27.288257837295532L9.373631283640862,27.40075059980154L9.817822203040123,27.55753669142723L10.244506411254406,27.75710605829954L10.649574808776379,27.9975368604064L11.029126361012459,28.276513539254665L11.379505813121796,28.591349482536316L11.697338752448559,28.939012557268143L11.979564286768436,29.31615463644266L12.22346442937851,29.71914354711771L12.426690310239792,30.14409840852022L12.58728475868702,30.586926631629467L12.70370115339756,31.04336354136467L12.774818301200867,31.509013280272484L12.815862119197845,32.303262300789356L12.860919550061226,32.61390233784914L12.936207979917526,32.918629720807076L13.04100240021944,33.214510306715965L13.174293667078018,33.4986947029829L13.334797941148281,33.768445663154125L13.520969577133656,34.02116557210684L13.731015637516975,34.254420571029186L13.962913267314434,34.46596425771713L14.214429192245007,34.65375939011574L14.483141243457794,34.81599743664265L14.766461223363876,34.95111574232578L15.061661012470722,35.05781327933073L15.365897662937641,35.13506241887808L15.676240876317024,35.182119123637676L16.490986712276936,35.22518169879913L16.95663645118475,35.29629884660244L17.37363128364086,35.40075060725212L17.817822203040123,35.55753669887781L18.244506411254406,35.7571060732007L18.64957480877638,35.99753686785698L19.02912636101246,36.276513546705246L19.379505813121796,36.5913494899869L19.69733875244856,36.939012572169304L19.979564286768436,37.31615465134382L20.22346442937851,37.71914356201887L20.426690310239792,38.14409842342138L20.58728475868702,38.58692663908005L20.70370115339756,39.04336354881525L20.774818301200867,39.509013287723064L20.794005274772644,40L19.198057606816292,40L19.184137873351574,39.69673769176006L19.139080442488194,39.38609766215086L19.063792012631893,39.081370279192924L18.95899759232998,38.785489693284035L18.82570631802082,38.5013052970171L18.66520205140114,38.231554336845875L18.479030407965183,37.97883442789316L18.268984347581863,37.745579428970814L18.037086717784405,37.53403574228287L17.785570800304413,37.34624060988426L17.516858749091625,37.18400256335735L17.233538769185543,37.04888425767422L16.938338980078697,36.94218672811985L16.63410232961178,36.8649375885725L16.323759108781815,36.817880891263485L15.550031661987305,36.77885826677084L15.08378840982914,36.71174216270447L14.626368708908558,36.59924940019846L14.182177789509296,36.44246330857277L13.755493581295013,36.24289394170046L13.35042517632246,36.0024631395936L12.97087363153696,35.723486460745335L12.620494179427624,35.408650517463684L12.30266124010086,35.06098744273186L12.020435698330402,34.68384534865618L11.77653556317091,34.28085643798113L11.573309682309628,33.85590157657862L11.41271522641182,33.41307336091995L11.29629883915186,32.95663645118475L11.225181691348553,32.490986712276936L11.182119108736515,31.676240876317024L11.139080442488194,31.3860976472497L11.063792012631893,31.081370271742344L10.958997592329979,30.785489678382874L10.82570631802082,30.501305289566517L10.665202051401138,30.231554329395294L10.479030407965183,29.97883442044258L10.268984347581863,29.745579421520233L10.037086717784405,29.534035727381706L9.785570800304413,29.34624060243368L9.516858749091625,29.184002548456192L9.233538769185543,29.048884250223637L8.938338980078697,28.94218672066927L8.634102329611778,28.86493758112192L8.323759108781815,28.817880876362324L7.509013280272484,28.774818301200867L7.04336354136467,28.70370115339756L6.626368708908558,28.59924939274788L6.182177789509296,28.44246330112219L5.755493581295013,28.242893926799297L5.35042517632246,28.00246313214302L4.970873631536961,27.723486453294754L4.620494179427624,27.408650510013103L4.302661240100861,27.060987427830696L4.020435698330402,26.683845348656178L3.77653556317091,26.28085643798113L3.5733096823096275,25.855901576578617L3.4127152264118195,25.413073360919952L3.2962988391518593,24.95663645118475L3.2251816913485527,24.490986712276936L3.182119108736515,23.676240876317024L3.1390804424881935,23.3860976472497L3.063792012631893,23.081370271742344L2.958997592329979,22.785489678382874L2.8257063180208206,22.501305289566517L2.6652020514011383,22.231554329395294L2.4790304079651833,21.97883442044258L2.2689843475818634,21.745579421520233L2.0370867177844048,21.534035727381706L1.7855708003044128,21.34624060243368L1.5168587490916252,21.184002548456192L1.233538769185543,21.048884250223637L0.9383389800786972,20.94218672066927L0.6341023296117783,20.86493758112192L0.32375913113355637,20.817880876362324L0,20.80155222117901L0,19.19844777137041ZM0.4909867122769356,11.225181691348553L0.9566364511847496,11.29629883915186L1.3736312836408615,11.40075059980154L1.817822203040123,11.55753669142723L2.244506411254406,11.757106058299541L2.6495748087763786,11.997536860406399L3.029126361012459,12.276513539254665L3.3795058131217957,12.591349482536316L3.697338752448559,12.939012557268143L3.9795642867684364,13.316154636442661L4.2234644293785095,13.71914354711771L4.426690310239792,14.144098408520222L4.587284758687019,14.586926631629467L4.70370115339756,15.04336354136467L4.774818301200867,15.509013280272484L4.8158621191978455,16.303262300789356L4.860919550061226,16.61390233784914L4.936207979917526,16.918629720807076L5.0410024002194405,17.214510306715965L5.174293667078018,17.498694702982903L5.334797941148281,17.768445663154125L5.5209695771336555,18.02116557210684L5.731015637516975,18.254420571029186L5.962913267314434,18.465964257717133L6.214429192245007,18.653759390115738L6.483141243457794,18.815997436642647L6.766461223363876,18.951115742325783L7.061661012470722,19.05781327188015L7.365897662937641,19.135062411427498L7.676240876317024,19.182119108736515L8.449968330562115,19.22114173322916L8.91621158272028,19.288257837295532L9.373631283640862,19.40075059980154L9.817822203040123,19.55753669142723L10.244506411254406,19.75710605829954L10.649574808776379,19.9975368604064L11.029126361012459,20.276513539254665L11.379505813121796,20.591349482536316L11.697338752448559,20.939012557268143L11.979564286768436,21.31615463644266L12.22346442937851,21.71914354711771L12.426690310239792,22.14409840852022L12.58728475868702,22.586926631629467L12.70370115339756,23.04336354136467L12.774818301200867,23.509013280272484L12.815862119197845,24.303262300789356L12.860919550061226,24.61390233784914L12.936207979917526,24.918629720807076L13.04100240021944,25.214510306715965L13.174293667078018,25.498694702982903L13.334797941148281,25.768445663154125L13.520969577133656,26.02116557210684L13.731015637516975,26.254420571029186L13.962913267314434,26.465964257717133L14.214429192245007,26.653759390115738L14.483141243457794,26.815997436642647L14.766461223363876,26.951115742325783L15.061661012470722,27.05781327188015L15.365897662937641,27.135062411427498L15.676240876317024,27.182119108736515L16.449968330562115,27.22114173322916L16.91621158272028,27.288257837295532L17.37363128364086,27.40075059980154L17.817822203040123,27.55753669142723L18.244506411254406,27.75710605829954L18.64957480877638,27.9975368604064L19.02912636101246,28.276513539254665L19.379505813121796,28.591349482536316L19.69733875244856,28.939012557268143L19.979564286768436,29.31615463644266L20.22346442937851,29.71914354711771L20.426690310239792,30.14409840852022L20.58728475868702,30.586926631629467L20.70370115339756,31.04336354136467L20.774818301200867,31.509013280272484L20.815862119197845,32.303262300789356L20.860919550061226,32.61390233784914L20.936207979917526,32.918629720807076L21.04100240021944,33.214510306715965L21.174293667078018,33.4986947029829L21.33479794114828,33.768445663154125L21.520969577133656,34.02116557210684L21.731015637516975,34.254420571029186L21.962913267314434,34.46596425771713L22.214429192245007,34.65375939011574L22.483141243457794,34.81599743664265L22.766461223363876,34.95111574232578L23.061661012470722,35.05781327933073L23.36589766293764,35.13506241887808L23.676240876317024,35.182119123637676L24.490986712276936,35.22518169879913L24.95663645118475,35.29629884660244L25.37363128364086,35.40075060725212L25.817822203040123,35.55753669887781L26.244506411254406,35.7571060732007L26.64957480877638,35.99753686785698L27.02912636101246,36.276513546705246L27.379505813121796,36.5913494899869L27.69733875244856,36.939012572169304L27.979564286768436,37.31615465134382L28.22346442937851,37.71914356201887L28.426690310239792,38.14409842342138L28.58728475868702,38.58692663908005L28.70370115339756,39.04336354881525L28.774818301200867,39.509013287723064L28.794005274772644,40L27.198057606816292,40L27.184137873351574,39.69673769176006L27.139080442488194,39.38609766215086L27.063792012631893,39.081370279192924L26.95899759232998,38.785489693284035L26.82570631802082,38.5013052970171L26.66520205140114,38.231554336845875L26.479030407965183,37.97883442789316L26.268984347581863,37.745579428970814L26.037086717784405,37.53403574228287L25.785570800304413,37.34624060988426L25.516858749091625,37.18400256335735L25.233538769185543,37.04888425767422L24.938338980078697,36.94218672811985L24.63410232961178,36.8649375885725L24.323759108781815,36.817880891263485L23.550031661987305,36.77885826677084L23.08378840982914,36.71174216270447L22.626368708908558,36.59924940019846L22.182177789509296,36.44246330857277L21.755493581295013,36.24289394170046L21.35042517632246,36.0024631395936L20.97087363153696,35.723486460745335L20.620494179427624,35.408650517463684L20.30266124010086,35.06098744273186L20.020435698330402,34.68384534865618L19.77653556317091,34.28085643798113L19.573309682309628,33.85590157657862L19.41271522641182,33.41307336091995L19.29629883915186,32.95663645118475L19.225181691348553,32.490986712276936L19.182119108736515,31.676240876317024L19.139080442488194,31.3860976472497L19.063792012631893,31.081370271742344L18.95899759232998,30.785489678382874L18.82570631802082,30.501305289566517L18.66520205140114,30.231554329395294L18.479030407965183,29.97883442044258L18.268984347581863,29.745579421520233L18.037086717784405,29.534035727381706L17.785570800304413,29.34624060243368L17.516858749091625,29.184002548456192L17.233538769185543,29.048884250223637L16.938338980078697,28.94218672066927L16.63410232961178,28.86493758112192L16.323759108781815,28.817880876362324L15.509013280272484,28.774818301200867L15.04336354136467,28.70370115339756L14.626368708908558,28.59924939274788L14.182177789509296,28.44246330112219L13.755493581295013,28.242893926799297L13.35042517632246,28.00246313214302L12.97087363153696,27.723486453294754L12.620494179427624,27.408650510013103L12.30266124010086,27.060987427830696L12.020435698330402,26.683845348656178L11.77653556317091,26.28085643798113L11.573309682309628,25.855901576578617L11.41271522641182,25.413073360919952L11.29629883915186,24.95663645118475L11.225181691348553,24.490986712276936L11.182119108736515,23.676240876317024L11.139080442488194,23.3860976472497L11.063792012631893,23.081370271742344L10.958997592329979,22.785489678382874L10.82570631802082,22.501305289566517L10.665202051401138,22.231554329395294L10.479030407965183,21.97883442044258L10.268984347581863,21.745579421520233L10.037086717784405,21.534035727381706L9.785570800304413,21.34624060243368L9.516858749091625,21.184002548456192L9.233538769185543,21.048884250223637L8.938338980078697,20.94218672066927L8.634102329611778,20.86493758112192L8.323759108781815,20.817880876362324L7.509013280272484,20.774818301200867L7.04336354136467,20.70370115339756L6.626368708908558,20.59924939274788L6.182177789509296,20.44246330112219L5.755493581295013,20.242893926799297L5.35042517632246,20.00246313214302L4.970873631536961,19.723486453294754L4.620494179427624,19.408650510013103L4.302661240100861,19.060987427830696L4.020435698330402,18.683845348656178L3.77653556317091,18.28085643798113L3.5733096823096275,17.855901576578617L3.4127152264118195,17.413073360919952L3.2962988391518593,16.95663645118475L3.2251816913485527,16.490986712276936L3.182119108736515,15.676240876317024L3.1390804424881935,15.386097647249699L3.063792012631893,15.081370271742344L2.958997592329979,14.785489678382874L2.8257063180208206,14.501305289566517L2.6652020514011383,14.231554329395294L2.4790304079651833,13.978834420442581L2.2689843475818634,13.745579421520233L2.0370867177844048,13.534035727381706L1.7855708003044128,13.346240602433681L1.5168587490916252,13.184002548456192L1.233538769185543,13.048884250223637L0.9383389800786972,12.94218672066927L0.6341023296117783,12.864937581121922L0.32375913113355637,12.817880876362324L0.010298080742359161,12.801469698548317L0,12.801942378282547L0,11.205994710326195ZM40,36.80194238573313L39.696737706661224,36.815862119197845L39.38609766215086,36.86091955751181L39.081370279192924,36.93620798736811L38.785489693284035,37.04100240767002L38.5013052970171,37.17429368197918L38.231554336845875,37.33479794859886L37.97883442789316,37.52096959203482L37.745579428970814,37.73101565241814L37.53403574228287,37.962913282215595L37.34624060988426,38.21442919969559L37.18400256335735,38.483141250908375L37.04888425767422,38.76646123081446L36.94218672811985,39.0616610199213L36.8649375885725,39.36589767038822L36.817880876362324,39.676240898668766L36.80155222862959,40L35.19844777882099,40L35.22114174067974,39.550031661987305L35.28825785219669,39.08378841727972L35.40075060725212,38.62636871635914L35.55753669887781,38.18217779695988L35.7571060732007,37.755493588745594L35.99753686785698,37.35042519122362L36.276513546705246,36.97087363898754L36.5913494899869,36.620494186878204L36.939012572169304,36.30266124755144L37.31615465134382,36.020435713231564L37.71914356201887,35.77653557062149L38.14409842342138,35.57330968976021L38.58692663908005,35.41271524131298L39.04336354881525,35.29629884660244L39.509013287723064,35.22518169879913L40,35.20599473267794ZM28.774818301200867,0.4909867122769356L28.70370115339756,0.9566364511847496L28.59924939274788,1.3736312836408615L28.44246330112219,1.817822203040123L28.242893926799297,2.244506411254406L28.00246313214302,2.6495748087763786L27.723486453294754,3.029126361012459L27.408650510013103,3.3795058131217957L27.060987427830696,3.697338752448559L26.683845348656178,3.9795642867684364L26.28085643798113,4.2234644293785095L25.855901576578617,4.426690310239792L25.413073360919952,4.587284758687019L24.95663645118475,4.70370115339756L24.490986712276936,4.774818301200867L23.696737691760063,4.8158621191978455L23.3860976472497,4.860919550061226L23.081370271742344,4.936207979917526L22.785489678382874,5.0410024002194405L22.501305289566517,5.174293667078018L22.231554329395294,5.334797941148281L21.97883442044258,5.5209695771336555L21.745579421520233,5.731015637516975L21.534035727381706,5.962913267314434L21.34624060243368,6.214429192245007L21.184002548456192,6.483141243457794L21.048884250223637,6.766461223363876L20.94218672066927,7.061661012470722L20.86493758112192,7.365897662937641L20.817880876362324,7.676240876317024L20.774818301200867,8.490986712276936L20.70370115339756,8.95663645118475L20.59924939274788,9.373631283640862L20.44246330112219,9.817822203040123L20.242893926799297,10.244506411254406L20.00246313214302,10.649574808776379L19.723486453294754,11.029126361012459L19.408650510013103,11.379505813121796L19.060987427830696,11.697338752448559L18.683845348656178,11.979564286768436L18.28085643798113,12.22346442937851L17.855901576578617,12.426690310239792L17.413073360919952,12.58728475868702L16.95663645118475,12.70370115339756L16.490986712276936,12.774818301200867L15.696737691760063,12.815862119197845L15.386097647249699,12.860919550061226L15.081370271742344,12.936207979917526L14.785489678382874,13.04100240021944L14.501305289566517,13.174293667078018L14.231554329395294,13.334797941148281L13.978834420442581,13.520969577133656L13.745579421520233,13.731015637516975L13.534035727381706,13.962913267314434L13.346240602433681,14.214429192245007L13.184002548456192,14.483141243457794L13.048884250223637,14.766461223363876L12.94218672066927,15.061661012470722L12.864937581121922,15.365897662937641L12.817880876362324,15.676240861415863L12.801469698548317,15.98970191925764L12.815862111747265,16.303262293338776L12.860919550061226,16.61390233784914L12.936207979917526,16.918629720807076L13.04100240021944,17.214510306715965L13.174293667078018,17.498694702982903L13.334797941148281,17.768445663154125L13.520969577133656,18.02116557210684L13.731015637516975,18.254420571029186L13.962913267314434,18.465964257717133L14.214429192245007,18.653759390115738L14.483141243457794,18.815997436642647L14.766461223363876,18.951115742325783L15.061661012470722,19.05781327188015L15.365897662937641,19.135062411427498L15.676240876317024,19.182119108736515L16.449968330562115,19.22114173322916L16.91621158272028,19.288257837295532L17.37363128364086,19.40075059980154L17.817822203040123,19.55753669142723L18.244506411254406,19.75710605829954L18.64957480877638,19.9975368604064L19.02912636101246,20.276513539254665L19.379505813121796,20.591349482536316L19.69733875244856,20.939012557268143L19.979564286768436,21.31615463644266L20.22346442937851,21.71914354711771L20.426690310239792,22.14409840852022L20.58728475868702,22.586926631629467L20.70370115339756,23.04336354136467L20.774818301200867,23.509013280272484L20.815862119197845,24.303262300789356L20.860919550061226,24.61390233784914L20.936207979917526,24.918629720807076L21.04100240021944,25.214510306715965L21.174293667078018,25.498694702982903L21.33479794114828,25.768445663154125L21.520969577133656,26.02116557210684L21.731015637516975,26.254420571029186L21.962913267314434,26.465964257717133L22.214429192245007,26.653759390115738L22.483141243457794,26.815997436642647L22.766461223363876,26.951115742325783L23.061661012470722,27.05781327188015L23.36589766293764,27.135062411427498L23.676240876317024,27.182119108736515L24.449968330562115,27.22114173322916L24.91621158272028,27.288257837295532L25.37363128364086,27.40075059980154L25.817822203040123,27.55753669142723L26.244506411254406,27.75710605829954L26.64957480877638,27.9975368604064L27.02912636101246,28.276513539254665L27.379505813121796,28.591349482536316L27.69733875244856,28.939012557268143L27.979564286768436,29.31615463644266L28.22346442937851,29.71914354711771L28.426690310239792,30.14409840852022L28.58728475868702,30.586926631629467L28.70370115339756,31.04336354136467L28.774818301200867,31.509013280272484L28.815862119197845,32.303262300789356L28.860919550061226,32.61390233784914L28.936207979917526,32.918629720807076L29.04100240021944,33.214510306715965L29.174293667078018,33.4986947029829L29.33479794114828,33.768445663154125L29.520969577133656,34.02116557210684L29.731015637516975,34.254420571029186L29.962913267314434,34.46596425771713L30.214429192245007,34.65375939011574L30.483141243457794,34.81599743664265L30.766461223363876,34.95111574232578L31.061661012470722,35.05781327933073L31.36589766293764,35.13506241887808L31.676240891218185,35.18211913108826L31.98970191925764,35.19853028655052L32.30326230823994,35.184137880802155L32.61390233784914,35.139080449938774L32.918629720807076,35.063792020082474L33.214510306715965,34.95899759232998L33.4986947029829,34.82570631802082L33.768445663154125,34.66520205140114L34.02116557210684,34.47903040796518L34.254420571029186,34.26898434758186L34.46596425771713,34.037086717784405L34.65375939011574,33.78557080030441L34.81599743664265,33.516858749091625L34.95111574232578,33.23353876918554L35.05781327933073,32.9383389800787L35.13506241887808,32.63410232961178L35.182119123637676,32.323759108781815L35.22518169879913,31.509013280272484L35.29629884660244,31.04336354136467L35.40075060725212,30.626368708908558L35.55753669887781,30.182177789509296L35.7571060732007,29.755493581295013L35.99753686785698,29.35042517632246L36.276513546705246,28.97087363153696L36.5913494899869,28.620494179427624L36.939012572169304,28.30266124010086L37.31615465134382,28.020435698330402L37.71914356201887,27.77653556317091L38.14409842342138,27.573309682309628L38.58692663908005,27.41271522641182L39.04336354881525,27.29629883915186L39.509013287723064,27.225181691348553L40,27.205994710326195L40,28.801942378282547L39.696737706661224,28.815862111747265L39.38609766215086,28.860919550061226L39.081370279192924,28.936207979917526L38.785489693284035,29.04100240021944L38.5013052970171,29.174293667078018L38.231554336845875,29.33479794114828L37.97883442789316,29.520969577133656L37.745579428970814,29.731015637516975L37.53403574228287,29.962913267314434L37.34624060988426,30.214429192245007L37.18400256335735,30.483141243457794L37.04888425767422,30.766461223363876L36.94218672811985,31.061661012470722L36.8649375885725,31.36589766293764L36.817880891263485,31.676240876317024L36.77885826677084,32.449968330562115L36.71174216270447,32.91621158272028L36.59924940019846,33.37363128364086L36.44246330857277,33.81782220304012L36.24289394170046,34.244506411254406L36.0024631395936,34.64957480877638L35.744894817471504,35L35.379505820572376,35.408650517463684L35.06098744273186,35.69733875989914L34.68384534865618,35.9795643016696L34.28085643798113,36.22346443682909L33.85590157657862,36.42669031769037L33.41307336091995,36.58728477358818L32.95663645118475,36.70370116084814L32.490986712276936,36.77481830865145L32.078889943659306,36.79708818346262L31.509013280272484,36.77481830865145L31.04336354136467,36.70370116084814L30.626368708908558,36.59924940019846L30.182177789509296,36.44246330857277L29.755493581295013,36.24289394170046L29.35042517632246,36.0024631395936L28.97087363153696,35.723486460745335L28.620494179427624,35.408650517463684L28.30266124010086,35.06098744273186L28.020435698330402,34.68384534865618L27.77653556317091,34.28085643798113L27.573309682309628,33.85590157657862L27.41271522641182,33.41307336091995L27.29629883915186,32.95663645118475L27.225181691348553,32.490986712276936L27.182119108736515,31.676240876317024L27.139080442488194,31.3860976472497L27.063792012631893,31.081370271742344L26.95899759232998,30.785489678382874L26.82570631802082,30.501305289566517L26.66520205140114,30.231554329395294L26.479030407965183,29.97883442044258L26.268984347581863,29.745579421520233L26.037086717784405,29.534035727381706L25.785570800304413,29.34624060243368L25.516858749091625,29.184002548456192L25.233538769185543,29.048884250223637L24.938338980078697,28.94218672066927L24.63410232961178,28.86493758112192L24.323759108781815,28.817880876362324L23.509013280272484,28.774818301200867L23.04336354136467,28.70370115339756L22.626368708908558,28.59924939274788L22.182177789509296,28.44246330112219L21.755493581295013,28.242893926799297L21.35042517632246,28.00246313214302L20.97087363153696,27.723486453294754L20.620494179427624,27.408650510013103L20.30266124010086,27.060987427830696L20.020435698330402,26.683845348656178L19.77653556317091,26.28085643798113L19.573309682309628,25.855901576578617L19.41271522641182,25.413073360919952L19.29629883915186,24.95663645118475L19.225181691348553,24.490986712276936L19.182119108736515,23.676240876317024L19.139080442488194,23.3860976472497L19.063792012631893,23.081370271742344L18.95899759232998,22.785489678382874L18.82570631802082,22.501305289566517L18.66520205140114,22.231554329395294L18.479030407965183,21.97883442044258L18.268984347581863,21.745579421520233L18.037086717784405,21.534035727381706L17.785570800304413,21.34624060243368L17.516858749091625,21.184002548456192L17.233538769185543,21.048884250223637L16.938338980078697,20.94218672066927L16.63410232961178,20.86493758112192L16.323759108781815,20.817880876362324L15.509013280272484,20.774818301200867L15.04336354136467,20.70370115339756L14.626368708908558,20.59924939274788L14.182177789509296,20.44246330112219L13.755493581295013,20.242893926799297L13.35042517632246,20.00246313214302L12.97087363153696,19.723486453294754L12.620494179427624,19.408650510013103L12.30266124010086,19.060987427830696L12.020435698330402,18.683845348656178L11.77653556317091,18.28085643798113L11.573309682309628,17.855901576578617L11.41271522641182,17.413073360919952L11.29629883915186,16.95663645118475L11.225181691348553,16.490986712276936L11.20291181653738,16.07888998836279L11.225181691348553,15.509013280272484L11.29629883915186,15.04336354136467L11.40075059980154,14.626368708908558L11.55753669142723,14.182177789509296L11.757106058299541,13.755493581295013L11.997536860406399,13.35042517632246L12.276513539254665,12.97087363153696L12.591349482536316,12.620494179427624L12.939012557268143,12.30266124010086L13.316154636442661,12.020435698330402L13.71914354711771,11.77653556317091L14.144098408520222,11.573309682309628L14.586926631629467,11.41271522641182L15.04336354136467,11.29629883915186L15.509013280272484,11.225181691348553L16.323759108781815,11.182119108736515L16.61390233784914,11.139080442488194L16.918629720807076,11.063792012631893L17.214510306715965,10.958997592329979L17.498694702982903,10.82570631802082L17.768445663154125,10.665202051401138L18.02116557210684,10.479030407965183L18.254420571029186,10.268984347581863L18.465964257717133,10.037086717784405L18.653759390115738,9.785570800304413L18.815997436642647,9.516858749091625L18.951115742325783,9.233538769185543L19.05781327188015,8.938338980078697L19.135062411427498,8.634102329611778L19.182119108736515,8.323759108781815L19.22114173322916,7.550031661987305L19.288257837295532,7.08378840982914L19.40075059980154,6.626368708908558L19.55753669142723,6.182177789509296L19.75710605829954,5.755493581295013L19.9975368604064,5.35042517632246L20.276513539254665,4.970873631536961L20.591349482536316,4.620494179427624L20.939012557268143,4.302661240100861L21.31615463644266,4.020435698330402L21.71914354711771,3.77653556317091L22.14409840852022,3.5733096823096275L22.586926631629467,3.4127152264118195L23.04336354136467,3.2962988391518593L23.509013280272484,3.2251816913485527L24.323759108781815,3.182119108736515L24.61390233784914,3.1390804424881935L24.918629720807076,3.063792012631893L25.214510306715965,2.958997592329979L25.498694702982903,2.8257063180208206L25.768445663154125,2.6652020514011383L26.02116557210684,2.4790304079651833L26.254420571029186,2.2689843475818634L26.465964257717133,2.0370867177844048L26.653759390115738,1.7855708003044128L26.815997436642647,1.5168587490916252L26.951115742325783,1.233538769185543L27.05781327188015,0.9383389800786972L27.135062411427498,0.6341023296117783L27.182119123637676,0.323759101331234L27.198530286550522,0.010298080742359161L27.198057606816292,0L28.794005274772644,0ZM24.490986712276936,11.225181691348553L24.95663645118475,11.29629883915186L25.37363128364086,11.40075059980154L25.817822203040123,11.55753669142723L26.244506411254406,11.757106058299541L26.64957480877638,11.997536860406399L27.02912636101246,12.276513539254665L27.379505813121796,12.591349482536316L27.69733875244856,12.939012557268143L27.979564286768436,13.316154636442661L28.22346442937851,13.71914354711771L28.426690310239792,14.144098408520222L28.58728475868702,14.586926631629467L28.70370115339756,15.04336354136467L28.774818301200867,15.509013280272484L28.815862119197845,16.303262300789356L28.860919550061226,16.61390233784914L28.936207979917526,16.918629720807076L29.04100240021944,17.214510306715965L29.174293667078018,17.498694702982903L29.33479794114828,17.768445663154125L29.520969577133656,18.02116557210684L29.731015637516975,18.254420571029186L29.962913267314434,18.465964257717133L30.214429192245007,18.653759390115738L30.483141243457794,18.815997436642647L30.766461223363876,18.951115742325783L31.061661012470722,19.05781327188015L31.36589766293764,19.135062411427498L31.676240876317024,19.182119108736515L32.449968330562115,19.22114173322916L32.91621158272028,19.288257837295532L33.37363128364086,19.40075059980154L33.81782220304012,19.55753669142723L34.244506411254406,19.75710605829954L34.64957480877638,19.9975368604064L35,20.255105175077915L35.408650517463684,20.620494179427624L35.69733875989914,20.939012557268143L35.9795643016696,21.31615463644266L36.22346443682909,21.71914354711771L36.42669031769037,22.14409840852022L36.58728477358818,22.586926631629467L36.70370116084814,23.04336354136467L36.77481830865145,23.509013280272484L36.79708818346262,23.921110048890114L36.77481830865145,24.490986712276936L36.70370116084814,24.95663645118475L36.59924940019846,25.37363128364086L36.44246330857277,25.817822203040123L36.24289394170046,26.244506411254406L36.0024631395936,26.64957480877638L35.723486460745335,27.02912636101246L35.408650517463684,27.379505813121796L35.06098744273186,27.69733875244856L34.68384534865618,27.979564286768436L34.28085643798113,28.22346442937851L33.85590157657862,28.426690310239792L33.41307336091995,28.58728475868702L32.95663645118475,28.70370115339756L32.490986712276936,28.774818301200867L32.078889943659306,28.79708816856146L31.509013280272484,28.774818301200867L31.04336354136467,28.70370115339756L30.626368708908558,28.59924939274788L30.182177789509296,28.44246330112219L29.755493581295013,28.242893926799297L29.35042517632246,28.00246313214302L28.97087363153696,27.723486453294754L28.620494179427624,27.408650510013103L28.30266124010086,27.060987427830696L28.020435698330402,26.683845348656178L27.77653556317091,26.28085643798113L27.573309682309628,25.855901576578617L27.41271522641182,25.413073360919952L27.29629883915186,24.95663645118475L27.225181691348553,24.490986712276936L27.182119108736515,23.676240876317024L27.139080442488194,23.3860976472497L27.063792012631893,23.081370271742344L26.95899759232998,22.785489678382874L26.82570631802082,22.501305289566517L26.66520205140114,22.231554329395294L26.479030407965183,21.97883442044258L26.268984347581863,21.745579421520233L26.037086717784405,21.534035727381706L25.785570800304413,21.34624060243368L25.516858749091625,21.184002548456192L25.233538769185543,21.048884250223637L24.938338980078697,20.94218672066927L24.63410232961178,20.86493758112192L24.323759108781815,20.817880876362324L23.509013280272484,20.774818301200867L23.04336354136467,20.70370115339756L22.626368708908558,20.59924939274788L22.182177789509296,20.44246330112219L21.755493581295013,20.242893926799297L21.35042517632246,20.00246313214302L20.97087363153696,19.723486453294754L20.620494179427624,19.408650510013103L20.30266124010086,19.060987427830696L20.020435698330402,18.683845348656178L19.77653556317091,18.28085643798113L19.573309682309628,17.855901576578617L19.41271522641182,17.413073360919952L19.29629883915186,16.95663645118475L19.225181691348553,16.490986712276936L19.20291181653738,16.07888998836279L19.225181691348553,15.509013280272484L19.29629883915186,15.04336354136467L19.40075059980154,14.626368708908558L19.55753669142723,14.182177789509296L19.75710605829954,13.755493581295013L19.9975368604064,13.35042517632246L20.276513539254665,12.97087363153696L20.591349482536316,12.620494179427624L20.939012557268143,12.30266124010086L21.31615463644266,12.020435698330402L21.71914354711771,11.77653556317091L22.14409840852022,11.573309682309628L22.586926631629467,11.41271522641182L23.04336354136467,11.29629883915186L23.509013280272484,11.225181691348553L23.92110999673605,11.20291181653738ZM23.696737699210644,12.815862111747265L23.3860976472497,12.860919550061226L23.081370271742344,12.936207979917526L22.785489678382874,13.04100240021944L22.501305289566517,13.174293667078018L22.231554329395294,13.334797941148281L21.97883442044258,13.520969577133656L21.745579421520233,13.731015637516975L21.534035727381706,13.962913267314434L21.34624060243368,14.214429192245007L21.184002548456192,14.483141243457794L21.048884250223637,14.766461223363876L20.94218672066927,15.061661012470722L20.86493758112192,15.365897662937641L20.817880876362324,15.676240861415863L20.801469698548317,15.98970191925764L20.815862111747265,16.303262293338776L20.860919550061226,16.61390233784914L20.936207979917526,16.918629720807076L21.04100240021944,17.214510306715965L21.174293667078018,17.498694702982903L21.33479794114828,17.768445663154125L21.520969577133656,18.02116557210684L21.731015637516975,18.254420571029186L21.962913267314434,18.465964257717133L22.214429192245007,18.653759390115738L22.483141243457794,18.815997436642647L22.766461223363876,18.951115742325783L23.061661012470722,19.05781327188015L23.36589766293764,19.135062411427498L23.676240876317024,19.182119108736515L24.449968330562115,19.22114173322916L24.91621158272028,19.288257837295532L25.37363128364086,19.40075059980154L25.817822203040123,19.55753669142723L26.244506411254406,19.75710605829954L26.64957480877638,19.9975368604064L27.02912636101246,20.276513539254665L27.379505813121796,20.591349482536316L27.69733875244856,20.939012557268143L27.979564286768436,21.31615463644266L28.22346442937851,21.71914354711771L28.426690310239792,22.14409840852022L28.58728475868702,22.586926631629467L28.70370115339756,23.04336354136467L28.774818301200867,23.509013280272484L28.815862119197845,24.303262300789356L28.860919550061226,24.61390233784914L28.936207979917526,24.918629720807076L29.04100240021944,25.214510306715965L29.174293667078018,25.498694702982903L29.33479794114828,25.768445663154125L29.520969577133656,26.02116557210684L29.731015637516975,26.254420571029186L29.962913267314434,26.465964257717133L30.214429192245007,26.653759390115738L30.483141243457794,26.815997436642647L30.766461223363876,26.951115742325783L31.061661012470722,27.05781327188015L31.36589766293764,27.135062411427498L31.676240891218185,27.182119123637676L31.98970191925764,27.198530286550522L32.30326230823994,27.184137873351574L32.61390233784914,27.139080442488194L32.918629720807076,27.063792012631893L33.214510306715965,26.95899759232998L33.4986947029829,26.82570631802082L33.768445663154125,26.66520205140114L34.02116557210684,26.479030407965183L34.254420571029186,26.268984347581863L34.46596425771713,26.037086717784405L34.65375939011574,25.785570800304413L34.81599743664265,25.516858749091625L34.95111574232578,25.233538769185543L35.05781327933073,24.938338980078697L35.13506241887808,24.63410232961178L35.18211913108826,24.323759101331234L35.19853028655052,24.01029808074236L35.184137880802155,23.696737676858902L35.139080449938774,23.3860976472497L35.063792020082474,23.081370271742344L34.95899759232998,22.785489678382874L34.82570631802082,22.501305289566517L34.66520205140114,22.231554329395294L34.47903040796518,21.97883442044258L34.26898434758186,21.745579421520233L34.037086717784405,21.534035727381706L33.78557080030441,21.34624060243368L33.516858749091625,21.184002548456192L33.23353876918554,21.048884250223637L32.9383389800787,20.94218672066927L32.63410232961178,20.86493758112192L32.323759108781815,20.817880876362324L31.509013280272484,20.774818301200867L31.04336354136467,20.70370115339756L30.626368708908558,20.59924939274788L30.182177789509296,20.44246330112219L29.755493581295013,20.242893926799297L29.35042517632246,20.00246313214302L28.97087363153696,19.723486453294754L28.620494179427624,19.408650510013103L28.30266124010086,19.060987427830696L28.020435698330402,18.683845348656178L27.77653556317091,18.28085643798113L27.573309682309628,17.855901576578617L27.41271522641182,17.413073360919952L27.29629883915186,16.95663645118475L27.225181691348553,16.490986712276936L27.182119108736515,15.676240876317024L27.139080442488194,15.386097647249699L27.063792012631893,15.081370271742344L26.95899759232998,14.785489678382874L26.82570631802082,14.501305289566517L26.66520205140114,14.231554329395294L26.479030407965183,13.978834420442581L26.268984347581863,13.745579421520233L26.037086717784405,13.534035727381706L25.785570800304413,13.346240602433681L25.516858749091625,13.184002548456192L25.233538769185543,13.048884250223637L24.938338980078697,12.94218672066927L24.63410232961178,12.864937581121922L24.323759131133556,12.817880876362324L24.01029808074236,12.801469698548317ZM40,12.801942378282547L39.696737706661224,12.815862111747265L39.38609766215086,12.860919550061226L39.081370279192924,12.936207979917526L38.785489693284035,13.04100240021944L38.5013052970171,13.174293667078018L38.231554336845875,13.334797941148281L37.97883442789316,13.520969577133656L37.745579428970814,13.731015637516975L37.53403574228287,13.962913267314434L37.34624060988426,14.214429192245007L37.18400256335735,14.483141243457794L37.04888425767422,14.766461223363876L36.94218672811985,15.061661012470722L36.8649375885725,15.365897662937641L36.817880891263485,15.676240861415863L36.80146969854832,15.98970191925764L36.815862119197845,16.303262293338776L36.86091955751181,16.61390233784914L36.93620798736811,16.918629720807076L37.04100240767002,17.214510306715965L37.17429368197918,17.498694702982903L37.33479794859886,17.768445663154125L37.52096959203482,18.02116557210684L37.73101565241814,18.254420571029186L37.962913282215595,18.465964257717133L38.21442919969559,18.653759390115738L38.483141250908375,18.815997436642647L38.76646123081446,18.951115742325783L39.0616610199213,19.05781327188015L39.36589767038822,19.135062411427498L39.676240898668766,19.182119123637676L40,19.19844777137041L40,20.80155222117901L39.550031661987305,20.77885825932026L39.08378841727972,20.711742147803307L38.62636871635914,20.59924939274788L38.18217779695988,20.44246330112219L37.755493588745594,20.242893926799297L37.35042519122362,20.00246313214302L36.97087363898754,19.723486453294754L36.620494186878204,19.408650510013103L36.30266124755144,19.060987427830696L36.020435713231564,18.683845348656178L35.77653557062149,18.28085643798113L35.57330968976021,17.855901576578617L35.41271524131298,17.413073360919952L35.29629884660244,16.95663645118475L35.22518169879913,16.490986712276936L35.20291183143854,16.07888998836279L35.22518169879913,15.509013280272484L35.29629884660244,15.04336354136467L35.40075060725212,14.626368708908558L35.55753669887781,14.182177789509296L35.7571060732007,13.755493581295013L35.99753686785698,13.35042517632246L36.276513546705246,12.97087363153696L36.5913494899869,12.620494179427624L36.939012572169304,12.30266124010086L37.31615465134382,12.020435698330402L37.71914356201887,11.77653556317091L38.14409842342138,11.573309682309628L38.58692663908005,11.41271522641182L39.04336354881525,11.29629883915186L39.509013287723064,11.225181691348553L40,11.205994710326195ZM8.490986712276936,3.2251816913485527L8.95663645118475,3.2962988391518593L9.373631283640862,3.4007505998015404L9.817822203040123,3.557536691427231L10.244506411254406,3.7571060582995415L10.649574808776379,3.9975368604063988L11.029126361012459,4.276513539254665L11.379505813121796,4.591349482536316L11.697338752448559,4.939012557268143L11.979564286768436,5.316154636442661L12.22346442937851,5.71914354711771L12.426690310239792,6.144098408520222L12.58728475868702,6.586926631629467L12.70370115339756,7.04336354136467L12.774818301200867,7.509013280272484L12.797088168561459,7.921110048890114L12.774818301200867,8.490986712276936L12.70370115339756,8.95663645118475L12.599249392747879,9.373631283640862L12.442463301122189,9.817822203040123L12.242893926799297,10.244506411254406L12.00246313214302,10.649574808776379L11.723486453294754,11.029126361012459L11.408650510013103,11.379505813121796L11.060987427830696,11.697338752448559L10.683845348656178,11.979564286768436L10.280856437981129,12.22346442937851L9.855901576578617,12.426690310239792L9.413073360919952,12.58728475868702L8.95663645118475,12.70370115339756L8.490986712276936,12.774818301200867L8.078889943659306,12.797088168561459L7.509013280272484,12.774818301200867L7.04336354136467,12.70370115339756L6.626368708908558,12.599249392747879L6.182177789509296,12.442463301122189L5.755493581295013,12.242893926799297L5.35042517632246,12.00246313214302L4.970873631536961,11.723486453294754L4.620494179427624,11.408650510013103L4.302661240100861,11.060987427830696L4.020435698330402,10.683845348656178L3.77653556317091,10.280856437981129L3.5733096823096275,9.855901576578617L3.4127152264118195,9.413073360919952L3.2962988391518593,8.95663645118475L3.2251816913485527,8.490986712276936L3.20291181653738,8.07888998836279L3.2251816913485527,7.509013280272484L3.2962988391518593,7.04336354136467L3.4007505998015404,6.626368708908558L3.557536691427231,6.182177789509296L3.7571060582995415,5.755493581295013L3.9975368604063988,5.35042517632246L4.276513539254665,4.970873631536961L4.591349482536316,4.620494179427624L4.939012557268143,4.302661240100861L5.316154636442661,4.020435698330402L5.71914354711771,3.77653556317091L6.144098408520222,3.5733096823096275L6.586926631629467,3.4127152264118195L7.04336354136467,3.2962988391518593L7.509013280272484,3.2251816913485527L7.92110999673605,3.20291181653738ZM36.77885826677084,0.4499683305621147L36.71174216270447,0.9162115827202797L36.59924940019846,1.3736312836408615L36.44246330857277,1.817822203040123L36.24289394170046,2.244506411254406L36.0024631395936,2.6495748087763786L35.723486460745335,3.029126361012459L35.408650517463684,3.3795058131217957L35.06098744273186,3.697338752448559L34.68384534865618,3.9795642867684364L34.28085643798113,4.2234644293785095L33.85590157657862,4.426690310239792L33.41307336091995,4.587284758687019L32.95663645118475,4.70370115339756L32.490986712276936,4.774818301200867L31.696737691760063,4.8158621191978455L31.3860976472497,4.860919550061226L31.081370271742344,4.936207979917526L30.785489678382874,5.0410024002194405L30.501305289566517,5.174293667078018L30.231554329395294,5.334797941148281L29.97883442044258,5.5209695771336555L29.745579421520233,5.731015637516975L29.534035727381706,5.962913267314434L29.34624060243368,6.214429192245007L29.184002548456192,6.483141243457794L29.048884250223637,6.766461223363876L28.94218672066927,7.061661012470722L28.86493758112192,7.365897662937641L28.817880876362324,7.676240861415863L28.801469698548317,7.989701919257641L28.815862111747265,8.303262293338776L28.860919550061226,8.61390233784914L28.936207979917526,8.918629720807076L29.04100240021944,9.214510306715965L29.174293667078018,9.498694702982903L29.33479794114828,9.768445663154125L29.520969577133656,10.021165572106838L29.731015637516975,10.254420571029186L29.962913267314434,10.465964257717133L30.214429192245007,10.653759390115738L30.483141243457794,10.815997436642647L30.766461223363876,10.951115742325783L31.061661012470722,11.05781327188015L31.36589766293764,11.135062411427498L31.676240891218185,11.182119123637676L31.98970191925764,11.198530286550522L32.30326230823994,11.184137873351574L32.61390233784914,11.139080442488194L32.918629720807076,11.063792012631893L33.214510306715965,10.958997592329979L33.4986947029829,10.82570631802082L33.768445663154125,10.665202051401138L34.02116557210684,10.479030407965183L34.254420571029186,10.268984347581863L34.46596425771713,10.037086717784405L34.65375939011574,9.785570800304413L34.81599743664265,9.516858749091625L34.95111574232578,9.233538769185543L35.05781327933073,8.938338980078697L35.13506241887808,8.634102329611778L35.182119123637676,8.323759108781815L35.22518169879913,7.509013280272484L35.29629884660244,7.04336354136467L35.40075060725212,6.626368708908558L35.55753669887781,6.182177789509296L35.7571060732007,5.755493581295013L35.99753686785698,5.35042517632246L36.276513546705246,4.970873631536961L36.5913494899869,4.620494179427624L36.939012572169304,4.302661240100861L37.31615465134382,4.020435698330402L37.71914356201887,3.77653556317091L38.14409842342138,3.5733096823096275L38.58692663908005,3.4127152264118195L39.04336354881525,3.2962988391518593L39.509013287723064,3.2251816913485527L40,3.1998093277215958L40,4.8001906499266624L39.696737706661224,4.815862111747265L39.38609766215086,4.860919550061226L39.081370279192924,4.936207979917526L38.785489693284035,5.0410024002194405L38.5013052970171,5.174293667078018L38.231554336845875,5.334797941148281L37.97883442789316,5.5209695771336555L37.745579428970814,5.731015637516975L37.53403574228287,5.962913267314434L37.34624060988426,6.214429192245007L37.18400256335735,6.483141243457794L37.04888425767422,6.766461223363876L36.94218672811985,7.061661012470722L36.8649375885725,7.365897662937641L36.817880891263485,7.676240876317024L36.77885826677084,8.449968330562115L36.71174216270447,8.91621158272028L36.59924940019846,9.373631283640862L36.44246330857277,9.817822203040123L36.24289394170046,10.244506411254406L36.0024631395936,10.649574808776379L35.723486460745335,11.029126361012459L35.408650517463684,11.379505813121796L35.06098744273186,11.697338752448559L34.68384534865618,11.979564286768436L34.28085643798113,12.22346442937851L33.85590157657862,12.426690310239792L33.41307336091995,12.58728475868702L32.95663645118475,12.70370115339756L32.490986712276936,12.774818301200867L32.078889943659306,12.797088168561459L31.509013280272484,12.774818301200867L31.04336354136467,12.70370115339756L30.626368708908558,12.599249392747879L30.182177789509296,12.442463301122189L29.755493581295013,12.242893926799297L29.35042517632246,12.00246313214302L28.97087363153696,11.723486453294754L28.620494179427624,11.408650510013103L28.30266124010086,11.060987427830696L28.020435698330402,10.683845348656178L27.77653556317091,10.280856437981129L27.573309682309628,9.855901576578617L27.41271522641182,9.413073360919952L27.29629883915186,8.95663645118475L27.225181691348553,8.490986712276936L27.20291181653738,8.07888998836279L27.225181691348553,7.509013280272484L27.29629883915186,7.04336354136467L27.40075059980154,6.626368708908558L27.55753669142723,6.182177789509296L27.75710605829954,5.755493581295013L27.9975368604064,5.35042517632246L28.276513539254665,4.970873631536961L28.591349482536316,4.620494179427624L28.939012557268143,4.302661240100861L29.31615463644266,4.020435698330402L29.71914354711771,3.77653556317091L30.14409840852022,3.5733096823096275L30.586926631629467,3.4127152264118195L31.04336354136467,3.2962988391518593L31.509013280272484,3.2251816913485527L32.323759108781815,3.182119108736515L32.61390233784914,3.1390804424881935L32.918629720807076,3.063792012631893L33.214510306715965,2.958997592329979L33.4986947029829,2.8257063180208206L33.768445663154125,2.6652020514011383L34.02116557210684,2.4790304079651833L34.254420571029186,2.2689843475818634L34.46596425771713,2.0370867177844048L34.65375939011574,1.7855708003044128L34.81599743664265,1.5168587490916252L34.95111574232578,1.233538769185543L35.05781327933073,0.9383389800786972L35.13506241887808,0.6341023296117783L35.18211913108826,0.323759101331234L35.19844777882099,0L36.80155222862959,0ZM7.696737699210644,4.815862111747265L7.386097647249699,4.860919550061226L7.081370271742344,4.936207979917526L6.7854896783828735,5.0410024002194405L6.501305289566517,5.174293667078018L6.231554329395294,5.334797941148281L5.978834420442581,5.5209695771336555L5.745579421520233,5.731015637516975L5.534035727381706,5.962913267314434L5.3462406024336815,6.214429192245007L5.184002548456192,6.483141243457794L5.048884250223637,6.766461223363876L4.94218672066927,7.061661012470722L4.8649375811219215,7.365897662937641L4.817880876362324,7.676240861415863L4.801469698548317,7.989701919257641L4.815862111747265,8.303262293338776L4.860919550061226,8.61390233784914L4.936207979917526,8.918629720807076L5.0410024002194405,9.214510306715965L5.174293667078018,9.498694702982903L5.334797941148281,9.768445663154125L5.5209695771336555,10.021165572106838L5.731015637516975,10.254420571029186L5.962913267314434,10.465964257717133L6.214429192245007,10.653759390115738L6.483141243457794,10.815997436642647L6.766461223363876,10.951115742325783L7.061661012470722,11.05781327188015L7.365897662937641,11.135062411427498L7.676240891218185,11.182119123637676L7.989701919257641,11.198530286550522L8.303262308239937,11.184137873351574L8.61390233784914,11.139080442488194L8.918629720807076,11.063792012631893L9.214510306715965,10.958997592329979L9.498694702982903,10.82570631802082L9.768445663154125,10.665202051401138L10.021165572106838,10.479030407965183L10.254420571029186,10.268984347581863L10.465964257717133,10.037086717784405L10.653759390115738,9.785570800304413L10.815997436642647,9.516858749091625L10.951115742325783,9.233538769185543L11.05781327188015,8.938338980078697L11.135062411427498,8.634102329611778L11.182119123637676,8.323759101331234L11.198530286550522,8.01029808074236L11.184137873351574,7.696737676858902L11.139080442488194,7.386097647249699L11.063792012631893,7.081370271742344L10.958997592329979,6.7854896783828735L10.82570631802082,6.501305289566517L10.665202051401138,6.231554329395294L10.479030407965183,5.978834420442581L10.268984347581863,5.745579421520233L10.037086717784405,5.534035727381706L9.785570800304413,5.3462406024336815L9.516858749091625,5.184002548456192L9.233538769185543,5.048884250223637L8.938338980078697,4.94218672066927L8.634102329611778,4.8649375811219215L8.323759131133556,4.817880876362324L8.01029808074236,4.801469698548317ZM4.774818301200867,0.4909867122769356L4.70370115339756,0.9566364511847496L4.599249392747879,1.3736312836408615L4.442463301122189,1.817822203040123L4.242893926799297,2.244506411254406L4.002463132143021,2.6495748087763786L3.723486453294754,3.029126361012459L3.4086505100131035,3.3795058131217957L3.060987427830696,3.697338752448559L2.6838453486561775,3.9795642867684364L2.2808564379811287,4.2234644293785095L1.855901576578617,4.426690310239792L1.4130733609199524,4.587284758687019L0.9566364511847496,4.70370115339756L0.4909867122769356,4.774818301200867L0,4.8001906499266624L0,3.1998093277215958L0.30326230823993683,3.184137873351574L0.6139023378491402,3.1390804424881935L0.9186297208070755,3.063792012631893L1.2145103067159653,2.958997592329979L1.4986947029829025,2.8257063180208206L1.7684456631541252,2.6652020514011383L2.0211655721068382,2.4790304079651833L2.2544205710291862,2.2689843475818634L2.4659642577171326,2.0370867177844048L2.653759390115738,1.7855708003044128L2.815997436642647,1.5168587490916252L2.9511157423257828,1.233538769185543L3.05781327188015,0.9383389800786972L3.135062411427498,0.6341023296117783L3.1821191236376762,0.323759101331234L3.198530286550522,0.010298080742359161L3.198057606816292,0L4.794005274772644,0ZM12.815862119197845,0.303262323141098L12.860919550061226,0.6139023378491402L12.936207979917526,0.9186297208070755L13.04100240021944,1.2145103067159653L13.174293667078018,1.4986947029829025L13.334797941148281,1.7684456631541252L13.520969577133656,2.0211655721068382L13.731015637516975,2.2544205710291862L13.962913267314434,2.4659642577171326L14.214429192245007,2.653759390115738L14.483141243457794,2.815997436642647L14.766461223363876,2.9511157423257828L15.061661012470722,3.05781327188015L15.365897662937641,3.135062411427498L15.676240891218185,3.1821191236376762L15.98970191925764,3.198530286550522L16.303262308239937,3.184137873351574L16.61390233784914,3.1390804424881935L16.918629720807076,3.063792012631893L17.214510306715965,2.958997592329979L17.498694702982903,2.8257063180208206L17.768445663154125,2.6652020514011383L18.02116557210684,2.4790304079651833L18.254420571029186,2.2689843475818634L18.465964257717133,2.0370867177844048L18.653759390115738,1.7855708003044128L18.815997436642647,1.5168587490916252L18.951115742325783,1.233538769185543L19.05781327188015,0.9383389800786972L19.135062411427498,0.6341023296117783L19.182119123637676,0.323759101331234L19.198530286550522,0.010298080742359161L19.198057606816292,0L20.794005274772644,0L20.774818301200867,0.4909867122769356L20.70370115339756,0.9566364511847496L20.59924939274788,1.3736312836408615L20.44246330112219,1.817822203040123L20.242893926799297,2.244506411254406L20.00246313214302,2.6495748087763786L19.723486453294754,3.029126361012459L19.408650510013103,3.3795058131217957L19.060987427830696,3.697338752448559L18.683845348656178,3.9795642867684364L18.28085643798113,4.2234644293785095L17.855901576578617,4.426690310239792L17.413073360919952,4.587284758687019L16.95663645118475,4.70370115339756L16.490986712276936,4.774818301200867L16.078889943659306,4.797088168561459L15.509013280272484,4.774818301200867L15.04336354136467,4.70370115339756L14.626368708908558,4.599249392747879L14.182177789509296,4.442463301122189L13.755493581295013,4.242893926799297L13.35042517632246,4.002463132143021L12.97087363153696,3.723486453294754L12.620494179427624,3.4086505100131035L12.30266124010086,3.060987427830696L12.020435698330402,2.6838453486561775L11.77653556317091,2.2808564379811287L11.573309682309628,1.855901576578617L11.41271522641182,1.4130733609199524L11.29629883915186,0.9566364511847496L11.225181691348553,0.4909867122769356L11.199809335172176,0L12.800190657377243,0Z"/></defs><rect width="100%" height="100%" fill="white"/><g fill="#203448" fill-rule="evenodd"><use transform="translate(0,0)" href="#tile"/><use transform="translate(40,0)" href="#tile"/><use transform="translate(80,0)" href="#tile"/><use transform="translate(0,40)" href="#tile"/><use transform="translate(40,40)" href="#tile"/><use transform="translate(80,40)" href="#tile"/><use transform="translate(0,80)" href="#tile"/><use transform="translate(40,80)" href="#tile"/><use transform="translate(80,80)" href="#tile"/></g><path d="M40,0V120M80,0V120M0,40H120M0,80H120" stroke="#ec4661" stroke-width="0.13333333333333333" stroke-dasharray="0.4" fill="none"/></svg>