<svg xmlns="http://www.w3.org/2000/svg" viewBox="0 0 426 106.5" width="900" height="900"><title>diamondLattice cleanup 0.84</title><defs><path id="tile" d="M10.559396959841251,26.7342212125659L10.713987290859222,26.788600720465183L16.02937489748001,30.782118909060955L16.078065939247608,30.848512701690197L16.132445447146893,31.003103032708168L16.136044152081013,31.08535873889923L16.095373280346394,31.24410753697157L16.052666656672955,31.314499996602535L15.968666657805443,31.398500002920628L12.635177657008171,33.899999998509884L12.630016662180424,33.899999998509884L10.503023982048035,35.5L1.3303092569112778,35.5L0.7999999970197678,35.10231401771307L0.7999999970197678,27.031240917742252L1.1268858015537262,26.789651684463024L1.1815019994974136,26.76045871526003L1.21182069927454,26.749426670372486L1.2399085685610771,26.74255095422268L1.333333320915699,26.7374587059021L1.4145127460360527,26.741883508861065L1.5299044847488403,26.78247431665659L1.6000000014901161,26.83485033363104L1.6000000014901161,26.82804401218891L5.916791468858719,30.060210213065147L10.31839244812727,26.771293379366398L10.477141253650188,26.73062250763178ZM17.809396967291832,32.1717212125659L17.963987298309803,32.22610072046518L21.925540551543236,35.204207219183445L21.96003967523575,35.23870634287596L21.981201402843,35.26756191253662L21.997957676649094,35.295180931687355L22.021735079586506,35.3627754598856L22.05171074718237,35.5L13.44828923791647,35.5L13.478264905512333,35.362775444984436L13.502042315900326,35.295180924236774L13.518798552453518,35.267561957240105L13.539960332214832,35.238706320524216L13.574459418654442,35.204207234084606L15.309349171817303,33.899999998509884L15.305752955377102,33.899999998509884L17.56839246302843,32.2087933793664L17.72714126110077,32.16812250763178ZM25.059396967291832,26.734221197664738L25.213987298309803,26.788600713014603L29.58345814794302,30.060210213065147L33.98505911976099,26.771293379366398L34.14380791783333,26.73062250763178L34.22606363147497,26.7342212125659L34.38065396249294,26.788600720465183L39.69604156911373,30.782118909060955L39.74473261088133,30.848512701690197L39.79911211878061,31.003103032708168L39.802710831165314,31.08535873889923L39.762039959430695,31.24410753697157L39.719333343207836,31.314499996602535L39.635333336889744,31.398500002920628L36.30184432864189,33.899999998509884L36.296683333814144,33.899999998509884L34.169690653681755,35.5L24.996976003050804,35.5L19.470625087618828,31.342881090939045L19.42193405330181,31.276487298309803L19.367554537951946,31.121896967291832L19.363955840468407,31.03964126110077L19.404626712203026,30.88089246302843L19.447333328425884,30.810500003397465L19.531333327293396,30.726499997079372L24.81839246302843,26.771293371915817L24.97714126110077,26.730622500181198ZM41.47606363147497,32.1717212125659L41.63065396249294,32.22610072046518L45.592207215726376,35.204207219183445L45.62670632451773,35.23870633542538L45.6478680819273,35.26756194233894L45.66462432593107,35.295180924236774L45.688401736319065,35.362775444984436L45.71837741136551,35.5L37.12079204618931,35.5L37.12521683424711,35.41882058233023L37.16577074676752,35.3035337254405L37.239153400063515,35.20569019764662L38.97601582854986,33.899999998509884L38.973998457193375,33.899999998509884L41.23505911976099,32.2087933793664L41.39380791783333,32.16812250763178ZM48.72606363147497,26.734221197664738L48.88065396249294,26.788600713014603L53.25012481212616,30.060210213065147L57.65172577649355,26.771293379366398L57.81047458201647,26.73062250763178L57.89273028820753,26.7342212125659L58.0473206192255,26.788600720465183L58.77937489748001,27.344618909060955L58.86286859959364,27.48562990874052L58.88604415208101,27.64785873889923L58.845373280346394,27.80660753697157L58.802666656672955,27.876999996602535L58.71866665780544,27.961000002920628L54.58619073033333,31.062625020742416L58.75877970457077,34.20411305129528L58.79337302595377,34.23870637267828L58.814534686505795,34.267561838030815L58.831291012465954,34.2951809540391L58.86123598366976,34.38030866533518L58.883632101118565,34.46772640943527L58.88504407554865,34.49999999254942L58.883632093667984,34.53227357566357L58.86123599112034,34.61969128996134L58.83129100501537,34.7048190459609L58.814534708857536,34.73243810981512L58.79337302595377,34.76129361242056L58.75789163261652,34.79677500575781L57.836356826126575,35.5L48.663642667233944,35.5L43.13729175180197,31.342881090939045L43.08860071003437,31.276487298309803L43.034221202135086,31.121896967291832L43.030622497200966,31.03964126110077L43.071293368935585,30.88089246302843L43.113999992609024,30.810500003397465L43.197999991476536,30.726499997079372L48.48505911976099,26.771293371915817L48.64380791783333,26.730622500181198ZM93.39273030310869,26.7342212125659L93.54732062667608,26.788600720465183L98.86270824074745,30.782118909060955L98.91139928251505,30.848512701690197L98.96577879041433,31.003103032708168L98.95685975253582,31.166736006736755L98.92870662361383,31.24410753697157L98.83038108795881,31.375208236277103L95.46748013794422,33.899999998509884L95.4633499532938,33.899999998509884L93.33635724335909,35.5L84.1634489223361,35.5L83.23952734470367,34.79480840265751L83.165770791471,34.69646634161472L83.12521683424711,34.58117936551571L83.12079204618931,34.50000008940697L83.12521684914827,34.418820552527905L83.15219485759735,34.342127330601215L83.1926516070962,34.25776278227568L83.2097527012229,34.234444193542004L83.22936074435711,34.21304193884134L83.64514949917793,33.899999998509884L83.63548399508,33.899999998509884L87.41380926221609,31.062374979257584L83.22062508016825,27.905381083488464L83.17193403840065,27.838987290859222L83.11755453050137,27.68439695984125L83.12647356837988,27.520763978362083L83.15462669730186,27.44339244812727L83.25295223295689,27.312291748821735L83.98505911976099,26.771293379366398L84.14380791783333,26.73062250763178L84.3060367628932,26.753798060119152L84.38065396249294,26.788600727915764L88.75012481212616,30.060210213065147L93.15172579139471,26.771293379366398L93.31047458946705,26.73062250763178ZM100.64273030310869,32.1717212125659L100.79732062667608,32.22610072046518L104.75887389481068,35.204207219183445L104.79337300360203,35.23870633542538L104.8145347610116,35.26756194233894L104.83129100501537,35.295180924236774L104.85506841540337,35.362775444984436L104.88504409044981,35.5L96.28745872527361,35.5L96.29188351333141,35.41882058233023L96.33243742585182,35.3035337254405L96.40582007914782,35.20569019764662L98.14268250018358,33.899999998509884L98.14066513627768,33.899999998509884L100.40172579139471,32.2087933793664L100.56047458946705,32.16812250763178ZM117.05939695984125,26.7342212125659L117.21398729085922,26.788600720465183L122.52937489748001,30.782118909060955L122.57806593924761,30.848512701690197L122.63244544714689,31.003103032708168L122.63604415208101,31.08535873889923L122.5953732803464,31.24410753697157L122.55266665667295,31.314499996602535L122.46866665780544,31.398500002920628L119.13517765700817,33.899999998509884L119.13001666218042,33.899999998509884L117.00302398204803,35.5L107.83030933141708,35.5L102.30395842343569,31.342881090939045L102.25526738166809,31.276487298309803L102.20088786631823,31.121896967291832L102.19728916883469,31.03964126110077L102.2379600405693,30.88089246302843L102.28066665679216,30.810500003397465L102.36466666311026,30.726499997079372L107.65172577649355,26.771293379366398L107.81047458201647,26.73062250763178L107.89273028820753,26.7342212125659L108.0473206192255,26.788600720465183L112.41679146885872,30.060210213065147L116.81839244812727,26.771293379366398L116.97714125365019,26.73062250763178ZM124.30939696729183,32.1717212125659L124.4639872983098,32.22610072046518L128.42554055154324,35.204207219183445L128.46003967523575,35.23870634287596L128.481201402843,35.26756191253662L128.4979576766491,35.295180931687355L128.5217350795865,35.3627754598856L128.55171074718237,35.5L119.94828923791647,35.5L119.97826490551233,35.362775444984436L120.00204231590033,35.295180924236774L120.01879855245352,35.267561957240105L120.03996033221483,35.238706320524216L120.07445941865444,35.204207234084606L121.8093491718173,33.899999998509884L121.8057529553771,33.899999998509884L124.06839246302843,32.2087933793664L124.22714126110077,32.16812250763178ZM131.55939696729183,26.734221197664738L131.7139872983098,26.788600713014603L136.08345814794302,30.060210213065147L140.47009550780058,26.78247431665659L140.58548724651337,26.741883508861065L140.66666667163372,26.7374587059021L140.76009142398834,26.74255095422268L140.78817929327488,26.749426670372486L140.818497993052,26.76045871526003L140.8731141909957,26.789651684463024L141.20000000298023,27.031240917742252L141.20000000298023,34.89761662483215L141.20000000298023,35.10231401771307L140.66969074308872,35.5L131.4969760030508,35.5L125.97062508761883,31.342881090939045L125.92193405330181,31.276487298309803L125.86755453795195,31.121896967291832L125.8639558404684,31.03964126110077L125.90462671220303,30.88089246302843L125.94733332842588,30.810500003397465L126.0313333272934,30.726499997079372L131.31839246302843,26.771293371915817L131.47714126110077,26.730622500181198ZM65.14273030310869,23.2967212125659L65.29732062667608,23.351100720465183L70.61270823329687,27.344618901610374L70.66139926016331,27.411012686789036L70.71577878296375,27.565603017807007L70.71937748044729,27.64785873144865L70.67870660871267,27.80660752952099L70.63599999248981,27.876999989151955L70.5519999936223,27.960999988019466L66.41952405124903,31.062625020742416L70.20000000298023,33.90889623761177L70.20000000298023,35.09384595602751L70.15356558561325,35.12911434471607L69.86368774622679,35.34236741065979L69.7478460893035,35.383116483688354L69.66666665673256,35.38754128664732L69.57324190437794,35.38244903832674L69.54515405744314,35.375573329627514L69.51483532041311,35.36454126983881L69.46117052435875,35.33585684001446L67.53954428434372,33.899999998509884L67.53195203095675,33.899999998509884L65.0832085236907,32.06478978693485L60.70549614727497,35.3358568251133L60.663350991904736,35.358383879065514L60.54085102677345,35.38976792991161L60.41882061958313,35.383116491138935L60.30297885835171,35.34236738085747L60.013102285563946,35.129115253686905L59.575122594833374,34.796455934643745L59.539960354566574,34.761293694376945L59.518798522651196,34.73243799060583L59.502042323350906,34.704819075763226L59.4720973148942,34.61969128996134L59.451898731291294,34.540851056575775L59.45855017751455,34.418820567429066L59.485528223216534,34.34212725609541L59.52598491311073,34.25776281952858L59.54308607429266,34.23444414138794L59.56269406527281,34.213041953742504L59.97848282754421,33.899999998509884L59.968817323446274,33.899999998509884L63.74714259803295,31.062374979257584L59.55395842343569,27.905381090939045L59.50526738166809,27.838987298309803L59.450887866318226,27.684396967291832L59.447289168834686,27.60214126110077L59.487960040569305,27.44339246302843L59.530666656792164,27.373000003397465L59.614666663110256,27.288999997079372L64.90172579139471,23.333793379366398L65.06047458946705,23.29312250763178ZM76.97606363147497,23.2967212125659L77.13065396249294,23.351100720465183L82.44604156166315,27.344618909060955L82.49473260343075,27.411012701690197L82.54911211133003,27.565603032708168L82.54019307345152,27.729236006736755L82.4693333208561,27.876999996602535L82.41371440887451,27.937708236277103L78.25285738706589,31.062625020742416L82.43730580806732,34.213041856884956L82.45691405981779,34.234444335103035L82.47401499003172,34.25776270031929L82.51447182148695,34.3421274125576L82.5414498001337,34.418820545077324L82.54810123890638,34.54085109382868L82.52790269255638,34.61969118565321L82.49795765429735,34.704819083213806L82.48120143264532,34.73243802040815L82.46003966033459,34.76129364967346L82.42487731575966,34.79645599424839L81.98689871281385,35.1291144862771L81.69702105224133,35.34236741811037L81.61969141662121,35.369569301605225L81.54085101187229,35.38976792246103L81.45958526432514,35.38533842563629L81.37025108188391,35.372576393187046L81.33989395201206,35.36153036355972L81.31054000556469,35.34783921390772L79.37287760525942,33.899999998509884L79.36759766936302,33.899999998509884L76.91654183715582,32.06478978693485L72.53882949054241,35.335856817662716L72.49668432027102,35.358383879065514L72.37418436259031,35.38976792991161L72.25215394794941,35.383116491138935L72.13644337654114,35.342413529753685L71.79999999701977,35.09379501640797L71.79999999701977,33.90889625251293L71.81181618571281,33.899999998509884L71.8021506741643,33.899999998509884L75.58047594130039,31.062374979257584L71.38729175925255,27.905381083488464L71.33860071748495,27.838987290859222L71.28422120958567,27.68439695984125L71.29314024746418,27.520763978362083L71.32129337638617,27.44339244812727L71.41961891204119,27.312291748821735L76.73505911976099,23.333793379366398L76.89380791783333,23.29312250763178ZM22.39273028820753,17.8592212125659L22.547320619225502,17.913600720465183L23.27937489748001,18.469618909060955L23.36286859959364,18.61062990874052L23.386044152081013,18.77285873889923L23.345373280346394,18.93160753697157L23.302666656672955,19.001999996602535L23.218666657805443,19.086000002920628L19.08619073033333,22.187625013291836L23.27937489748001,25.344618901610374L23.328065939247608,25.411012686789036L23.382445447146893,25.565603017807007L23.386044152081013,25.64785873144865L23.345373280346394,25.80660752952099L23.302666656672955,25.876999989151955L23.218666657805443,25.960999988019466L17.93160752952099,29.91620661318302L17.854235999286175,29.944359742105007L17.690603017807007,29.95327877998352L17.61062990128994,29.933701932430267L17.497999988496304,29.873499989509583L12.220625087618828,25.905381083488464L12.171934053301811,25.838987290859222L12.117554537951946,25.68439695984125L12.12647358328104,25.520763978362083L12.197333328425884,25.372999988496304L12.252952240407467,25.312291748821735L16.41380926221609,22.187374979257584L12.220625080168247,19.030381083488464L12.17193403840065,18.963987290859222L12.117554530501366,18.80939695984125L12.126473568379879,18.645763978362083L12.154626697301865,18.56839244812727L12.252952232956886,18.437291748821735L12.98505911976099,17.896293379366398L13.143807917833328,17.85562250763178L13.3060367628932,17.878798060119152L13.380653962492943,17.913600727915764L17.75012481212616,21.185210213065147L22.15172577649355,17.896293379366398L22.310474582016468,17.85562250763178ZM46.21398729085922,17.913600713014603L46.94604156166315,18.469618909060955L46.99473260343075,18.536012709140778L47.04911211133003,18.69060304015875L47.04019307345152,18.854236006736755L46.969333320856094,19.001999996602535L46.91371440887451,19.062708236277103L42.75285738706589,22.187625013291836L46.94604156166315,25.344618901610374L46.99473260343075,25.411012686789036L47.04911211133003,25.565603017807007L47.04019307345152,25.729235999286175L46.969333320856094,25.876999989151955L46.91371440887451,25.937708228826523L41.59827419370413,29.91620661318302L41.520902663469315,29.944359742105007L41.35726968199015,29.95327877998352L41.2772965580225,29.933701932430267L41.16466665267944,29.873499989509583L35.88729175925255,25.905381090939045L35.83860071748495,25.838987298309803L35.78422120958567,25.684396967291832L35.79314024746418,25.520763993263245L35.821293376386166,25.44339246302843L35.91961891204119,25.312291763722897L40.08047594130039,22.187374979257584L35.88729175925255,19.030381083488464L35.83860071748495,18.963987290859222L35.78422120958567,18.80939695984125L35.79314024746418,18.645763978362083L35.821293376386166,18.56839244812727L35.91961891204119,18.437291748821735L36.65172576904297,17.896293379366398L36.72909730672836,17.86814024299383L36.89273028820753,17.859221197664738L36.97270341217518,17.87879805266857L37.085333317518234,17.938999988138676L41.41679146885872,21.185210213065147L45.81839244812727,17.896293371915817L45.89576397836208,17.86814024299383L46.05939695984125,17.859221197664738ZM105.38065396249294,17.913600713014603L106.11270823329687,18.469618901610374L106.16139926761389,18.536012686789036L106.21577878296375,18.690603017807007L106.20685973763466,18.854235999286175L106.13599999248981,19.001999989151955L106.08038108050823,19.062708228826523L101.91952405124903,22.187625013291836L106.11270823329687,25.344618909060955L106.16139926761389,25.411012701690197L106.21577878296375,25.565603032708168L106.21937748044729,25.64785873889923L106.17870660871267,25.80660753697157L106.13599999248981,25.876999996602535L106.0519999936223,25.961000002920628L100.76494087278843,29.91620661318302L100.68756934255362,29.944359742105007L100.52393636107445,29.95327877998352L100.4439632371068,29.933701932430267L100.33133333176374,29.873499989509583L95.05395842343569,25.905381083488464L95.00526738166809,25.838987290859222L94.95088786631823,25.68439695984125L94.95980691164732,25.520763978362083L95.03066665679216,25.372999988496304L95.08628556877375,25.312291748821735L99.24714259803295,22.187374979257584L95.05395842343569,19.030381090939045L95.00526738166809,18.963987298309803L94.95088786631823,18.809396967291832L94.94728916883469,18.72714126110077L94.9879600405693,18.56839246302843L95.03066665679216,18.498000003397465L95.11466666311026,18.413999997079372L95.81839244067669,17.896293379366398L95.89576397836208,17.86814024299383L96.05939695239067,17.859221197664738L96.13937007635832,17.87879805266857L96.25199998915195,17.938999988138676L100.58345814794302,21.185210213065147L104.98505911976099,17.896293379366398L105.0624306499958,17.86814024299383L105.22606363147497,17.859221197664738ZM128.89273028820753,17.8592212125659L129.0473206192255,17.913600720465183L129.77937489748,18.469618909060955L129.86286859959364,18.61062990874052L129.886044152081,18.77285873889923L129.8453732803464,18.93160753697157L129.80266665667295,19.001999996602535L129.71866665780544,19.086000002920628L125.58619073033333,22.187625013291836L129.77937489748,25.344618901610374L129.8280659392476,25.411012686789036L129.8824454471469,25.565603017807007L129.886044152081,25.64785873144865L129.8453732803464,25.80660752952099L129.80266665667295,25.876999989151955L129.71866665780544,25.960999988019466L124.43160752952099,29.91620661318302L124.35423599928617,29.944359742105007L124.190603017807,29.95327877998352L124.11062990128994,29.933701932430267L123.9979999884963,29.873499989509583L118.72062508761883,25.905381083488464L118.67193405330181,25.838987290859222L118.61755453795195,25.68439695984125L118.62647358328104,25.520763978362083L118.69733332842588,25.372999988496304L118.75295224040747,25.312291748821735L122.91380926221609,22.187374979257584L118.72062508016825,19.030381083488464L118.67193403840065,18.963987290859222L118.61755453050137,18.80939695984125L118.62647356837988,18.645763978362083L118.65462669730186,18.56839244812727L118.75295223295689,18.437291748821735L119.48505911976099,17.896293379366398L119.64380791783333,17.85562250763178L119.8060367628932,17.878798060119152L119.88065396249294,17.913600727915764L124.25012481212616,21.185210213065147L128.65172577649355,17.896293379366398L128.81047458201647,17.85562250763178ZM34.38065396249294,17.913600713014603L35.11270823329687,18.469618901610374L35.16139926761389,18.536012686789036L35.21577878296375,18.690603017807007L35.20685973763466,18.854235999286175L35.135999992489815,19.001999989151955L35.08038108050823,19.062708228826523L30.919524051249027,22.187625013291836L35.11270823329687,25.344618901610374L35.16139926761389,25.411012686789036L35.21577878296375,25.565603017807007L35.21937748044729,25.64785873144865L35.17870660871267,25.80660752952099L35.135999992489815,25.876999989151955L35.0519999936223,25.960999988019466L34.34827420860529,26.47870661318302L34.18952541053295,26.51937749236822L34.02729657292366,26.496201939880848L33.95267937332392,26.461399279534817L29.5832085236907,23.189789779484272L25.18160753697157,26.47870661318302L25.104236006736755,26.506859742105007L24.940603032708168,26.51577877998352L24.86062990874052,26.496201932430267L24.748000003397465,26.435999989509583L24.053958408534527,25.905381090939045L23.9704647064209,25.76437009125948L23.950887858867645,25.68439695984125L23.95980689674616,25.520763993263245L23.987960033118725,25.44339244812727L24.086285546422005,25.312291748821735L28.24714259803295,22.187374979257584L24.053958423435688,19.030381090939045L24.00526738166809,18.963987298309803L23.950887866318226,18.809396967291832L23.947289168834686,18.72714126110077L23.987960040569305,18.56839246302843L24.030666656792164,18.498000003397465L24.114666663110256,18.413999997079372L24.81839244067669,17.896293379366398L24.895763978362083,17.86814024299383L25.05939695239067,17.859221197664738L25.13937007635832,17.87879805266857L25.251999989151955,17.938999988138676L29.58345814794302,21.185210213065147L33.98505911976099,17.896293379366398L34.062430649995804,17.86814024299383L34.22606363147497,17.859221197664738ZM10.713987290859222,17.913600713014603L11.44604156166315,18.469618909060955L11.494732603430748,18.536012709140778L11.549112111330032,18.69060304015875L11.540193073451519,18.854236006736755L11.469333320856094,19.001999996602535L11.413714408874512,19.062708236277103L7.2528573870658875,22.187625013291836L11.446041569113731,25.344618901610374L11.494732610881329,25.411012686789036L11.549112118780613,25.565603017807007L11.552710823714733,25.64785873144865L11.512039951980114,25.80660752952099L11.469333328306675,25.876999989151955L11.385333329439163,25.960999988019466L10.681607522070408,26.47870661318302L10.604235976934433,26.506859742105007L10.440603010356426,26.51577877998352L10.360629878938198,26.496201932430267L10.247999981045723,26.435999989509583L5.916541837155819,23.189789779484272L1.5227932706475258,26.4728392213583L1.4934394508600235,26.48653031885624L1.4630821719765663,26.497576400637627L1.3737482205033302,26.51033839583397L1.2924822121858597,26.51476790755987L1.1699823588132858,26.483383879065514L1.1268733218312263,26.46034161746502L0.7999999970197678,26.218794994056225L0.7999999970197678,26.02249139547348L0.5404702797532082,26.02249139547348L0.4062364920973778,25.919864997267723L0.3569843992590904,25.854195557534695L0.3093145117163658,25.77368675917387L0.3024235740303993,25.754748813807964L0.28966158628463745,25.665414914488792L0.2852320745587349,25.58414889127016L0.3155626580119133,25.465760871767998L0.3799039274454117,25.357096061110497L0.40788692981004715,25.32911305874586L1.6000000014901161,24.431586623191833L1.6000000014901161,24.42436772584915L4.580475941300392,22.187374979257584L0.39602746814489365,19.0369580835104L0.3764193281531334,19.01555572450161L0.3593182936310768,18.992237217724323L0.31886154413223267,18.907872669398785L0.29188351333141327,18.831179402768612L0.28745871782302856,18.74999998509884L0.29188351333141327,18.668820567429066L0.3324374184012413,18.55353371053934L0.33508771657943726,18.549999997019768L1.6000000014901161,18.549999997019768L1.6000000014901161,17.949991926550865L5.916791468858719,21.185210213065147L10.31839244812727,17.896293371915817L10.395763978362083,17.86814024299383L10.559396959841251,17.859221197664738ZM57.89273028820753,17.8592212125659L58.0473206192255,17.913600720465183L63.36270823329687,21.907118901610374L63.41139926761389,21.973512686789036L63.46577878296375,22.128103017807007L63.46937748044729,22.21035873144865L63.42870660871267,22.36910752952099L63.385999992489815,22.439499989151955L63.3019999936223,22.523499988019466L58.01494085788727,26.47870661318302L57.937569327652454,26.506859742105007L57.77393635362387,26.51577877998352L57.69396322965622,26.496201932430267L57.58133331686258,26.435999989509583L53.24987518042326,23.189789779484272L48.84827420115471,26.47870661318302L48.770902670919895,26.506859742105007L48.60726968944073,26.51577877998352L48.52729657292366,26.496201932430267L48.414666660130024,26.435999989509583L47.72062508016825,25.905381083488464L47.63713137805462,25.76437007635832L47.617554530501366,25.68439695984125L47.62647356837988,25.520763978362083L47.654626697301865,25.44339244812727L47.752952232956886,25.312291748821735L51.91380926221609,22.187374979257584L47.72062508016825,19.030381083488464L47.67193403840065,18.963987290859222L47.617554530501366,18.80939695984125L47.62647356837988,18.645763978362083L47.654626697301865,18.56839244812727L47.752952232956886,18.437291748821735L48.48505911976099,17.896293379366398L48.64380791783333,17.85562250763178L48.8060367628932,17.878798060119152L48.88065396249294,17.913600727915764L53.25012481212616,21.185210213065147L57.65172577649355,17.896293379366398L57.81047458201647,17.85562250763178ZM93.39273028820753,17.8592212125659L93.5473206192255,17.913600720465183L94.27937489748001,18.469618909060955L94.36286859959364,18.61062990874052L94.38604415208101,18.77285873889923L94.3453732803464,18.93160753697157L94.30266665667295,19.001999996602535L94.21866665780544,19.086000002920628L90.08619073033333,22.187625013291836L94.27937489748001,25.344618901610374L94.32806593924761,25.411012686789036L94.38244544714689,25.565603017807007L94.38604415208101,25.64785873144865L94.3453732803464,25.80660752952099L94.30266665667295,25.876999989151955L94.21866665780544,25.960999988019466L93.51494085788727,26.47870661318302L93.43756932765245,26.506859742105007L93.27393635362387,26.51577877998352L93.19396322965622,26.496201932430267L93.08133331686258,26.435999989509583L88.74987518042326,23.189789779484272L84.34827420115471,26.47870661318302L84.2709026709199,26.506859742105007L84.10726968944073,26.51577877998352L84.02729657292366,26.496201932430267L83.91466666013002,26.435999989509583L78.63729175925255,22.467881083488464L78.58860071748495,22.401487290859222L78.53422120958567,22.24689695984125L78.54314024746418,22.083263978362083L78.57129337638617,22.00589244812727L78.66961891204119,21.874791748821735L83.98505911976099,17.896293379366398L84.14380791783333,17.85562250763178L84.22606363147497,17.8592212125659L84.38065396249294,17.913600720465183L88.75012481212616,21.185210213065147L93.15172577649355,17.896293379366398L93.31047458201647,17.85562250763178ZM117.21398729085922,17.913600713014603L117.94604156166315,18.469618909060955L117.99473260343075,18.536012709140778L118.04911211133003,18.69060304015875L118.04019307345152,18.854236006736755L117.9693333208561,19.001999996602535L117.91371440887451,19.062708236277103L113.75285738706589,22.187625013291836L117.94604156911373,25.344618901610374L117.99473261088133,25.411012686789036L118.04911211878061,25.565603017807007L118.05271082371473,25.64785873144865L118.01203995198011,25.80660752952099L117.96933332830667,25.876999989151955L117.88533332943916,25.960999988019466L117.18160752207041,26.47870661318302L117.10423597693443,26.506859742105007L116.94060301035643,26.51577877998352L116.8606298789382,26.496201932430267L116.74799998104572,26.435999989509583L112.41654183715582,23.189789779484272L108.01494087278843,26.47870661318302L107.93756934255362,26.506859742105007L107.77393636107445,26.51577877998352L107.6939632371068,26.496201932430267L107.58133333921432,26.435999989509583L106.88729175925255,25.905381098389626L106.80379804968834,25.76437009871006L106.78062249720097,25.60214126110077L106.82129336893559,25.44339246302843L106.86399999260902,25.373000010848045L106.94799999147654,25.288999997079372L111.08047594130039,22.187374979257584L106.88729175925255,19.030381083488464L106.83860071748495,18.963987290859222L106.78422120958567,18.80939695984125L106.79314024746418,18.645763978362083L106.82129337638617,18.56839244812727L106.91961891204119,18.437291748821735L107.65172576904297,17.896293379366398L107.72909730672836,17.86814024299383L107.89273028820753,17.859221197664738L107.97270341217518,17.87879805266857L108.08533331751823,17.938999988138676L112.41679146885872,21.185210213065147L116.81839244812727,17.896293371915817L116.89576397836208,17.86814024299383L117.05939695984125,17.859221197664738ZM131.63937007635832,17.87879805266857L131.75199998915195,17.938999988138676L136.08345814794302,21.185210213065147L140.39999999850988,17.95985033363104L140.39999999850988,18.549999997019768L141.66491228342056,18.549999997019768L141.66756257414818,18.55353371053934L141.708116479218,18.668820567429066L141.7125412747264,18.74999998509884L141.708116479218,18.831179402768612L141.6811384484172,18.907872669398785L141.64068169891834,18.992237217724323L141.6235806643963,19.01555572450161L141.60397252440453,19.0369580835104L140.39999999850988,19.943413361907005L140.39999999850988,19.94920652359724L137.41952405124903,22.187625013291836L141.59211306273937,25.32911305874586L141.620096065104,25.357096061110497L141.6844373345375,25.465760871767998L141.71476791799068,25.58414889127016L141.71033840626478,25.665414914488792L141.69757641851902,25.754748813807964L141.69068548083305,25.77368675917387L141.64301559329033,25.854195557534695L141.59376350045204,25.919864997267723L141.4595297202468,26.02249139547348L141.20000000298023,26.02249139547348L141.20000000298023,26.218794994056225L140.8731266707182,26.46034161746502L140.83001763373613,26.483383879065514L140.70751778036356,26.51476790755987L140.6262517720461,26.51033839583397L140.53691782057285,26.497576400637627L140.5065605416894,26.48653031885624L140.47720672935247,26.47283922880888L140.39999999850988,26.41514964401722L140.39999999850988,26.421955972909927L136.0832085236907,23.189789779484272L131.68160753697157,26.47870661318302L131.60423600673676,26.506859742105007L131.44060303270817,26.51577877998352L131.36062990874052,26.496201932430267L131.24800000339746,26.435999989509583L130.55395840853453,25.905381090939045L130.4704647064209,25.76437009125948L130.45088785886765,25.68439695984125L130.45980689674616,25.520763993263245L130.48796003311872,25.44339244812727L130.586285546422,25.312291748821735L134.74714259803295,22.187374979257584L130.5539584234357,19.030381090939045L130.5052673816681,18.963987298309803L130.45088786631823,18.809396967291832L130.4472891688347,18.72714126110077L130.4879600405693,18.56839246302843L130.53066665679216,18.498000003397465L130.61466666311026,18.413999997079372L131.3183924406767,17.896293379366398L131.39576397836208,17.86814024299383L131.55939695239067,17.859221197664738ZM34.38065396249294,9.038600713014603L35.11270823329687,9.594618901610374L35.16139926761389,9.661012686789036L35.21577878296375,9.815603017807007L35.20685973763466,9.979235999286175L35.135999992489815,10.126999989151955L35.08038108050823,10.187708228826523L30.919524051249027,13.312625013291836L35.11270823329687,16.469618901610374L35.16139926761389,16.536012686789036L35.21577878296375,16.690603017807007L35.21937748044729,16.77285873144865L35.17870660871267,16.93160752952099L35.135999992489815,17.001999989151955L35.0519999936223,17.085999988019466L34.34827420860529,17.60370661318302L34.18952541053295,17.64437749236822L34.02729657292366,17.621201939880848L33.95267937332392,17.586399279534817L29.5832085236907,14.314789779484272L25.18160753697157,17.60370661318302L25.104236006736755,17.631859742105007L24.940603032708168,17.64077877998352L24.86062990874052,17.621201932430267L24.748000003397465,17.560999989509583L24.053958408534527,17.030381090939045L23.9704647064209,16.88937009125948L23.950887858867645,16.80939695984125L23.95980689674616,16.645763993263245L23.987960033118725,16.56839244812727L24.086285546422005,16.437291748821735L28.24714259803295,13.312374979257584L24.053958423435688,10.155381090939045L24.00526738166809,10.088987298309803L23.950887866318226,9.934396967291832L23.947289168834686,9.852141261100769L23.987960040569305,9.693392463028431L24.030666656792164,9.623000003397465L24.114666663110256,9.538999997079372L24.81839244067669,9.021293379366398L24.895763978362083,8.993140242993832L25.05939695239067,8.984221197664738L25.13937007635832,9.003798052668571L25.251999989151955,9.063999988138676L29.58345814794302,12.310210213065147L33.98505911976099,9.021293379366398L34.062430649995804,8.993140242993832L34.22606363147497,8.984221197664738ZM100.64273030310869,5.546721197664738L100.79732062667608,5.601100713014603L106.11270824074745,9.594618901610374L106.16139928251505,9.661012686789036L106.21577879041433,9.815603017807007L106.20685975253582,9.979235999286175L106.17870662361383,10.056607529520988L106.08038108795881,10.187708228826523L101.91952405124903,13.312625013291836L106.11270823329687,16.469618901610374L106.16139926761389,16.536012686789036L106.21577878296375,16.690603017807007L106.21937748044729,16.77285873144865L106.17870660871267,16.93160752952099L106.13599999248981,17.001999989151955L106.0519999936223,17.085999988019466L105.34827420860529,17.60370661318302L105.18952541053295,17.64437749236822L105.02729657292366,17.621201939880848L104.95267937332392,17.586399279534817L100.5832085236907,14.314789779484272L96.18160753697157,17.60370661318302L96.10423600673676,17.631859742105007L95.94060303270817,17.64077877998352L95.86062990874052,17.621201932430267L95.74800000339746,17.560999989509583L95.05395840853453,17.030381090939045L94.9704647064209,16.88937009125948L94.95088785886765,16.80939695984125L94.95980689674616,16.645763993263245L94.98796003311872,16.56839244812727L95.086285546422,16.437291748821735L99.24714259803295,13.312374979257584L95.05395842343569,10.155381090939045L95.00526738166809,10.088987298309803L94.95088786631823,9.934396967291832L94.94728916883469,9.852141261100769L94.9879600405693,9.693392463028431L95.03066665679216,9.623000003397465L95.11466666311026,9.538999997079372L100.40172579139471,5.583793371915817L100.56047458946705,5.543122500181198ZM10.713987290859222,9.038600713014603L11.44604156166315,9.594618909060955L11.494732603430748,9.661012709140778L11.549112111330032,9.815603040158749L11.540193073451519,9.979236006736755L11.469333320856094,10.126999996602535L11.413714408874512,10.187708236277103L7.2528573870658875,13.312625013291836L11.446041569113731,16.469618901610374L11.494732610881329,16.536012686789036L11.549112118780613,16.690603017807007L11.552710823714733,16.77285873144865L11.512039951980114,16.93160752952099L11.469333328306675,17.001999989151955L11.385333329439163,17.085999988019466L10.681607522070408,17.60370661318302L10.604235976934433,17.631859742105007L10.440603010356426,17.64077877998352L10.360629878938198,17.621201932430267L10.247999981045723,17.560999989509583L5.916541837155819,14.314789779484272L1.6000000014901161,17.54014964401722L1.6000000014901161,16.950000002980232L0.3396974876523018,16.950000002980232L0.3093145117163658,16.89868675917387L0.3024235740303993,16.879748813807964L0.28966158628463745,16.790414914488792L0.2852320745587349,16.70914889127016L0.3155626580119133,16.590760871767998L0.3799039274454117,16.482096061110497L0.40788692981004715,16.45411305874586L1.6000000014901161,15.556586623191833L1.6000000014901161,15.549367725849152L4.580475941300392,13.312374979257584L0.39602746814489365,10.161958083510399L0.3764193281531334,10.14055572450161L0.3593182936310768,10.117237217724323L0.31886154413223267,10.032872669398785L0.29188351333141327,9.956179402768612L0.28745871782302856,9.874999985098839L0.29188351333141327,9.793820567429066L0.3324374258518219,9.678533710539341L0.4060712605714798,9.580355271697044L0.5417629554867744,9.47729317843914L0.7999999970197678,9.47729317843914L0.7999999970197678,9.281204983592033L1.1364433988928795,9.032586447894573L1.2521538957953453,8.991883508861065L1.333333320915699,8.9874587059021L1.426758073270321,8.99255095422268L1.4548459574580193,8.999426670372486L1.485164612531662,9.010458700358868L1.5388295352458954,9.039143197238445L1.6000000014901161,9.084850333631039L1.6000000014901161,9.074991926550865L5.916791468858719,12.310210213065147L10.31839244812727,9.021293371915817L10.395763978362083,8.993140242993832L10.559396959841251,8.984221197664738ZM17.80939695984125,5.546721212565899L17.963987290859222,5.601100720465183L23.27937489748001,9.594618909060955L23.328065939247608,9.661012701690197L23.382445447146893,9.815603032708168L23.386044152081013,9.897858738899231L23.345373280346394,10.056607536971569L23.302666656672955,10.126999996602535L23.218666657805443,10.211000002920628L19.08619073033333,13.312625013291836L23.27937489748001,16.469618901610374L23.328065939247608,16.536012686789036L23.382445447146893,16.690603017807007L23.386044152081013,16.77285873144865L23.345373280346394,16.93160752952099L23.302666656672955,17.001999989151955L23.218666657805443,17.085999988019466L22.514940857887268,17.60370661318302L22.437569327652454,17.631859742105007L22.273936353623867,17.64077877998352L22.19396322965622,17.621201932430267L22.081333316862583,17.560999989509583L17.74987518042326,14.314789779484272L13.348274201154709,17.60370661318302L13.270902670919895,17.631859742105007L13.107269689440727,17.64077877998352L13.02729657292366,17.621201932430267L12.914666660130024,17.560999989509583L12.220625080168247,17.030381083488464L12.137131378054619,16.88937007635832L12.117554530501366,16.80939695984125L12.126473568379879,16.645763978362083L12.154626697301865,16.56839244812727L12.252952232956886,16.437291748821735L16.41380926221609,13.312374979257584L12.220625080168247,10.155381090939045L12.17193403840065,10.088987298309803L12.117554530501366,9.934396967291832L12.126473568379879,9.770763993263245L12.154626697301865,9.693392463028431L12.252952232956886,9.562291763722897L17.56839244812727,5.583793379366398L17.72714125365019,5.543122507631779ZM41.47606361657381,5.546721197664738L41.63065394759178,5.601100713014603L46.94604156911373,9.594618909060955L46.99473261088133,9.661012701690197L47.04911211878061,9.815603032708168L47.05271082371473,9.897858738899231L47.012039951980114,10.056607536971569L46.969333328306675,10.126999996602535L46.88533332943916,10.211000002920628L42.75285738706589,13.312625013291836L46.94604156911373,16.469618901610374L46.99473261088133,16.536012686789036L47.04911211878061,16.690603017807007L47.05271082371473,16.77285873144865L47.012039951980114,16.93160752952099L46.969333328306675,17.001999989151955L46.88533332943916,17.085999988019466L46.18160752207041,17.60370661318302L46.10423597693443,17.631859742105007L45.940603010356426,17.64077877998352L45.8606298789382,17.621201932430267L45.74799998104572,17.560999989509583L41.41654183715582,14.314789779484272L37.01494087278843,17.60370661318302L36.937569342553616,17.631859742105007L36.77393636107445,17.64077877998352L36.6939632371068,17.621201932430267L36.581333339214325,17.560999989509583L35.88729175925255,17.030381098389626L35.80379804968834,16.88937009871006L35.780622497200966,16.72714126110077L35.821293368935585,16.56839246302843L35.863999992609024,16.498000010848045L35.947999991476536,16.413999997079372L40.08047594130039,13.312374979257584L35.88729175180197,10.155381083488464L35.83860071003437,10.088987290859222L35.784221202135086,9.934396959841251L35.780622497200966,9.852141253650188L35.821293368935585,9.69339244812727L35.863999992609024,9.622999988496304L35.947999991476536,9.538999989628792L41.23505911231041,5.583793371915817L41.39380791038275,5.543122500181198ZM57.89273028820753,8.984221212565899L58.0473206192255,9.038600720465183L63.36270823329687,13.032118901610374L63.41139926761389,13.098512686789036L63.46577878296375,13.253103017807007L63.46937748044729,13.33535873144865L63.42870660871267,13.494107529520988L63.385999992489815,13.564499989151955L63.3019999936223,13.648499988019466L58.01494085788727,17.60370661318302L57.937569327652454,17.631859742105007L57.77393635362387,17.64077877998352L57.69396322965622,17.621201932430267L57.58133331686258,17.560999989509583L53.24987518042326,14.314789779484272L48.84827420115471,17.60370661318302L48.770902670919895,17.631859742105007L48.60726968944073,17.64077877998352L48.52729657292366,17.621201932430267L48.414666660130024,17.560999989509583L47.72062508016825,17.030381083488464L47.63713137805462,16.88937007635832L47.617554530501366,16.80939695984125L47.62647356837988,16.645763978362083L47.654626697301865,16.56839244812727L47.752952232956886,16.437291748821735L51.91380926221609,13.312374979257584L47.72062508016825,10.155381083488464L47.67193403840065,10.088987290859222L47.617554530501366,9.934396959841251L47.62647356837988,9.770763978362083L47.654626697301865,9.69339244812727L47.752952232956886,9.562291748821735L48.48505911976099,9.021293379366398L48.64380791783333,8.980622507631779L48.8060367628932,9.003798060119152L48.88065396249294,9.038600727915764L53.25012481212616,12.310210213065147L57.65172577649355,9.021293379366398L57.81047458201647,8.980622507631779ZM93.39273028820753,8.984221212565899L93.5473206192255,9.038600720465183L94.27937489748001,9.594618909060955L94.36286859959364,9.73562990874052L94.38604415208101,9.897858738899231L94.3453732803464,10.056607536971569L94.30266665667295,10.126999996602535L94.21866665780544,10.211000002920628L90.08619073033333,13.312625013291836L94.27937489748001,16.469618901610374L94.32806593924761,16.536012686789036L94.38244544714689,16.690603017807007L94.38604415208101,16.77285873144865L94.3453732803464,16.93160752952099L94.30266665667295,17.001999989151955L94.21866665780544,17.085999988019466L93.51494085788727,17.60370661318302L93.43756932765245,17.631859742105007L93.27393635362387,17.64077877998352L93.19396322965622,17.621201932430267L93.08133331686258,17.560999989509583L88.74987518042326,14.314789779484272L84.34827420115471,17.60370661318302L84.2709026709199,17.631859742105007L84.10726968944073,17.64077877998352L84.02729657292366,17.621201932430267L83.91466666013002,17.560999989509583L78.63729175925255,13.592881083488464L78.58860071748495,13.526487290859222L78.53422120958567,13.371896959841251L78.54314024746418,13.208263978362083L78.57129337638617,13.13089244812727L78.66961891204119,12.999791748821735L83.98505911976099,9.021293379366398L84.14380791783333,8.980622507631779L84.22606363147497,8.984221212565899L84.38065396249294,9.038600720465183L88.75012481212616,12.310210213065147L93.15172577649355,9.021293379366398L93.31047458201647,8.980622507631779ZM117.21398729085922,9.038600713014603L117.94604156166315,9.594618909060955L117.99473260343075,9.661012709140778L118.04911211133003,9.815603040158749L118.04019307345152,9.979236006736755L117.9693333208561,10.126999996602535L117.91371440887451,10.187708236277103L113.75285738706589,13.312625013291836L117.94604156911373,16.469618901610374L117.99473261088133,16.536012686789036L118.04911211878061,16.690603017807007L118.05271082371473,16.77285873144865L118.01203995198011,16.93160752952099L117.96933332830667,17.001999989151955L117.88533332943916,17.085999988019466L117.18160752207041,17.60370661318302L117.10423597693443,17.631859742105007L116.94060301035643,17.64077877998352L116.8606298789382,17.621201932430267L116.74799998104572,17.560999989509583L112.41654183715582,14.314789779484272L108.01494087278843,17.60370661318302L107.93756934255362,17.631859742105007L107.77393636107445,17.64077877998352L107.6939632371068,17.621201932430267L107.58133333921432,17.560999989509583L106.88729175925255,17.030381098389626L106.80379804968834,16.88937009871006L106.78062249720097,16.72714126110077L106.82129336893559,16.56839246302843L106.86399999260902,16.498000010848045L106.94799999147654,16.413999997079372L111.08047594130039,13.312374979257584L106.88729175925255,10.155381083488464L106.83860071748495,10.088987290859222L106.78422120958567,9.934396959841251L106.79314024746418,9.770763978362083L106.82129337638617,9.69339244812727L106.91961891204119,9.562291748821735L107.65172576904297,9.021293379366398L107.72909730672836,8.993140242993832L107.89273028820753,8.984221197664738L107.97270341217518,9.003798052668571L108.08533331751823,9.063999988138676L112.41679146885872,12.310210213065147L116.81839244812727,9.021293371915817L116.89576397836208,8.993140242993832L117.05939695984125,8.984221197664738ZM124.30939695984125,5.546721212565899L124.46398729085922,5.601100720465183L129.77937489748,9.594618909060955L129.8280659392476,9.661012701690197L129.8824454471469,9.815603032708168L129.886044152081,9.897858738899231L129.8453732803464,10.056607536971569L129.80266665667295,10.126999996602535L129.71866665780544,10.211000002920628L125.58619073033333,13.312625013291836L129.77937489748,16.469618901610374L129.8280659392476,16.536012686789036L129.8824454471469,16.690603017807007L129.886044152081,16.77285873144865L129.8453732803464,16.93160752952099L129.80266665667295,17.001999989151955L129.71866665780544,17.085999988019466L129.01494085788727,17.60370661318302L128.93756932765245,17.631859742105007L128.77393635362387,17.64077877998352L128.69396322965622,17.621201932430267L128.58133331686258,17.560999989509583L124.24987518042326,14.314789779484272L119.84827420115471,17.60370661318302L119.7709026709199,17.631859742105007L119.60726968944073,17.64077877998352L119.52729657292366,17.621201932430267L119.41466666013002,17.560999989509583L118.72062508016825,17.030381083488464L118.63713137805462,16.88937007635832L118.61755453050137,16.80939695984125L118.62647356837988,16.645763978362083L118.65462669730186,16.56839244812727L118.75295223295689,16.437291748821735L122.91380926221609,13.312374979257584L118.72062508016825,10.155381090939045L118.67193403840065,10.088987298309803L118.61755453050137,9.934396967291832L118.62647356837988,9.770763993263245L118.65462669730186,9.693392463028431L118.75295223295689,9.562291763722897L124.06839244812727,5.583793379366398L124.22714125365019,5.543122507631779ZM131.63937007635832,9.003798052668571L131.75199998915195,9.063999988138676L136.08345814794302,12.310210213065147L140.4611704647541,9.039143197238445L140.51483538001776,9.010458700358868L140.5451540350914,8.999426670372486L140.5732419192791,8.99255095422268L140.66666667163372,8.9874587059021L140.74784609675407,8.991883508861065L140.86355659365654,9.032586447894573L141.20000000298023,9.281204983592033L141.20000000298023,9.47729317843914L141.45823704451323,9.47729317843914L141.59392873197794,9.580355271697044L141.6675625666976,9.678533710539341L141.708116479218,9.793820567429066L141.7125412747264,9.874999985098839L141.708116479218,9.956179402768612L141.6811384484172,10.032872669398785L141.64068169891834,10.117237217724323L141.6235806643963,10.14055572450161L141.60397252440453,10.161958083510399L140.39999999850988,11.068413361907005L140.39999999850988,11.07420652359724L137.41952405124903,13.312625013291836L141.59211306273937,16.45411305874586L141.620096065104,16.482096061110497L141.6844373345375,16.590760871767998L141.71476791799068,16.70914889127016L141.71033840626478,16.790414914488792L141.69757641851902,16.879748813807964L141.69068548083305,16.89868675917387L141.6603025123477,16.950000002980232L140.39999999850988,16.950000002980232L140.39999999850988,17.54014964401722L140.39999999850988,17.546955972909927L136.0832085236907,14.314789779484272L131.68160753697157,17.60370661318302L131.60423600673676,17.631859742105007L131.44060303270817,17.64077877998352L131.36062990874052,17.621201932430267L131.24800000339746,17.560999989509583L130.55395840853453,17.030381090939045L130.4704647064209,16.88937009125948L130.45088785886765,16.80939695984125L130.45980689674616,16.645763993263245L130.48796003311872,16.56839244812727L130.586285546422,16.437291748821735L134.74714259803295,13.312374979257584L130.5539584234357,10.155381090939045L130.5052673816681,10.088987298309803L130.45088786631823,9.934396967291832L130.4472891688347,9.852141261100769L130.4879600405693,9.693392463028431L130.53066665679216,9.623000003397465L130.61466666311026,9.538999997079372L131.3183924406767,9.021293379366398L131.39576397836208,8.993140242993832L131.55939695239067,8.984221197664738ZM60.663350991904736,0.1416161134839058L60.70549614727497,0.1641431674361229L62.62712237238884,1.6000000014901161L62.634714633226395,1.6000000014901161L65.08345814794302,3.4352102130651474L69.46117052435875,0.1641431525349617L69.51483532041311,0.13545872271060944L69.54515405744314,0.12442666292190552L69.57324190437794,0.11755095422267914L69.66666665673256,0.11245870590209961L69.7478460893035,0.11688350886106491L69.86368774622679,0.15763258188962936L70.15356558561325,0.3708856478333473L70.20000000298023,0.4061540439724922L70.20000000298023,1.5911037623882294L70.18818383663893,1.6000000014901161L70.19784929603338,1.6000000014901161L66.41952405124903,4.437625013291836L70.61270823329687,7.5946189016103745L70.66139926761389,7.661012686789036L70.71577878296375,7.815603017807007L70.71937748044729,7.89785873144865L70.67870660871267,8.056607529520988L70.63599999248981,8.126999989151955L70.5519999936223,8.210999988019466L65.26494087278843,12.166206613183022L65.18756934255362,12.194359742105007L65.02393636107445,12.20327877998352L64.9439632371068,12.183701932430267L64.83133333176374,12.123499989509583L59.55395840853453,8.155381083488464L59.50526736676693,8.088987290859222L59.450887858867645,7.934396959841251L59.45980689674616,7.770763978362083L59.53066664934158,7.622999988496304L59.586285561323166,7.562291748821735L63.74714259803295,4.437374979257584L59.56269406527281,1.2869580388069153L59.54308607429266,1.26555585116148L59.52598491311073,1.2422371730208397L59.485528223216534,1.15787273645401L59.45855017751455,1.0811794251203537L59.451898731291294,0.9591489359736443L59.4720973148942,0.8803087025880814L59.502042323350906,0.7951809167861938L59.518798522651196,0.7675620019435883L59.539960354566574,0.7387062981724739L59.575122594833374,0.703544057905674L60.013102285563946,0.3708847388625145L60.30297885835171,0.15763261169195175L60.41882061958313,0.11688350141048431L60.54085102677345,0.11023206263780594ZM72.49668432027102,0.1416161134839058L72.53882949054241,0.1641431748867035L74.46045570075512,1.6000000014901161L74.4680479541421,1.6000000014901161L76.91679146885872,3.4352102130651474L81.31054000556469,0.15216077864170074L81.33989395201206,0.1384696289896965L81.37025108188391,0.12742359936237335L81.45958526432514,0.1146615669131279L81.54085101187229,0.11023207008838654L81.61969141662121,0.1304306909441948L81.69702105224133,0.15763257443904877L81.98689871281385,0.370885506272316L82.42487731575966,0.7035439983010292L82.46003966033459,0.7387063428759575L82.48120143264532,0.7675619721412659L82.49795765429735,0.7951809093356133L82.52790269255638,0.8803088068962097L82.54810123890638,0.9591488987207413L82.5414498001337,1.0811794474720955L82.51447182148695,1.1578725799918175L82.47401499003172,1.2422372922301292L82.45691405981779,1.2655556574463844L82.43730580806732,1.286958135664463L82.02151717245579,1.6000000014901161L82.03118263185024,1.6000000014901161L78.25285738706589,4.437625013291836L82.44604156911373,7.5946189016103745L82.49473261088133,7.661012686789036L82.54911211878061,7.815603017807007L82.55271082371473,7.89785873144865L82.51203995198011,8.056607529520988L82.46933332830667,8.126999989151955L82.38533332943916,8.210999988019466L77.09827420115471,12.166206613183022L77.0209026709199,12.194359742105007L76.85726968944073,12.20327877998352L76.77729657292366,12.183701932430267L76.66466666013002,12.123499989509583L71.38729175180197,8.155381090939045L71.30379804968834,8.01437009125948L71.28062249720097,7.852141261100769L71.32129336893559,7.693392463028431L71.36399999260902,7.623000003397465L71.44799999147654,7.538999997079372L75.58047594130039,4.437374979257584L71.79999999701977,1.5911037474870682L71.79999999701977,0.4062049835920334L72.13644337654114,0.1575864627957344L72.25215394794941,0.11688350141048431L72.37418436259031,0.11023206263780594ZM10.503023982048035,0L16.02937489748001,4.1571189016103745L16.078065939247608,4.223512686789036L16.132445447146893,4.378103017807007L16.136044152081013,4.46035873144865L16.095373280346394,4.6191075295209885L16.052666656672955,4.689499989151955L15.968666657805443,4.773499988019466L10.681607529520988,8.728706613183022L10.604235999286175,8.756859742105007L10.440603017807007,8.76577877998352L10.36062990128994,8.746201932430267L10.247999988496304,8.685999989509583L5.916541837155819,5.439789779484272L1.5388294979929924,8.710856802761555L1.4851646572351456,8.73954126238823L1.4548459351062775,8.750573314726353L1.4267580807209015,8.757449023425579L1.3333333358168602,8.762541264295578L1.2399085834622383,8.757449023425579L1.211820736527443,8.750573314726353L1.1815019845962524,8.739541254937649L1.1269085183739662,8.710360430181026L0.7999999970197678,8.468693271279335L0.7999999970197678,0.6023833677172661L0.7999999970197678,0.3976859822869301L1.3303092569112778,0ZM22.05171074718237,0L22.021735079586506,0.13722453266382217L21.997957676649094,0.20481906086206436L21.981201402843,0.2324380800127983L21.96003967523575,0.2612936496734619L21.925540551543236,0.2957927733659744L20.190650828182697,1.6000000014901161L20.194247037172318,1.6000000014901161L17.93160753697157,3.291206620633602L17.77285873889923,3.3318774923682213L17.690603032708168,3.328278787434101L17.536012701690197,3.2738992795348167L13.574459418654442,0.29579275846481323L13.539960332214832,0.2612936720252037L13.518798552453518,0.23243803530931473L13.502042315900326,0.20481906831264496L13.478264905512333,0.13722454756498337L13.44828923791647,0ZM34.169690653681755,0L39.69604156911373,4.1571189016103745L39.74473261088133,4.223512686789036L39.79911211878061,4.378103017807007L39.80271082371473,4.46035873144865L39.762039951980114,4.6191075295209885L39.719333328306675,4.689499989151955L39.63533332943916,4.773499988019466L34.34827420115471,8.728706613183022L34.270902670919895,8.756859742105007L34.10726968944073,8.76577877998352L34.02729657292366,8.746201932430267L33.914666660130024,8.685999989509583L29.5832085236907,5.439789779484272L25.18160753697157,8.728706620633602L25.02285873889923,8.769377492368221L24.940603032708168,8.765778787434101L24.786012701690197,8.711399279534817L19.470625087618828,4.717881090939045L19.42193405330181,4.651487298309803L19.367554537951946,4.496896967291832L19.363955840468407,4.414641261100769L19.404626712203026,4.255892463028431L19.447333328425884,4.185500003397465L19.531333327293396,4.101499997079372L22.864822328090668,1.6000000014901161L22.869983330368996,1.6000000014901161L24.996976003050804,0ZM45.71837741136551,0L45.688401736319065,0.13722454756498337L45.66462432593107,0.20481906831264496L45.6478680819273,0.23243805021047592L45.62670632451773,0.2612936571240425L45.592207215726376,0.2957927733659744L43.85731749236584,1.6000000014901161L43.86091370135546,1.6000000014901161L41.59827420115471,3.291206620633602L41.43952540308237,3.3318774923682213L41.35726968944073,3.328278787434101L41.202679358422756,3.2738992795348167L37.239153400063515,0.2943097949028015L37.16577074676752,0.19646626710891724L37.12521683424711,0.0811794102191925L37.12079204618931,0ZM57.836356826126575,0L58.75789163261652,0.7032249867916107L58.79337302595377,0.7387063801288605L58.814534708857536,0.7675618827342987L58.83129100501537,0.7951809465885162L58.86123599112034,0.8803087025880814L58.883632093667984,0.9677264168858528L58.88504407554865,1L58.883632101118565,1.0322735831141472L58.86123598366976,1.119691327214241L58.831291012465954,1.2048190385103226L58.814534686505795,1.2324381545186043L58.79337302595377,1.2612936198711395L58.75877970457077,1.295886941254139L58.35485050082207,1.6000000014901161L58.366924062371254,1.6000000014901161L54.58619073033333,4.437625013291836L58.77937489748001,7.5946189016103745L58.82806593924761,7.661012686789036L58.88244544714689,7.815603017807007L58.88604415208101,7.89785873144865L58.845373280346394,8.056607529520988L58.802666656672955,8.126999989151955L58.71866665780544,8.210999988019466L58.01494085788727,8.728706613183022L57.937569327652454,8.756859742105007L57.77393635362387,8.76577877998352L57.69396322965622,8.746201932430267L57.58133331686258,8.685999989509583L53.24987518042326,5.439789779484272L48.84827420115471,8.728706620633602L48.68952540308237,8.769377492368221L48.60726968944073,8.765778787434101L48.452679358422756,8.711399279534817L43.13729175180197,4.717881090939045L43.08860071003437,4.651487298309803L43.034221202135086,4.496896967291832L43.030622497200966,4.414641261100769L43.071293368935585,4.255892463028431L43.113999992609024,4.185500003397465L43.197999991476536,4.101499997079372L46.53148899227381,1.6000000014901161L46.536649994552135,1.6000000014901161L48.663642667233944,0ZM93.33635724335909,0L98.86270824074745,4.1571189016103745L98.91139928251505,4.223512686789036L98.96577879041433,4.378103017807007L98.95685975253582,4.541735999286175L98.92870662361383,4.6191075295209885L98.83038108795881,4.750208228826523L93.51494087278843,8.728706613183022L93.43756934255362,8.756859742105007L93.27393636107445,8.76577877998352L93.1939632371068,8.746201932430267L93.08133333176374,8.685999989509583L88.74987518042326,5.439789779484272L84.34827420115471,8.728706613183022L84.2709026709199,8.756859742105007L84.10726968944073,8.76577877998352L84.02729657292366,8.746201932430267L83.91466666013002,8.685999989509583L83.22062508016825,8.155381083488464L83.13713137805462,8.014370076358318L83.11755453050137,7.934396959841251L83.12647356837988,7.770763978362083L83.15462669730186,7.69339244812727L83.25295223295689,7.562291748821735L87.41380926221609,4.437374979257584L83.22936074435711,1.2869580537080765L83.2097527012229,1.2655557990074158L83.1926516070962,1.2422372102737427L83.15219485759735,1.157872661948204L83.12521684914827,1.081179440021515L83.12079204618931,0.9999999031424522L83.12521683424711,0.9188206270337105L83.165770791471,0.8035336509346962L83.23952734470367,0.7051915898919106L84.1634489223361,0ZM104.88504409044981,0L104.85506841540337,0.13722454756498337L104.83129100501537,0.20481906831264496L104.8145347610116,0.23243805021047592L104.79337300360203,0.2612936571240425L104.75887389481068,0.2957927733659744L103.02398416399956,1.6000000014901161L103.02758038043976,1.6000000014901161L100.76494087278843,3.291206620633602L100.60619206726551,3.3318774923682213L100.52393636107445,3.328278787434101L100.36934603005648,3.2738992795348167L96.40582007914782,0.2943097949028015L96.33243742585182,0.19646626710891724L96.29188351333141,0.0811794102191925L96.28745872527361,0ZM117.00302398204803,0L122.52937489748001,4.1571189016103745L122.57806593924761,4.223512686789036L122.63244544714689,4.378103017807007L122.63604415208101,4.46035873144865L122.5953732803464,4.6191075295209885L122.55266665667295,4.689499989151955L122.46866665780544,4.773499988019466L117.18160752952099,8.728706613183022L117.10423599928617,8.756859742105007L116.940603017807,8.76577877998352L116.86062990128994,8.746201932430267L116.7479999884963,8.685999989509583L112.41654183715582,5.439789779484272L108.01494085788727,8.728706613183022L107.93756932765245,8.756859742105007L107.77393635362387,8.76577877998352L107.69396322965622,8.746201932430267L107.58133331686258,8.685999989509583L102.30395842343569,4.717881090939045L102.25526738166809,4.651487298309803L102.20088786631823,4.496896967291832L102.19728916883469,4.414641261100769L102.2379600405693,4.255892463028431L102.28066665679216,4.185500003397465L102.36466666311026,4.101499997079372L105.69815565645695,1.6000000014901161L105.70331665873528,1.6000000014901161L107.83030933141708,0ZM128.55171074718237,0L128.5217350795865,0.13722453266382217L128.4979576766491,0.20481906086206436L128.481201402843,0.2324380800127983L128.46003967523575,0.2612936496734619L128.42554055154324,0.2957927733659744L126.6906508281827,1.6000000014901161L126.69424703717232,1.6000000014901161L124.43160753697157,3.291206620633602L124.27285873889923,3.3318774923682213L124.19060303270817,3.328278787434101L124.0360127016902,3.2738992795348167L120.07445941865444,0.29579275846481323L120.03996033221483,0.2612936720252037L120.01879855245352,0.23243803530931473L120.00204231590033,0.20481906831264496L119.97826490551233,0.13722454756498337L119.94828923791647,0ZM140.66969074308872,0L141.20000000298023,0.3976859822869301L141.20000000298023,0.6023833677172661L141.20000000298023,8.468693271279335L140.87309147417545,8.710360430181026L140.81849800795317,8.739541254937649L140.78817925602198,8.750573314726353L140.76009140908718,8.757449023425579L140.66666666418314,8.762541264295578L140.57324191182852,8.757449023425579L140.54515405744314,8.750573314726353L140.51483533531427,8.73954126238823L140.46117049455643,8.710856810212135L140.39999999850988,8.66514964401722L140.39999999850988,8.675008058547974L136.0832085236907,5.439789779484272L131.68160753697157,8.728706620633602L131.52285873889923,8.769377492368221L131.44060303270817,8.765778787434101L131.2860127016902,8.711399279534817L125.97062508761883,4.717881090939045L125.92193405330181,4.651487298309803L125.86755453795195,4.496896967291832L125.8639558404684,4.414641261100769L125.90462671220303,4.255892463028431L125.94733332842588,4.185500003397465L126.0313333272934,4.101499997079372L129.36482232809067,1.6000000014901161L129.369983330369,1.6000000014901161L131.4969760030508,0Z"/></defs><rect width="100%" height="100%" fill="white"/><g fill="#203448" fill-rule="evenodd"><use transform="translate(0,0)" href="#tile"/><use transform="translate(142,0)" href="#tile"/><use transform="translate(284,0)" href="#tile"/><use transform="translate(0,35.5)" href="#tile"/><use transform="translate(142,35.5)" href="#tile"/><use transform="translate(284,35.5)" href="#tile"/><use transform="translate(0,71)" href="#tile"/><use transform="translate(142,71)" href="#tile"/><use transform="translate(284,71)" href="#tile"/></g><path d="M142,0V106.5M284,0V106.5M0,35.5H426M0,71H426" stroke="#ec4661" stroke-width="0.11833333333333333" stroke-dasharray="0.355" fill="none"/></svg>